<?xml version="1.0" encoding="utf-8"?>
<!-- Generator: Adobe Illustrator 22.1.0, SVG Export Plug-In . SVG Version: 6.00 Build 0)  -->
<svg version="1.1" id="图层_1" xmlns="http://www.w3.org/2000/svg" xmlns:xlink="http://www.w3.org/1999/xlink" x="0px" y="0px"
	 viewBox="0 0 546 443" style="enable-background:new 0 0 546 443;" xml:space="preserve">
<style type="text/css">
	.st0{fill:#FFFF00;}
	.st1{fill:#61619D;}
	.st2{fill:#959569;}
	.st3{fill:#0000FF;}
	.st4{fill:#4848B6;}
	.st5{fill:#71718D;}
	.st6{fill:#9F9F5F;}
	.st7{fill:#AFAF4F;}
	.st8{fill:#90906E;}
	.st9{fill:#80807E;}
	.st10{fill:#9A9A64;}
	.st11{fill:#A4A45A;}
	.st12{fill:#7B7B83;}
	.st13{fill:#8B8B73;}
	.st14{fill:#2424DA;}
	.st15{fill:#C8C836;}
	.st16{fill:#858579;}
	.st17{fill:#767688;}
	.st18{fill:#5C5CA2;}
	.st19{fill:#6C6C92;}
	.st20{fill:url(#SVGID_1_);}
</style>
<rect x="5" y="5" class="st0" width="59.8" height="55.1"/>
<rect x="5" y="60.1" class="st1" width="59.8" height="55.1"/>
<rect x="5" y="115.2" class="st2" width="59.8" height="55.1"/>
<rect x="5" y="170.2" class="st3" width="59.8" height="55.1"/>
<rect x="5" y="225.3" class="st4" width="59.8" height="55.1"/>
<rect x="5" y="280.4" class="st1" width="59.8" height="55.1"/>
<rect x="5" y="335.5" class="st4" width="59.8" height="55.1"/>
<rect x="64.8" y="5" class="st5" width="59.8" height="55.1"/>
<rect x="64.8" y="60.1" class="st0" width="59.8" height="55.1"/>
<rect x="64.8" y="115.2" class="st6" width="59.8" height="55.1"/>
<rect x="64.8" y="170.2" class="st7" width="59.8" height="55.1"/>
<rect x="64.8" y="225.3" class="st8" width="59.8" height="55.1"/>
<rect x="64.8" y="280.4" class="st6" width="59.8" height="55.1"/>
<rect x="64.8" y="335.5" class="st9" width="59.8" height="55.1"/>
<rect x="124.5" y="5" class="st10" width="59.8" height="55.1"/>
<rect x="124.5" y="60.1" class="st11" width="59.8" height="55.1"/>
<rect x="124.5" y="115.2" class="st0" width="59.8" height="55.1"/>
<rect x="124.5" y="170.2" class="st12" width="59.8" height="55.1"/>
<rect x="124.5" y="225.3" class="st13" width="59.8" height="55.1"/>
<rect x="124.5" y="280.4" class="st6" width="59.8" height="55.1"/>
<rect x="124.5" y="335.5" class="st11" width="59.8" height="55.1"/>
<rect x="184.3" y="5" class="st14" width="59.8" height="55.1"/>
<rect x="184.3" y="60.1" class="st15" width="59.8" height="55.1"/>
<rect x="184.3" y="115.2" class="st16" width="59.8" height="55.1"/>
<rect x="184.3" y="170.2" class="st0" width="59.8" height="55.1"/>
<rect x="184.3" y="225.3" class="st4" width="59.8" height="55.1"/>
<rect x="184.3" y="280.4" class="st1" width="59.8" height="55.1"/>
<rect x="184.3" y="335.5" class="st9" width="59.8" height="55.1"/>
<rect x="244.1" y="5" class="st10" width="59.8" height="55.1"/>
<rect x="244.1" y="60.1" class="st17" width="59.8" height="55.1"/>
<rect x="244.1" y="115.2" class="st16" width="59.8" height="55.1"/>
<rect x="244.1" y="170.2" class="st6" width="59.8" height="55.1"/>
<rect x="244.1" y="225.3" class="st0" width="59.8" height="55.1"/>
<rect x="244.1" y="280.4" class="st18" width="59.8" height="55.1"/>
<rect x="244.1" y="335.5" class="st8" width="59.8" height="55.1"/>
<rect x="303.8" y="5" class="st17" width="59.8" height="55.1"/>
<rect x="303.8" y="60.1" class="st12" width="59.8" height="55.1"/>
<rect x="303.8" y="115.2" class="st8" width="59.8" height="55.1"/>
<rect x="303.8" y="170.2" class="st2" width="59.8" height="55.1"/>
<rect x="303.8" y="225.3" class="st10" width="59.8" height="55.1"/>
<rect x="303.8" y="280.4" class="st0" width="59.8" height="55.1"/>
<rect x="303.8" y="335.5" class="st10" width="59.8" height="55.1"/>
<rect x="363.6" y="5" class="st19" width="59.8" height="55.1"/>
<rect x="363.6" y="60.1" class="st16" width="59.8" height="55.1"/>
<rect x="363.6" y="115.2" class="st12" width="59.8" height="55.1"/>
<rect x="363.6" y="170.2" class="st13" width="59.8" height="55.1"/>
<rect x="363.6" y="225.3" class="st2" width="59.8" height="55.1"/>
<rect x="363.6" y="280.4" class="st9" width="59.8" height="55.1"/>
<rect x="363.6" y="335.5" class="st0" width="59.8" height="55.1"/>
<g>
	<path d="M32.8,394.2c1.7,0,3,0.4,3.9,1.3c0.9,0.9,1.4,2,1.4,3.5c0,0.9-0.2,1.8-0.7,2.5c-0.4,0.7-1.1,1.3-1.8,1.7
		c-0.8,0.4-1.7,0.6-2.7,0.6c-1,0-1.9-0.2-2.7-0.6s-1.4-1-1.8-1.7c-0.4-0.8-0.6-1.6-0.6-2.4c0-0.9,0.2-1.8,0.7-2.5
		c0.5-0.7,1.1-1.3,1.9-1.7S31.9,394.2,32.8,394.2z M32.8,395.6c-1.2,0-2.2,0.3-2.9,1c-0.7,0.6-1,1.5-1,2.4c0,1,0.4,1.8,1.1,2.5
		c0.7,0.6,1.7,1,3,1c0.8,0,1.5-0.1,2.1-0.4c0.6-0.3,1.1-0.7,1.4-1.2c0.3-0.5,0.5-1.1,0.5-1.8c0-0.9-0.3-1.7-1-2.4
		C35.4,395.9,34.3,395.6,32.8,395.6z"/>
	<path d="M27.9,405.3h10v1.2h-10V405.3z"/>
	<path d="M27.9,408.5h7.3v1.2h-7.3V408.5z M36.5,408.5h1.4v1.2h-1.4V408.5z"/>
	<path d="M27.3,411.4l-0.2,1.2c-0.4,0-0.6,0.2-0.8,0.4c-0.2,0.3-0.3,0.7-0.3,1.3c0,0.6,0.1,1,0.3,1.3c0.2,0.3,0.5,0.5,1,0.6
		c0.3,0.1,0.8,0.1,1.6,0.1c-0.6-0.5-1-1.2-1-2c0-1,0.4-1.8,1.1-2.3s1.6-0.8,2.6-0.8c0.7,0,1.3,0.1,1.9,0.4c0.6,0.3,1,0.6,1.4,1.1
		c0.3,0.5,0.5,1,0.5,1.7c0,0.9-0.3,1.6-1,2.1h0.9v1.1h-6.3c-1.1,0-1.9-0.1-2.4-0.3c-0.5-0.2-0.8-0.6-1.1-1.1S25,415,25,414.2
		c0-0.9,0.2-1.6,0.6-2.1C25.9,411.6,26.5,411.3,27.3,411.4z M31.7,412.4c-1,0-1.6,0.2-2.1,0.6c-0.4,0.4-0.7,0.9-0.7,1.4
		c0,0.6,0.2,1,0.7,1.4c0.4,0.4,1.1,0.6,2,0.6c0.9,0,1.6-0.2,2-0.6c0.5-0.4,0.7-0.9,0.7-1.4c0-0.5-0.2-1-0.7-1.4
		C33.2,412.6,32.5,412.4,31.7,412.4z"/>
	<path d="M31.5,418.9c1.3,0,2.3,0.4,3,1.1c0.5,0.6,0.8,1.4,0.8,2.3c0,1-0.3,1.8-1,2.4c-0.7,0.6-1.6,1-2.7,1c-0.9,0-1.7-0.1-2.2-0.4
		c-0.5-0.3-1-0.7-1.2-1.2c-0.3-0.5-0.4-1.1-0.4-1.8c0-1,0.3-1.8,1-2.5C29.4,419.2,30.3,418.9,31.5,418.9z M31.5,420.2
		c-0.9,0-1.6,0.2-2.1,0.6c-0.5,0.4-0.7,0.9-0.7,1.5c0,0.6,0.2,1.1,0.7,1.5c0.5,0.4,1.2,0.6,2.1,0.6c0.9,0,1.6-0.2,2-0.6
		c0.5-0.4,0.7-0.9,0.7-1.5c0-0.6-0.2-1.1-0.7-1.5C33.2,420.4,32.5,420.2,31.5,420.2z"/>
</g>
<g>
	<path d="M88.6,397.5l10-3.9v1.4l-7.3,2.6c-0.6,0.2-1.1,0.4-1.6,0.5c0.5,0.2,1.1,0.3,1.6,0.5l7.3,2.7v1.4l-10-3.9V397.5z"/>
	<path d="M88.6,404.2h10v1.3h-10V404.2z"/>
	<path d="M88.6,407.9h10v3.8c0,0.7,0,1.2-0.1,1.5c-0.1,0.5-0.2,0.9-0.5,1.2c-0.2,0.3-0.6,0.6-1,0.8c-0.4,0.2-0.9,0.3-1.4,0.3
		c-0.9,0-1.6-0.3-2.2-0.8c-0.6-0.5-0.9-1.5-0.9-2.9v-2.6h-4.1V407.9z M93.9,409.2v2.6c0,0.9,0.2,1.5,0.5,1.8
		c0.3,0.4,0.8,0.5,1.3,0.5c0.4,0,0.8-0.1,1.1-0.3c0.3-0.2,0.5-0.5,0.6-0.8c0.1-0.2,0.1-0.6,0.1-1.2v-2.6H93.9z"/>
</g>
<g>
	<path d="M152.5,394.2l0.1,1.3c-0.5,0.1-0.9,0.2-1.2,0.4c-0.3,0.2-0.6,0.6-0.8,1c-0.2,0.5-0.3,1-0.3,1.5c0,0.5,0.1,1,0.2,1.3
		c0.2,0.4,0.4,0.7,0.6,0.9c0.3,0.2,0.5,0.3,0.9,0.3c0.3,0,0.6-0.1,0.8-0.3c0.2-0.2,0.4-0.5,0.6-0.9c0.1-0.3,0.3-0.9,0.5-1.8
		c0.2-0.9,0.4-1.6,0.6-1.9c0.3-0.5,0.6-0.8,0.9-1.1c0.4-0.2,0.8-0.4,1.2-0.4c0.5,0,1,0.1,1.4,0.4c0.4,0.3,0.8,0.7,1,1.3
		c0.2,0.6,0.3,1.2,0.3,1.8c0,0.7-0.1,1.4-0.4,2c-0.2,0.6-0.6,1-1.1,1.3c-0.5,0.3-1,0.5-1.6,0.5l-0.1-1.3c0.6-0.1,1.1-0.3,1.4-0.7
		c0.3-0.4,0.5-1,0.5-1.7c0-0.8-0.1-1.4-0.4-1.8c-0.3-0.4-0.6-0.6-1.1-0.6c-0.4,0-0.7,0.1-0.9,0.4c-0.2,0.3-0.5,0.9-0.7,2
		c-0.2,1.1-0.5,1.8-0.6,2.2c-0.3,0.6-0.6,1-1,1.3c-0.4,0.3-0.9,0.4-1.4,0.4c-0.5,0-1-0.2-1.5-0.5c-0.5-0.3-0.8-0.7-1.1-1.3
		c-0.3-0.6-0.4-1.2-0.4-1.9c0-0.9,0.1-1.7,0.4-2.3c0.3-0.6,0.7-1.1,1.2-1.4C151.3,394.4,151.9,394.2,152.5,394.2z"/>
	<path d="M152.5,403.5l0.1,1.3c-0.5,0.1-0.9,0.2-1.2,0.4c-0.3,0.2-0.6,0.6-0.8,1c-0.2,0.5-0.3,1-0.3,1.5c0,0.5,0.1,1,0.2,1.3
		c0.2,0.4,0.4,0.7,0.6,0.9c0.3,0.2,0.5,0.3,0.9,0.3c0.3,0,0.6-0.1,0.8-0.3c0.2-0.2,0.4-0.5,0.6-0.9c0.1-0.3,0.3-0.9,0.5-1.8
		c0.2-0.9,0.4-1.6,0.6-1.9c0.3-0.5,0.6-0.8,0.9-1.1c0.4-0.2,0.8-0.4,1.2-0.4c0.5,0,1,0.1,1.4,0.4c0.4,0.3,0.8,0.7,1,1.3
		c0.2,0.6,0.3,1.2,0.3,1.8c0,0.7-0.1,1.4-0.4,2c-0.2,0.6-0.6,1-1.1,1.3c-0.5,0.3-1,0.5-1.6,0.5l-0.1-1.3c0.6-0.1,1.1-0.3,1.4-0.7
		c0.3-0.4,0.5-1,0.5-1.7c0-0.8-0.1-1.4-0.4-1.8c-0.3-0.4-0.6-0.6-1.1-0.6c-0.4,0-0.7,0.1-0.9,0.4c-0.2,0.3-0.5,0.9-0.7,2
		c-0.2,1.1-0.5,1.8-0.6,2.2c-0.3,0.6-0.6,1-1,1.3c-0.4,0.3-0.9,0.4-1.4,0.4c-0.5,0-1-0.2-1.5-0.5c-0.5-0.3-0.8-0.7-1.1-1.3
		c-0.3-0.6-0.4-1.2-0.4-1.9c0-0.9,0.1-1.7,0.4-2.3c0.3-0.6,0.7-1.1,1.2-1.4C151.3,403.7,151.9,403.5,152.5,403.5z"/>
	<path d="M149.3,415.9h8.8v-3.3h1.2v7.9h-1.2v-3.3h-8.8V415.9z"/>
</g>
<g>
	<path d="M212.4,399.5l-0.2,1.3c-0.7-0.2-1.3-0.6-1.7-1.1c-0.4-0.5-0.6-1.2-0.6-2.1c0-1.1,0.3-1.9,1-2.5c0.7-0.6,1.6-0.9,2.8-0.9
		c1.2,0,2.2,0.3,2.8,0.9s1,1.4,1,2.4c0,1-0.3,1.8-1,2.4s-1.6,0.9-2.8,0.9c-0.1,0-0.2,0-0.3,0v-5.4c-0.8,0-1.4,0.3-1.8,0.7
		c-0.4,0.4-0.6,0.9-0.6,1.5c0,0.5,0.1,0.8,0.4,1.2C211.5,399,211.8,399.3,212.4,399.5z M214.4,395.4v4.1c0.6-0.1,1.1-0.2,1.4-0.5
		c0.5-0.4,0.7-0.9,0.7-1.5c0-0.6-0.2-1-0.6-1.4C215.5,395.7,215,395.5,214.4,395.4z"/>
	<path d="M210,402.4h10v1.3h-8.8v4.9H210V402.4z"/>
	<path d="M211.2,416.2H210v-6.6c0.3,0,0.6,0,0.9,0.1c0.5,0.2,0.9,0.4,1.3,0.8c0.4,0.4,0.9,0.9,1.5,1.6c0.9,1.1,1.6,1.8,2.1,2.2
		c0.5,0.4,1,0.6,1.5,0.6c0.5,0,0.9-0.2,1.2-0.5c0.3-0.3,0.5-0.8,0.5-1.4c0-0.6-0.2-1.1-0.5-1.4s-0.8-0.5-1.5-0.5l0.1-1.3
		c0.9,0.1,1.7,0.4,2.2,1c0.5,0.6,0.7,1.3,0.7,2.3c0,1-0.3,1.7-0.8,2.3s-1.2,0.8-2,0.8c-0.4,0-0.8-0.1-1.2-0.2s-0.8-0.4-1.2-0.8
		c-0.4-0.4-1-1-1.8-1.9c-0.6-0.7-1-1.2-1.3-1.4c-0.2-0.2-0.4-0.4-0.7-0.5V416.2z"/>
	<path d="M209.9,416.9l10.4,2.9v1l-10.4-2.9V416.9z"/>
	<path d="M212.7,421.4l0.2,1.2c-0.7,0.1-1.2,0.4-1.5,0.7c-0.3,0.3-0.5,0.8-0.5,1.2c0,0.6,0.2,1.1,0.6,1.5c0.4,0.4,0.9,0.6,1.5,0.6
		c0.6,0,1-0.2,1.4-0.6c0.4-0.4,0.6-0.8,0.6-1.4c0-0.2,0-0.5-0.1-0.9l1.1,0.1c0,0.1,0,0.1,0,0.2c0,0.5,0.1,1,0.4,1.4
		c0.3,0.4,0.7,0.6,1.3,0.6c0.5,0,0.8-0.2,1.1-0.5c0.3-0.3,0.4-0.7,0.4-1.2c0-0.5-0.2-0.9-0.5-1.2c-0.3-0.3-0.8-0.5-1.4-0.6l0.2-1.2
		c0.8,0.2,1.5,0.5,1.9,1c0.5,0.5,0.7,1.2,0.7,2c0,0.5-0.1,1-0.4,1.5c-0.2,0.5-0.6,0.8-1,1.1c-0.4,0.2-0.8,0.4-1.3,0.4
		c-0.4,0-0.8-0.1-1.2-0.3s-0.6-0.6-0.8-1c-0.1,0.6-0.4,1.1-0.9,1.4c-0.4,0.3-1,0.5-1.6,0.5c-0.9,0-1.6-0.3-2.2-1
		c-0.6-0.6-0.9-1.4-0.9-2.4c0-0.9,0.3-1.6,0.8-2.2S211.8,421.5,212.7,421.4z"/>
</g>
<g>
	<path d="M273.1,399.5l-0.2,1.3c-0.7-0.2-1.3-0.6-1.7-1.1s-0.6-1.2-0.6-2.1c0-1.1,0.3-1.9,1-2.5c0.7-0.6,1.6-0.9,2.8-0.9
		c1.2,0,2.2,0.3,2.8,0.9s1,1.4,1,2.4c0,1-0.3,1.8-1,2.4s-1.6,0.9-2.8,0.9c-0.1,0-0.2,0-0.3,0v-5.4c-0.8,0-1.4,0.3-1.8,0.7
		s-0.6,0.9-0.6,1.5c0,0.5,0.1,0.8,0.4,1.2S272.5,399.3,273.1,399.5z M275.1,395.4v4.1c0.6-0.1,1.1-0.2,1.4-0.5
		c0.5-0.4,0.7-0.9,0.7-1.5c0-0.6-0.2-1-0.6-1.4C276.2,395.7,275.7,395.5,275.1,395.4z"/>
	<path d="M270.7,402.4h10v1.3h-8.8v4.9h-1.2V402.4z"/>
	<path d="M278.3,416.1l-0.1-1.2c0.5-0.1,0.8-0.3,1.1-0.5c0.4-0.3,0.5-0.7,0.5-1.2c0-0.4-0.1-0.7-0.3-1c-0.3-0.4-0.7-0.7-1.2-0.9
		s-1.3-0.3-2.3-0.3c0.5,0.3,0.8,0.7,1,1.1s0.3,0.9,0.3,1.3c0,0.8-0.3,1.5-0.9,2.1c-0.6,0.6-1.4,0.9-2.3,0.9c-0.6,0-1.2-0.1-1.8-0.4
		c-0.5-0.3-1-0.6-1.2-1.1s-0.4-1-0.4-1.6c0-1,0.4-1.9,1.1-2.5c0.8-0.6,2-1,3.7-1c1.9,0,3.3,0.4,4.2,1.1c0.8,0.6,1.1,1.5,1.1,2.5
		c0,0.8-0.2,1.4-0.7,1.9C279.7,415.7,279.1,416,278.3,416.1z M274,411.1c-0.4,0-0.8,0.1-1.2,0.3c-0.4,0.2-0.7,0.4-0.9,0.8
		c-0.2,0.3-0.3,0.7-0.3,1c0,0.5,0.2,1,0.6,1.3s1,0.6,1.7,0.6c0.7,0,1.2-0.2,1.6-0.6c0.4-0.4,0.6-0.8,0.6-1.4c0-0.6-0.2-1-0.6-1.4
		C275.1,411.3,274.6,411.1,274,411.1z"/>
</g>
<g>
	<path d="M331.4,393.5l10,3.8v1.4l-10,4.1v-1.5l3-1.2V396l-3-1.1V393.5z M335.5,396.4v3.4l2.8-1c0.8-0.3,1.5-0.6,2.1-0.7
		c-0.6-0.1-1.3-0.3-1.9-0.5L335.5,396.4z"/>
	<path d="M333.6,403.3l0.2,1.2c-0.5,0.1-0.9,0.3-1.1,0.6c-0.3,0.3-0.4,0.7-0.4,1.3c0,0.6,0.1,1,0.3,1.3c0.2,0.3,0.5,0.4,0.8,0.4
		c0.3,0,0.5-0.1,0.7-0.4c0.1-0.2,0.2-0.6,0.4-1.3c0.2-0.9,0.4-1.5,0.6-1.9c0.2-0.3,0.4-0.6,0.7-0.8c0.3-0.2,0.6-0.3,1-0.3
		c0.3,0,0.6,0.1,0.9,0.2c0.3,0.1,0.5,0.4,0.7,0.6c0.1,0.2,0.3,0.5,0.4,0.8c0.1,0.3,0.1,0.7,0.1,1.1c0,0.6-0.1,1.1-0.2,1.5
		c-0.2,0.4-0.4,0.7-0.7,1c-0.3,0.2-0.7,0.3-1.1,0.4l-0.2-1.2c0.4-0.1,0.7-0.2,0.9-0.5c0.2-0.3,0.3-0.6,0.3-1.1c0-0.6-0.1-1-0.3-1.2
		s-0.4-0.4-0.7-0.4c-0.2,0-0.3,0-0.4,0.2c-0.1,0.1-0.2,0.3-0.3,0.5c0,0.1-0.2,0.5-0.3,1.1c-0.2,0.9-0.4,1.5-0.6,1.8
		c-0.1,0.3-0.4,0.6-0.6,0.8s-0.6,0.3-1.1,0.3c-0.4,0-0.8-0.1-1.2-0.4c-0.4-0.2-0.6-0.6-0.8-1c-0.2-0.5-0.3-1-0.3-1.5
		c0-0.9,0.2-1.7,0.6-2.2C332.2,403.8,332.8,403.5,333.6,403.3z"/>
	<path d="M332.5,413.5l-1.1,0.2c-0.1-0.3-0.1-0.7-0.1-0.9c0-0.4,0.1-0.8,0.2-1s0.3-0.4,0.6-0.5c0.2-0.1,0.7-0.2,1.5-0.2h4.2v-0.9h1
		v0.9h1.8l0.7,1.2h-2.5v1.2h-1v-1.2h-4.2c-0.4,0-0.6,0-0.7,0.1c-0.1,0-0.2,0.1-0.2,0.2c-0.1,0.1-0.1,0.2-0.1,0.4
		C332.5,413.1,332.5,413.3,332.5,413.5z"/>
	<path d="M331.4,414.7h7.3v1.1h-1.1c0.5,0.3,0.9,0.5,1,0.8c0.2,0.2,0.2,0.5,0.2,0.8c0,0.4-0.1,0.8-0.4,1.3l-1.1-0.4
		c0.2-0.3,0.3-0.6,0.3-0.9c0-0.3-0.1-0.5-0.2-0.7c-0.2-0.2-0.4-0.4-0.7-0.5c-0.4-0.1-0.9-0.2-1.4-0.2h-3.8V414.7z"/>
	<path d="M335.1,418.9c1.3,0,2.3,0.4,3,1.1c0.5,0.6,0.8,1.4,0.8,2.3c0,1-0.3,1.8-1,2.4c-0.7,0.6-1.6,1-2.7,1c-0.9,0-1.7-0.1-2.2-0.4
		c-0.5-0.3-1-0.7-1.2-1.2c-0.3-0.5-0.4-1.1-0.4-1.8c0-1,0.3-1.8,1-2.5C332.9,419.2,333.8,418.9,335.1,418.9z M335.1,420.2
		c-0.9,0-1.6,0.2-2.1,0.6c-0.5,0.4-0.7,0.9-0.7,1.5c0,0.6,0.2,1.1,0.7,1.5s1.2,0.6,2.1,0.6c0.9,0,1.6-0.2,2-0.6
		c0.5-0.4,0.7-0.9,0.7-1.5c0-0.6-0.2-1.1-0.7-1.5S336,420.2,335.1,420.2z"/>
</g>
<g>
	<path d="M392.1,394.6h10v3.8c0,0.7,0,1.2-0.1,1.5c-0.1,0.5-0.2,0.9-0.5,1.2c-0.2,0.3-0.6,0.6-1,0.8c-0.4,0.2-0.9,0.3-1.4,0.3
		c-0.9,0-1.6-0.3-2.2-0.8c-0.6-0.5-0.9-1.5-0.9-2.9V396h-4.1V394.6z M397.4,396v2.6c0,0.9,0.2,1.5,0.5,1.8s0.8,0.5,1.3,0.5
		c0.4,0,0.8-0.1,1.1-0.3c0.3-0.2,0.5-0.5,0.6-0.8c0.1-0.2,0.1-0.6,0.1-1.2V396H397.4z"/>
	<path d="M392.1,406.8l10-3.9v1.4l-7.3,2.6c-0.6,0.2-1.1,0.4-1.6,0.5c0.5,0.2,1.1,0.3,1.6,0.5l7.3,2.7v1.4l-10-3.9V406.8z"/>
	<path d="M392.1,411.1l10,3.8v1.4l-10,4.1V419l3-1.2v-4.2l-3-1.1V411.1z M396.3,414v3.4l2.8-1c0.8-0.3,1.5-0.6,2.1-0.7
		c-0.6-0.1-1.3-0.3-1.9-0.5L396.3,414z"/>
	<path d="M392.1,421.5h10v1.3h-8.8v4.9h-1.2V421.5z"/>
	<path d="M392.1,429.3h10v3.8c0,0.8-0.1,1.4-0.3,1.8c-0.2,0.5-0.5,0.8-0.9,1.1c-0.4,0.3-0.9,0.4-1.3,0.4c-0.4,0-0.8-0.1-1.2-0.3
		s-0.7-0.6-0.9-1.1c-0.2,0.6-0.5,1.1-0.9,1.4c-0.4,0.3-0.9,0.5-1.5,0.5c-0.5,0-0.9-0.1-1.3-0.3c-0.4-0.2-0.7-0.4-0.9-0.7
		s-0.4-0.7-0.5-1.1c-0.1-0.4-0.2-1-0.2-1.6V429.3z M393.3,430.6v2.5c0,0.4,0,0.7,0,0.9c0.1,0.3,0.1,0.6,0.3,0.8s0.3,0.4,0.6,0.5
		c0.2,0.1,0.5,0.2,0.8,0.2c0.4,0,0.7-0.1,1-0.3c0.3-0.2,0.5-0.5,0.6-0.8c0.1-0.3,0.2-0.8,0.2-1.5v-2.3H393.3z M397.9,430.6v2.2
		c0,0.6,0,1,0.1,1.3c0.1,0.3,0.3,0.6,0.5,0.8c0.2,0.2,0.5,0.3,0.9,0.3c0.3,0,0.6-0.1,0.9-0.2c0.3-0.2,0.4-0.4,0.5-0.7
		c0.1-0.3,0.1-0.8,0.1-1.5v-2H397.9z"/>
</g>
<g>
	<path d="M434.8,36.1v-10h3.8c0.7,0,1.2,0,1.5,0.1c0.5,0.1,0.9,0.2,1.2,0.5s0.6,0.6,0.8,1c0.2,0.4,0.3,0.9,0.3,1.4
		c0,0.9-0.3,1.6-0.8,2.2s-1.5,0.9-2.9,0.9h-2.6v4.1H434.8z M436.1,30.9h2.6c0.9,0,1.5-0.2,1.8-0.5s0.5-0.8,0.5-1.3
		c0-0.4-0.1-0.8-0.3-1.1c-0.2-0.3-0.5-0.5-0.8-0.6c-0.2-0.1-0.6-0.1-1.2-0.1h-2.6V30.9z"/>
	<path d="M443.9,36.1v-10h1.2v10H443.9z"/>
	<path d="M447.1,38.9v-10h1.1v0.9c0.3-0.4,0.6-0.6,0.9-0.8s0.7-0.3,1.2-0.3c0.6,0,1.2,0.2,1.6,0.5s0.8,0.8,1.1,1.4s0.4,1.2,0.4,1.9
		c0,0.7-0.1,1.4-0.4,2c-0.3,0.6-0.7,1.1-1.2,1.4c-0.5,0.3-1,0.5-1.6,0.5c-0.4,0-0.8-0.1-1.1-0.3c-0.3-0.2-0.6-0.4-0.8-0.7v3.5H447.1
		z M448.2,32.5c0,0.9,0.2,1.6,0.6,2.1s0.8,0.7,1.4,0.7c0.5,0,1-0.2,1.4-0.7c0.4-0.5,0.6-1.2,0.6-2.1c0-0.9-0.2-1.6-0.6-2.1
		c-0.4-0.5-0.8-0.7-1.4-0.7c-0.5,0-1,0.2-1.4,0.7C448.4,30.9,448.2,31.6,448.2,32.5z"/>
	<path d="M459.2,36.1h-1.2v-7.8c-0.3,0.3-0.7,0.6-1.2,0.8c-0.5,0.3-0.9,0.5-1.3,0.6v-1.2c0.7-0.3,1.3-0.7,1.8-1.2s0.9-0.9,1.1-1.3
		h0.8V36.1z"/>
</g>
<g>
	<path d="M437.6,91.2l-3.9-10h1.4l2.6,7.3c0.2,0.6,0.4,1.1,0.5,1.6c0.2-0.5,0.3-1.1,0.5-1.6l2.7-7.3h1.4l-3.9,10H437.6z"/>
	<path d="M444,82.6v-1.4h1.2v1.4H444z M444,91.2V84h1.2v7.3H444z"/>
	<path d="M447.1,94V84h1.1v0.9c0.3-0.4,0.6-0.6,0.9-0.8s0.7-0.3,1.2-0.3c0.6,0,1.2,0.2,1.6,0.5s0.8,0.8,1.1,1.4s0.4,1.2,0.4,1.9
		c0,0.7-0.1,1.4-0.4,2c-0.3,0.6-0.7,1.1-1.2,1.4c-0.5,0.3-1,0.5-1.6,0.5c-0.4,0-0.8-0.1-1.1-0.3c-0.3-0.2-0.6-0.4-0.8-0.7V94H447.1z
		 M448.2,87.6c0,0.9,0.2,1.6,0.6,2.1s0.8,0.7,1.4,0.7c0.5,0,1-0.2,1.4-0.7c0.4-0.5,0.6-1.2,0.6-2.1c0-0.9-0.2-1.6-0.6-2.1
		c-0.4-0.5-0.8-0.7-1.4-0.7c-0.5,0-1,0.2-1.4,0.7C448.4,86,448.2,86.7,448.2,87.6z"/>
</g>
<g>
	<path d="M434.3,143.1l1.3-0.1c0.1,0.5,0.2,0.9,0.4,1.2c0.2,0.3,0.6,0.6,1,0.8s1,0.3,1.5,0.3c0.5,0,1-0.1,1.3-0.2s0.7-0.4,0.9-0.6
		c0.2-0.3,0.3-0.5,0.3-0.9c0-0.3-0.1-0.6-0.3-0.8s-0.5-0.4-0.9-0.6c-0.3-0.1-0.9-0.3-1.8-0.5s-1.6-0.4-1.9-0.6
		c-0.5-0.3-0.8-0.6-1.1-0.9c-0.2-0.4-0.4-0.8-0.4-1.2c0-0.5,0.1-1,0.4-1.4s0.7-0.8,1.3-1s1.2-0.3,1.8-0.3c0.7,0,1.4,0.1,2,0.4
		c0.6,0.2,1,0.6,1.3,1.1s0.5,1,0.5,1.6l-1.3,0.1c-0.1-0.6-0.3-1.1-0.7-1.4c-0.4-0.3-1-0.5-1.7-0.5c-0.8,0-1.4,0.1-1.8,0.4
		c-0.4,0.3-0.5,0.6-0.5,1.1c0,0.4,0.1,0.7,0.4,0.9c0.3,0.2,0.9,0.5,2,0.7c1.1,0.2,1.8,0.5,2.2,0.6c0.6,0.3,1,0.6,1.3,1
		s0.4,0.9,0.4,1.4c0,0.5-0.2,1-0.5,1.5s-0.7,0.8-1.3,1.1c-0.6,0.3-1.2,0.4-1.9,0.4c-0.9,0-1.7-0.1-2.3-0.4c-0.6-0.3-1.1-0.7-1.4-1.2
		C434.5,144.3,434.4,143.7,434.3,143.1z"/>
	<path d="M443.5,144.1l1.2-0.2c0.1,0.5,0.3,0.9,0.6,1.1c0.3,0.3,0.7,0.4,1.3,0.4c0.6,0,1-0.1,1.3-0.3s0.4-0.5,0.4-0.8
		c0-0.3-0.1-0.5-0.4-0.7c-0.2-0.1-0.6-0.2-1.3-0.4c-0.9-0.2-1.5-0.4-1.9-0.6c-0.3-0.2-0.6-0.4-0.8-0.7c-0.2-0.3-0.3-0.6-0.3-1
		c0-0.3,0.1-0.6,0.2-0.9c0.1-0.3,0.4-0.5,0.6-0.7c0.2-0.1,0.5-0.3,0.8-0.4c0.3-0.1,0.7-0.1,1.1-0.1c0.6,0,1.1,0.1,1.5,0.2
		c0.4,0.2,0.7,0.4,1,0.7s0.3,0.7,0.4,1.1l-1.2,0.2c-0.1-0.4-0.2-0.7-0.5-0.9c-0.3-0.2-0.6-0.3-1.1-0.3c-0.6,0-1,0.1-1.2,0.3
		s-0.4,0.4-0.4,0.7c0,0.2,0,0.3,0.2,0.4c0.1,0.1,0.3,0.2,0.5,0.3c0.1,0,0.5,0.2,1.1,0.3c0.9,0.2,1.5,0.4,1.8,0.6
		c0.3,0.1,0.6,0.4,0.8,0.6s0.3,0.6,0.3,1.1c0,0.4-0.1,0.8-0.4,1.2c-0.2,0.4-0.6,0.6-1,0.8s-1,0.3-1.5,0.3c-0.9,0-1.7-0.2-2.2-0.6
		C443.9,145.5,443.6,144.9,443.5,144.1z"/>
	<path d="M453.7,145.2l0.2,1.1c-0.3,0.1-0.7,0.1-0.9,0.1c-0.4,0-0.8-0.1-1-0.2s-0.4-0.3-0.5-0.6s-0.2-0.7-0.2-1.5V140h-0.9v-1h0.9
		v-1.8l1.2-0.7v2.5h1.2v1h-1.2v4.2c0,0.4,0,0.6,0.1,0.7c0,0.1,0.1,0.2,0.2,0.2c0.1,0.1,0.2,0.1,0.4,0.1
		C453.2,145.2,453.4,145.2,453.7,145.2z"/>
</g>
<g>
	<path d="M434.7,201.4v-10h1.3v8.8h4.9v1.2H434.7z"/>
	<path d="M447.1,200.5c-0.5,0.4-0.9,0.7-1.3,0.8c-0.4,0.2-0.9,0.2-1.4,0.2c-0.8,0-1.4-0.2-1.8-0.6s-0.6-0.9-0.6-1.5
		c0-0.4,0.1-0.7,0.2-1c0.2-0.3,0.4-0.5,0.6-0.7c0.3-0.2,0.6-0.3,0.9-0.4c0.2-0.1,0.6-0.1,1.1-0.2c1-0.1,1.7-0.3,2.2-0.4
		c0-0.2,0-0.3,0-0.3c0-0.5-0.1-0.9-0.3-1.1c-0.3-0.3-0.8-0.4-1.4-0.4c-0.6,0-1,0.1-1.3,0.3c-0.3,0.2-0.5,0.6-0.6,1.1l-1.2-0.2
		c0.1-0.5,0.3-0.9,0.5-1.2s0.6-0.6,1.1-0.7s1-0.3,1.6-0.3c0.6,0,1.1,0.1,1.5,0.2s0.7,0.3,0.9,0.6s0.3,0.5,0.4,0.8
		c0,0.2,0.1,0.6,0.1,1.1v1.6c0,1.1,0,1.9,0.1,2.2c0.1,0.3,0.2,0.6,0.3,0.9h-1.3C447.3,201.1,447.2,200.8,447.1,200.5z M447,197.7
		c-0.4,0.2-1.1,0.3-2,0.5c-0.5,0.1-0.9,0.2-1.1,0.2s-0.4,0.2-0.5,0.4s-0.2,0.4-0.2,0.6c0,0.3,0.1,0.6,0.4,0.8
		c0.2,0.2,0.6,0.3,1.1,0.3c0.5,0,0.9-0.1,1.3-0.3s0.6-0.5,0.8-0.9c0.1-0.3,0.2-0.7,0.2-1.2V197.7z"/>
	<path d="M450.2,201.4v-7.3h1.1v1c0.2-0.4,0.5-0.6,0.9-0.9s0.8-0.3,1.3-0.3c0.5,0,1,0.1,1.3,0.3c0.3,0.2,0.6,0.5,0.7,0.9
		c0.6-0.8,1.3-1.3,2.2-1.3c0.7,0,1.3,0.2,1.7,0.6s0.6,1,0.6,1.8v5h-1.2v-4.6c0-0.5,0-0.8-0.1-1.1c-0.1-0.2-0.2-0.4-0.4-0.5
		s-0.5-0.2-0.7-0.2c-0.5,0-0.9,0.2-1.3,0.5s-0.5,0.9-0.5,1.6v4.2h-1.2v-4.7c0-0.5-0.1-1-0.3-1.2s-0.5-0.4-1-0.4
		c-0.3,0-0.7,0.1-1,0.3c-0.3,0.2-0.5,0.4-0.6,0.8s-0.2,0.9-0.2,1.5v3.8H450.2z"/>
	<path d="M461.9,204.2v-10h1.1v0.9c0.3-0.4,0.6-0.6,0.9-0.8s0.7-0.3,1.2-0.3c0.6,0,1.2,0.2,1.6,0.5s0.8,0.8,1.1,1.4s0.4,1.2,0.4,1.9
		c0,0.7-0.1,1.4-0.4,2c-0.3,0.6-0.7,1.1-1.2,1.4c-0.5,0.3-1,0.5-1.6,0.5c-0.4,0-0.8-0.1-1.1-0.3c-0.3-0.2-0.6-0.4-0.8-0.7v3.5H461.9
		z M463,197.8c0,0.9,0.2,1.6,0.6,2.1s0.8,0.7,1.4,0.7c0.5,0,1-0.2,1.4-0.7c0.4-0.5,0.6-1.2,0.6-2.1c0-0.9-0.2-1.6-0.6-2.1
		c-0.4-0.5-0.8-0.7-1.4-0.7c-0.5,0-1,0.2-1.4,0.7C463.2,196.1,463,196.8,463,197.8z"/>
	<path d="M469.3,198.7l1.3-0.1c0.1,0.6,0.3,1.1,0.7,1.4c0.3,0.3,0.8,0.5,1.3,0.5c0.6,0,1.1-0.2,1.5-0.7s0.6-1,0.6-1.8
		c0-0.7-0.2-1.3-0.6-1.7c-0.4-0.4-0.9-0.6-1.5-0.6c-0.4,0-0.8,0.1-1.1,0.3s-0.6,0.4-0.8,0.7l-1.2-0.2l1-5.1h5v1.2h-4l-0.5,2.7
		c0.6-0.4,1.2-0.6,1.9-0.6c0.9,0,1.6,0.3,2.2,0.9s0.9,1.4,0.9,2.3c0,0.9-0.3,1.7-0.8,2.4c-0.6,0.8-1.5,1.2-2.6,1.2
		c-0.9,0-1.7-0.3-2.2-0.8C469.7,200.3,469.4,199.6,469.3,198.7z"/>
</g>
<g>
	<path d="M434.8,256.5v-10h3.8c0.7,0,1.2,0,1.5,0.1c0.5,0.1,0.9,0.2,1.2,0.5c0.3,0.2,0.6,0.6,0.8,1c0.2,0.4,0.3,0.9,0.3,1.4
		c0,0.9-0.3,1.6-0.8,2.2c-0.5,0.6-1.5,0.9-2.9,0.9h-2.6v4.1H434.8z M436.1,251.2h2.6c0.9,0,1.5-0.2,1.8-0.5s0.5-0.8,0.5-1.3
		c0-0.4-0.1-0.8-0.3-1.1c-0.2-0.3-0.5-0.5-0.8-0.6c-0.2-0.1-0.6-0.1-1.2-0.1h-2.6V251.2z"/>
	<path d="M448.7,253.8l1.2,0.2c-0.1,0.8-0.5,1.5-1,2c-0.5,0.5-1.2,0.7-2,0.7c-1,0-1.8-0.3-2.4-1c-0.6-0.6-0.9-1.6-0.9-2.8
		c0-0.8,0.1-1.5,0.4-2.1s0.7-1,1.2-1.3c0.5-0.3,1.1-0.4,1.7-0.4c0.8,0,1.4,0.2,1.9,0.6c0.5,0.4,0.8,1,1,1.7l-1.2,0.2
		c-0.1-0.5-0.3-0.9-0.6-1.1c-0.3-0.2-0.6-0.4-1-0.4c-0.6,0-1.1,0.2-1.5,0.7c-0.4,0.4-0.6,1.1-0.6,2.1c0,1,0.2,1.7,0.6,2.1
		s0.9,0.7,1.5,0.7c0.5,0,0.9-0.1,1.2-0.4S448.6,254.4,448.7,253.8z"/>
	<path d="M451,259.2v-10h1.1v0.9c0.3-0.4,0.6-0.6,0.9-0.8c0.3-0.2,0.7-0.3,1.2-0.3c0.6,0,1.2,0.2,1.6,0.5s0.8,0.8,1.1,1.3
		c0.2,0.6,0.4,1.2,0.4,1.9c0,0.7-0.1,1.4-0.4,2c-0.3,0.6-0.7,1-1.2,1.4c-0.5,0.3-1,0.5-1.6,0.5c-0.4,0-0.8-0.1-1.1-0.3
		c-0.3-0.2-0.6-0.4-0.8-0.7v3.5H451z M452.1,252.9c0,0.9,0.2,1.6,0.6,2.1s0.8,0.7,1.4,0.7c0.5,0,1-0.2,1.4-0.7
		c0.4-0.5,0.6-1.2,0.6-2.2c0-0.9-0.2-1.6-0.6-2.1c-0.4-0.5-0.8-0.7-1.4-0.7c-0.5,0-1,0.2-1.4,0.7
		C452.3,251.2,452.1,251.9,452.1,252.9z"/>
	<path d="M462.4,256.5v-2.4H458v-1.1l4.6-6.5h1v6.5h1.4v1.1h-1.4v2.4H462.4z M462.4,252.9v-4.5l-3.1,4.5H462.4z"/>
</g>
<g>
	<path d="M434.7,311.5v-10h2l2.4,7.1c0.2,0.7,0.4,1.2,0.5,1.5c0.1-0.4,0.3-0.9,0.5-1.6l2.4-7h1.8v10H443v-8.4l-2.9,8.4h-1.2L436,303
		v8.5H434.7z"/>
	<path d="M446.6,311.5v-6.3h-1.1v-1h1.1v-0.8c0-0.5,0-0.8,0.1-1.1c0.1-0.3,0.3-0.6,0.6-0.8c0.3-0.2,0.7-0.3,1.3-0.3
		c0.3,0,0.7,0,1.1,0.1l-0.2,1.1c-0.3,0-0.5-0.1-0.7-0.1c-0.4,0-0.6,0.1-0.8,0.2s-0.2,0.5-0.2,0.9v0.7h1.4v1h-1.4v6.3H446.6z"/>
	<path d="M450,312.1l1.2,0.2c0,0.4,0.2,0.6,0.4,0.8c0.3,0.2,0.7,0.3,1.3,0.3c0.6,0,1-0.1,1.3-0.3s0.5-0.5,0.6-1
		c0.1-0.3,0.1-0.8,0.1-1.6c-0.5,0.6-1.2,1-2,1c-1,0-1.8-0.4-2.3-1.1s-0.8-1.6-0.8-2.6c0-0.7,0.1-1.3,0.4-1.9c0.3-0.6,0.6-1,1.1-1.4
		c0.5-0.3,1-0.5,1.7-0.5c0.9,0,1.6,0.3,2.1,1v-0.9h1.1v6.3c0,1.1-0.1,1.9-0.3,2.4c-0.2,0.5-0.6,0.8-1.1,1.1
		c-0.5,0.3-1.1,0.4-1.8,0.4c-0.9,0-1.6-0.2-2.1-0.6C450.2,313.5,449.9,312.9,450,312.1z M451,307.8c0,1,0.2,1.6,0.6,2.1
		s0.9,0.7,1.4,0.7c0.6,0,1-0.2,1.4-0.7c0.4-0.4,0.6-1.1,0.6-2c0-0.9-0.2-1.6-0.6-2c-0.4-0.5-0.9-0.7-1.4-0.7c-0.5,0-1,0.2-1.4,0.7
		C451.2,306.2,451,306.9,451,307.8z"/>
	<path d="M462.9,309.2l1.3,0.2c-0.2,0.7-0.6,1.3-1.1,1.7s-1.2,0.6-2.1,0.6c-1.1,0-1.9-0.3-2.5-1c-0.6-0.7-0.9-1.6-0.9-2.8
		c0-1.2,0.3-2.2,0.9-2.8s1.4-1,2.4-1c1,0,1.8,0.3,2.4,1s0.9,1.6,0.9,2.8c0,0.1,0,0.2,0,0.3h-5.4c0,0.8,0.3,1.4,0.7,1.8
		s0.9,0.6,1.5,0.6c0.5,0,0.8-0.1,1.2-0.4S462.7,309.7,462.9,309.2z M458.9,307.2h4.1c-0.1-0.6-0.2-1.1-0.5-1.4
		c-0.4-0.5-0.9-0.7-1.5-0.7c-0.6,0-1,0.2-1.4,0.6C459.1,306.1,458.9,306.6,458.9,307.2z"/>
	<path d="M467.3,306.1c-0.5-0.2-0.9-0.5-1.1-0.8s-0.4-0.8-0.4-1.2c0-0.7,0.3-1.3,0.8-1.8s1.2-0.7,2.1-0.7c0.9,0,1.6,0.3,2.1,0.8
		c0.5,0.5,0.8,1.1,0.8,1.9c0,0.5-0.1,0.9-0.4,1.2c-0.2,0.3-0.6,0.6-1.1,0.8c0.6,0.2,1.1,0.5,1.4,1c0.3,0.4,0.5,1,0.5,1.6
		c0,0.9-0.3,1.6-0.9,2.2s-1.4,0.9-2.4,0.9s-1.8-0.3-2.4-0.9c-0.6-0.6-0.9-1.3-0.9-2.2c0-0.7,0.2-1.2,0.5-1.6
		C466.2,306.6,466.7,306.3,467.3,306.1z M466.7,308.6c0,0.4,0.1,0.7,0.3,1c0.2,0.3,0.4,0.6,0.7,0.8c0.3,0.2,0.7,0.3,1.1,0.3
		c0.6,0,1.1-0.2,1.5-0.6s0.6-0.9,0.6-1.4c0-0.6-0.2-1.1-0.6-1.5c-0.4-0.4-0.9-0.6-1.5-0.6c-0.6,0-1.1,0.2-1.4,0.6
		C466.8,307.6,466.7,308.1,466.7,308.6z M467.1,304c0,0.5,0.2,0.9,0.5,1.2s0.7,0.5,1.2,0.5c0.5,0,0.9-0.1,1.2-0.4
		c0.3-0.3,0.5-0.7,0.5-1.1c0-0.5-0.2-0.8-0.5-1.1c-0.3-0.3-0.7-0.5-1.2-0.5c-0.5,0-0.9,0.2-1.2,0.5S467.1,303.6,467.1,304z"/>
</g>
<g>
	<path d="M434.8,366.6v-10h3.8c0.7,0,1.2,0,1.5,0.1c0.5,0.1,0.9,0.2,1.2,0.5c0.3,0.2,0.6,0.6,0.8,1c0.2,0.4,0.3,0.9,0.3,1.4
		c0,0.9-0.3,1.6-0.8,2.2c-0.5,0.6-1.5,0.9-2.9,0.9h-2.6v4.1H434.8z M436.1,361.4h2.6c0.9,0,1.5-0.2,1.8-0.5s0.5-0.8,0.5-1.3
		c0-0.4-0.1-0.8-0.3-1.1c-0.2-0.3-0.5-0.5-0.8-0.6c-0.2-0.1-0.6-0.1-1.2-0.1h-2.6V361.4z"/>
	<path d="M446,366.6l-2.8-7.3h1.3l1.6,4.3c0.2,0.5,0.3,1,0.5,1.5c0.1-0.4,0.3-0.8,0.5-1.4l1.6-4.4h1.3l-2.7,7.3H446z"/>
	<path d="M455.4,365.7c-0.5,0.4-0.9,0.7-1.3,0.8c-0.4,0.2-0.9,0.2-1.4,0.2c-0.8,0-1.4-0.2-1.8-0.6c-0.4-0.4-0.6-0.9-0.6-1.5
		c0-0.4,0.1-0.7,0.2-1c0.2-0.3,0.4-0.5,0.6-0.7c0.3-0.2,0.6-0.3,0.9-0.4c0.2-0.1,0.6-0.1,1.1-0.2c1-0.1,1.7-0.3,2.2-0.4
		c0-0.2,0-0.3,0-0.3c0-0.5-0.1-0.9-0.3-1.1c-0.3-0.3-0.8-0.4-1.4-0.4c-0.6,0-1,0.1-1.3,0.3c-0.3,0.2-0.5,0.6-0.6,1.1l-1.2-0.2
		c0.1-0.5,0.3-0.9,0.5-1.2c0.3-0.3,0.6-0.6,1.1-0.7c0.5-0.2,1-0.3,1.6-0.3c0.6,0,1.1,0.1,1.5,0.2s0.7,0.3,0.9,0.6
		c0.2,0.2,0.3,0.5,0.4,0.8c0,0.2,0.1,0.6,0.1,1.1v1.6c0,1.1,0,1.9,0.1,2.2c0.1,0.3,0.2,0.6,0.3,0.9h-1.3
		C455.5,366.4,455.4,366.1,455.4,365.7z M455.2,363c-0.4,0.2-1.1,0.3-2,0.5c-0.5,0.1-0.9,0.2-1.1,0.2s-0.4,0.2-0.5,0.4
		c-0.1,0.2-0.2,0.4-0.2,0.6c0,0.3,0.1,0.6,0.4,0.8c0.2,0.2,0.6,0.3,1.1,0.3c0.5,0,0.9-0.1,1.3-0.3c0.4-0.2,0.6-0.5,0.8-0.9
		c0.1-0.3,0.2-0.7,0.2-1.2V363z"/>
	<path d="M458.4,366.6v-10h1.2v10H458.4z"/>
	<path d="M462.6,366.6h-1.1v-10h1.2v3.6c0.5-0.7,1.2-1,2-1c0.4,0,0.9,0.1,1.3,0.3c0.4,0.2,0.7,0.4,1,0.8c0.3,0.3,0.5,0.7,0.6,1.2
		s0.2,1,0.2,1.5c0,1.2-0.3,2.2-0.9,2.9s-1.4,1-2.2,1c-0.9,0-1.5-0.4-2-1.1V366.6z M462.6,362.9c0,0.9,0.1,1.5,0.4,1.9
		c0.4,0.6,0.9,1,1.6,1c0.5,0,1-0.2,1.4-0.7c0.4-0.5,0.6-1.2,0.6-2.1c0-0.9-0.2-1.6-0.6-2.1c-0.4-0.5-0.8-0.7-1.4-0.7
		c-0.5,0-1,0.2-1.4,0.7C462.8,361.4,462.6,362,462.6,362.9z"/>
</g>
<g>
	<path d="M517.7,136.4h-6.6v-1.1h6.6V136.4z"/>
	<path d="M519,135.8c0-1.2,0.1-2.1,0.4-2.9c0.2-0.7,0.6-1.3,1.1-1.7c0.5-0.4,1.1-0.6,1.8-0.6c0.5,0,1,0.1,1.4,0.3s0.7,0.5,1,0.9
		s0.5,0.9,0.6,1.5s0.2,1.4,0.2,2.4c0,1.2-0.1,2.1-0.4,2.8s-0.6,1.3-1.1,1.7c-0.5,0.4-1.1,0.6-1.8,0.6c-1,0-1.7-0.3-2.3-1
		C519.4,139,519,137.7,519,135.8z M520.3,135.8c0,1.6,0.2,2.7,0.6,3.3c0.4,0.5,0.9,0.8,1.4,0.8s1-0.3,1.4-0.8
		c0.4-0.5,0.6-1.6,0.6-3.3c0-1.6-0.2-2.7-0.6-3.3c-0.4-0.5-0.9-0.8-1.4-0.8c-0.6,0-1,0.2-1.4,0.7C520.5,133,520.3,134.2,520.3,135.8
		z"/>
	<path d="M527.5,140.7v-1.4h1.4v1.4H527.5z"/>
	<path d="M537.2,139.6v1.2h-6.6c0-0.3,0-0.6,0.1-0.9c0.2-0.5,0.4-0.9,0.8-1.3c0.4-0.4,0.9-0.9,1.6-1.5c1.1-0.9,1.8-1.6,2.2-2.1
		s0.6-1,0.6-1.5c0-0.5-0.2-0.9-0.5-1.2c-0.3-0.3-0.8-0.5-1.4-0.5c-0.6,0-1.1,0.2-1.4,0.5s-0.5,0.8-0.5,1.5l-1.3-0.1
		c0.1-0.9,0.4-1.7,1-2.2s1.3-0.7,2.3-0.7c1,0,1.7,0.3,2.3,0.8s0.8,1.2,0.8,2c0,0.4-0.1,0.8-0.2,1.2s-0.4,0.8-0.8,1.2
		c-0.4,0.4-1,1-1.9,1.8c-0.7,0.6-1.2,1-1.4,1.3s-0.4,0.4-0.5,0.7H537.2z"/>
</g>
<g>
	<path d="M510.9,108.5c0-1.2,0.1-2.1,0.4-2.9c0.2-0.7,0.6-1.3,1.1-1.7c0.5-0.4,1.1-0.6,1.8-0.6c0.5,0,1,0.1,1.4,0.3s0.7,0.5,1,0.9
		s0.5,0.9,0.6,1.5s0.2,1.4,0.2,2.4c0,1.2-0.1,2.1-0.4,2.8s-0.6,1.3-1.1,1.7c-0.5,0.4-1.1,0.6-1.8,0.6c-1,0-1.7-0.3-2.3-1
		C511.2,111.7,510.9,110.3,510.9,108.5z M512.1,108.5c0,1.6,0.2,2.7,0.6,3.3c0.4,0.5,0.9,0.8,1.4,0.8s1-0.3,1.4-0.8
		c0.4-0.5,0.6-1.6,0.6-3.3c0-1.6-0.2-2.7-0.6-3.3c-0.4-0.5-0.9-0.8-1.4-0.8c-0.6,0-1,0.2-1.4,0.7
		C512.3,105.7,512.1,106.8,512.1,108.5z"/>
</g>
<g>
	<path d="M510.9,81.1c0-1.2,0.1-2.1,0.4-2.9c0.2-0.7,0.6-1.3,1.1-1.7c0.5-0.4,1.1-0.6,1.8-0.6c0.5,0,1,0.1,1.4,0.3s0.7,0.5,1,0.9
		s0.5,0.9,0.6,1.5s0.2,1.4,0.2,2.4c0,1.2-0.1,2.1-0.4,2.8s-0.6,1.3-1.1,1.7c-0.5,0.4-1.1,0.6-1.8,0.6c-1,0-1.7-0.3-2.3-1
		C511.2,84.3,510.9,83,510.9,81.1z M512.1,81.1c0,1.6,0.2,2.7,0.6,3.3c0.4,0.5,0.9,0.8,1.4,0.8s1-0.3,1.4-0.8
		c0.4-0.5,0.6-1.6,0.6-3.3c0-1.6-0.2-2.7-0.6-3.3c-0.4-0.5-0.9-0.8-1.4-0.8c-0.6,0-1,0.2-1.4,0.7C512.3,78.3,512.1,79.5,512.1,81.1z
		"/>
	<path d="M519.3,86v-1.4h1.4V86H519.3z"/>
	<path d="M529,84.9V86h-6.6c0-0.3,0-0.6,0.1-0.9c0.2-0.5,0.4-0.9,0.8-1.3c0.4-0.4,0.9-0.9,1.6-1.5c1.1-0.9,1.8-1.6,2.2-2.1
		s0.6-1,0.6-1.5c0-0.5-0.2-0.9-0.5-1.2c-0.3-0.3-0.8-0.5-1.4-0.5c-0.6,0-1.1,0.2-1.4,0.5s-0.5,0.8-0.5,1.5l-1.3-0.1
		c0.1-0.9,0.4-1.7,1-2.2s1.3-0.7,2.3-0.7c1,0,1.7,0.3,2.3,0.8s0.8,1.2,0.8,2c0,0.4-0.1,0.8-0.2,1.2s-0.4,0.8-0.8,1.2
		c-0.4,0.4-1,1-1.9,1.8c-0.7,0.6-1.2,1-1.4,1.3s-0.4,0.4-0.5,0.7H529z"/>
</g>
<g>
	<path d="M510.9,53.8c0-1.2,0.1-2.1,0.4-2.9c0.2-0.7,0.6-1.3,1.1-1.7c0.5-0.4,1.1-0.6,1.8-0.6c0.5,0,1,0.1,1.4,0.3s0.7,0.5,1,0.9
		s0.5,0.9,0.6,1.5s0.2,1.4,0.2,2.4c0,1.2-0.1,2.1-0.4,2.8s-0.6,1.3-1.1,1.7c-0.5,0.4-1.1,0.6-1.8,0.6c-1,0-1.7-0.3-2.3-1
		C511.2,57,510.9,55.6,510.9,53.8z M512.1,53.8c0,1.6,0.2,2.7,0.6,3.3c0.4,0.5,0.9,0.8,1.4,0.8s1-0.3,1.4-0.8
		c0.4-0.5,0.6-1.6,0.6-3.3c0-1.6-0.2-2.7-0.6-3.3c-0.4-0.5-0.9-0.8-1.4-0.8c-0.6,0-1,0.2-1.4,0.7C512.3,51,512.1,52.1,512.1,53.8z"
		/>
	<path d="M519.3,58.7v-1.4h1.4v1.4H519.3z"/>
	<path d="M526.5,58.7v-2.4h-4.3v-1.1l4.6-6.5h1v6.5h1.4v1.1h-1.4v2.4H526.5z M526.5,55.2v-4.5l-3.1,4.5H526.5z"/>
</g>
<g>
	<path d="M510.9,26.4c0-1.2,0.1-2.1,0.4-2.9c0.2-0.7,0.6-1.3,1.1-1.7c0.5-0.4,1.1-0.6,1.8-0.6c0.5,0,1,0.1,1.4,0.3s0.7,0.5,1,0.9
		s0.5,0.9,0.6,1.5s0.2,1.4,0.2,2.4c0,1.2-0.1,2.1-0.4,2.8s-0.6,1.3-1.1,1.7c-0.5,0.4-1.1,0.6-1.8,0.6c-1,0-1.7-0.3-2.3-1
		C511.2,29.6,510.9,28.3,510.9,26.4z M512.1,26.4c0,1.6,0.2,2.7,0.6,3.3c0.4,0.5,0.9,0.8,1.4,0.8s1-0.3,1.4-0.8
		c0.4-0.5,0.6-1.6,0.6-3.3c0-1.6-0.2-2.7-0.6-3.3c-0.4-0.5-0.9-0.8-1.4-0.8c-0.6,0-1,0.2-1.4,0.7C512.3,23.6,512.1,24.8,512.1,26.4z
		"/>
	<path d="M519.3,31.4v-1.4h1.4v1.4H519.3z"/>
	<path d="M528.9,23.8l-1.2,0.1c-0.1-0.5-0.3-0.8-0.5-1.1c-0.3-0.4-0.7-0.5-1.2-0.5c-0.4,0-0.7,0.1-1,0.3c-0.4,0.3-0.7,0.7-0.9,1.2
		s-0.3,1.3-0.3,2.3c0.3-0.5,0.7-0.8,1.1-1s0.9-0.3,1.3-0.3c0.8,0,1.5,0.3,2.1,0.9c0.6,0.6,0.9,1.4,0.9,2.3c0,0.6-0.1,1.2-0.4,1.8
		c-0.3,0.5-0.6,1-1.1,1.2s-1,0.4-1.6,0.4c-1,0-1.9-0.4-2.5-1.1s-1-2-1-3.7c0-1.9,0.4-3.3,1.1-4.2c0.6-0.8,1.5-1.1,2.5-1.1
		c0.8,0,1.4,0.2,1.9,0.7C528.5,22.4,528.8,23,528.9,23.8z M523.9,28.1c0,0.4,0.1,0.8,0.3,1.2c0.2,0.4,0.4,0.7,0.8,0.9s0.7,0.3,1,0.3
		c0.5,0,1-0.2,1.3-0.6s0.6-1,0.6-1.7c0-0.7-0.2-1.2-0.6-1.6s-0.8-0.6-1.4-0.6c-0.6,0-1,0.2-1.4,0.6S523.9,27.5,523.9,28.1z"/>
</g>
<g>
	<path d="M33.6,30.8c-0.1-1.1-0.3-2.1-0.7-3.2c-0.5-1.5-0.8-2.6-0.8-3.2c0-0.8,0.2-1.4,0.6-1.9s0.9-0.6,1.4-0.6
		c0.5,0,0.9,0.2,1.3,0.6s0.5,1,0.5,1.8c0,0.7-0.2,1.7-0.6,2.9s-0.7,2.4-0.8,3.5c0.9-0.5,1.6-1.2,2.3-2c1.1-1.2,1.9-2,2.4-2.3
		s1-0.4,1.6-0.4c0.5,0,0.9,0.2,1.3,0.5s0.5,0.8,0.5,1.3c0,0.6-0.3,1.1-0.8,1.5S40,30.3,38,30.7c-1.2,0.3-2.2,0.6-3,0.9
		c0.8,0.4,1.8,0.7,3,1c1.9,0.3,3.1,0.8,3.7,1.3s0.9,1.1,0.9,1.7c0,0.5-0.2,0.9-0.5,1.2s-0.8,0.5-1.2,0.5s-1-0.2-1.6-0.5
		s-1.3-1.1-2.3-2.2c-0.6-0.8-1.4-1.5-2.4-2.2c0,0.9,0.2,1.9,0.5,2.9c0.6,1.8,0.8,3.1,0.8,3.8c0,0.6-0.2,1.2-0.6,1.6
		s-0.8,0.6-1.2,0.6c-0.6,0-1.1-0.2-1.6-0.7c-0.3-0.3-0.5-0.9-0.5-1.6c0-0.8,0.2-1.7,0.5-2.7s0.6-1.8,0.7-2.2s0.2-1,0.3-1.8
		c-0.9,0.6-1.7,1.3-2.4,2c-1.1,1.3-2,2.1-2.6,2.4c-0.4,0.3-0.8,0.4-1.3,0.4c-0.5,0-1-0.2-1.4-0.5s-0.6-0.8-0.6-1.2
		c0-0.4,0.2-0.8,0.5-1.2s0.8-0.8,1.4-1.1c0.4-0.2,1.4-0.4,2.9-0.8c1-0.2,1.9-0.5,2.8-0.9c-0.8-0.4-1.9-0.8-3-1
		c-1.9-0.4-3.1-0.8-3.6-1.1c-0.7-0.5-1.1-1.1-1.1-1.9c0-0.4,0.2-0.8,0.5-1.2s0.8-0.5,1.2-0.5c0.5,0,1.1,0.2,1.6,0.5s1.3,1,2.2,2
		S32.7,30.2,33.6,30.8z"/>
</g>
<g>
	<path d="M92.7,89.9c-0.1-1.1-0.3-2.1-0.7-3.2c-0.5-1.5-0.8-2.6-0.8-3.2c0-0.8,0.2-1.4,0.6-1.9s0.9-0.6,1.4-0.6
		c0.5,0,0.9,0.2,1.3,0.6s0.5,1,0.5,1.8c0,0.7-0.2,1.7-0.6,2.9s-0.7,2.4-0.8,3.5c0.9-0.5,1.6-1.2,2.3-2c1.1-1.2,1.9-2,2.4-2.3
		s1-0.4,1.6-0.4c0.5,0,0.9,0.2,1.3,0.5s0.5,0.8,0.5,1.3c0,0.6-0.3,1.1-0.8,1.5s-1.8,0.9-3.9,1.4c-1.2,0.3-2.2,0.6-3,0.9
		c0.8,0.4,1.8,0.7,3,1c1.9,0.3,3.1,0.8,3.7,1.3s0.9,1.1,0.9,1.7c0,0.5-0.2,0.9-0.5,1.2s-0.8,0.5-1.2,0.5s-1-0.2-1.6-0.5
		s-1.3-1.1-2.3-2.2c-0.6-0.8-1.4-1.5-2.4-2.2c0,0.9,0.2,1.9,0.5,2.9c0.6,1.8,0.8,3.1,0.8,3.8c0,0.6-0.2,1.2-0.6,1.6
		s-0.8,0.6-1.2,0.6c-0.6,0-1.1-0.2-1.6-0.7c-0.3-0.3-0.5-0.9-0.5-1.6c0-0.8,0.2-1.7,0.5-2.7s0.6-1.8,0.7-2.2s0.2-1,0.3-1.8
		c-0.9,0.6-1.7,1.3-2.4,2c-1.1,1.3-2,2.1-2.6,2.4c-0.4,0.3-0.8,0.4-1.3,0.4c-0.5,0-1-0.2-1.4-0.5s-0.6-0.8-0.6-1.2
		c0-0.4,0.2-0.8,0.5-1.2s0.8-0.8,1.4-1.1c0.4-0.2,1.4-0.4,2.9-0.8c1-0.2,1.9-0.5,2.8-0.9c-0.8-0.4-1.9-0.8-3-1
		c-1.9-0.4-3.1-0.8-3.6-1.1c-0.7-0.5-1.1-1.1-1.1-1.9c0-0.4,0.2-0.8,0.5-1.2s0.8-0.5,1.2-0.5c0.5,0,1.1,0.2,1.6,0.5s1.3,1,2.2,2
		S91.8,89.4,92.7,89.9z"/>
</g>
<g>
	<path d="M153.3,141.8c-0.1-1.1-0.3-2.1-0.7-3.2c-0.5-1.5-0.8-2.6-0.8-3.2c0-0.8,0.2-1.4,0.6-1.9s0.9-0.6,1.4-0.6
		c0.5,0,0.9,0.2,1.3,0.6s0.5,1,0.5,1.8c0,0.7-0.2,1.7-0.6,2.9s-0.7,2.4-0.8,3.5c0.9-0.5,1.6-1.2,2.3-2c1.1-1.2,1.9-2,2.4-2.3
		s1-0.4,1.6-0.4c0.5,0,0.9,0.2,1.3,0.5s0.5,0.8,0.5,1.3c0,0.6-0.3,1.1-0.8,1.5s-1.8,0.9-3.9,1.4c-1.2,0.3-2.2,0.6-3,0.9
		c0.8,0.4,1.8,0.7,3,1c1.9,0.3,3.1,0.8,3.7,1.3s0.9,1.1,0.9,1.7c0,0.5-0.2,0.9-0.5,1.2s-0.8,0.5-1.2,0.5s-1-0.2-1.6-0.5
		s-1.3-1.1-2.3-2.2c-0.6-0.8-1.4-1.5-2.4-2.2c0,0.9,0.2,1.9,0.5,2.9c0.6,1.8,0.8,3.1,0.8,3.8c0,0.6-0.2,1.2-0.6,1.6
		s-0.8,0.6-1.2,0.6c-0.6,0-1.1-0.2-1.6-0.7c-0.3-0.3-0.5-0.9-0.5-1.6c0-0.8,0.2-1.7,0.5-2.7s0.6-1.8,0.7-2.2s0.2-1,0.3-1.8
		c-0.9,0.6-1.7,1.3-2.4,2c-1.1,1.3-2,2.1-2.6,2.4c-0.4,0.3-0.8,0.4-1.3,0.4c-0.5,0-1-0.2-1.4-0.5s-0.6-0.8-0.6-1.2
		c0-0.4,0.2-0.8,0.5-1.2s0.8-0.8,1.4-1.1c0.4-0.2,1.4-0.4,2.9-0.8c1-0.2,1.9-0.5,2.8-0.9c-0.8-0.4-1.9-0.8-3-1
		c-1.9-0.4-3.1-0.8-3.6-1.1c-0.7-0.5-1.1-1.1-1.1-1.9c0-0.4,0.2-0.8,0.5-1.2s0.8-0.5,1.2-0.5c0.5,0,1.1,0.2,1.6,0.5s1.3,1,2.2,2
		S152.4,141.2,153.3,141.8z"/>
</g>
<g>
	<path d="M212.6,197c-0.1-1.1-0.3-2.1-0.7-3.2c-0.5-1.5-0.8-2.6-0.8-3.2c0-0.8,0.2-1.4,0.6-1.9s0.9-0.6,1.4-0.6
		c0.5,0,0.9,0.2,1.3,0.6s0.5,1,0.5,1.8c0,0.7-0.2,1.7-0.6,2.9s-0.7,2.4-0.8,3.5c0.9-0.5,1.6-1.2,2.3-2c1.1-1.2,1.9-2,2.4-2.3
		s1-0.4,1.6-0.4c0.5,0,0.9,0.2,1.3,0.5s0.5,0.8,0.5,1.3c0,0.6-0.3,1.1-0.8,1.5s-1.8,0.9-3.9,1.4c-1.2,0.3-2.2,0.6-3,0.9
		c0.8,0.4,1.8,0.7,3,1c1.9,0.3,3.1,0.8,3.7,1.3s0.9,1.1,0.9,1.7c0,0.5-0.2,0.9-0.5,1.2s-0.8,0.5-1.2,0.5s-1-0.2-1.6-0.5
		s-1.3-1.1-2.3-2.2c-0.6-0.8-1.4-1.5-2.4-2.2c0,0.9,0.2,1.9,0.5,2.9c0.6,1.8,0.8,3.1,0.8,3.8c0,0.6-0.2,1.2-0.6,1.6
		s-0.8,0.6-1.2,0.6c-0.6,0-1.1-0.2-1.6-0.7c-0.3-0.3-0.5-0.9-0.5-1.6c0-0.8,0.2-1.7,0.5-2.7s0.6-1.8,0.7-2.2s0.2-1,0.3-1.8
		c-0.9,0.6-1.7,1.3-2.4,2c-1.1,1.3-2,2.1-2.6,2.4c-0.4,0.3-0.8,0.4-1.3,0.4c-0.5,0-1-0.2-1.4-0.5s-0.6-0.8-0.6-1.2
		c0-0.4,0.2-0.8,0.5-1.2s0.8-0.8,1.4-1.1c0.4-0.2,1.4-0.4,2.9-0.8c1-0.2,1.9-0.5,2.8-0.9c-0.8-0.4-1.9-0.8-3-1
		c-1.9-0.4-3.1-0.8-3.6-1.1c-0.7-0.5-1.1-1.1-1.1-1.9c0-0.4,0.2-0.8,0.5-1.2s0.8-0.5,1.2-0.5c0.5,0,1.1,0.2,1.6,0.5s1.3,1,2.2,2
		S211.7,196.5,212.6,197z"/>
</g>
<g>
	<path d="M272.6,251.7c-0.1-1.1-0.3-2.1-0.7-3.2c-0.5-1.5-0.8-2.6-0.8-3.2c0-0.8,0.2-1.4,0.6-1.9s0.9-0.6,1.4-0.6
		c0.5,0,0.9,0.2,1.3,0.6s0.5,1,0.5,1.8c0,0.7-0.2,1.7-0.6,2.9s-0.7,2.4-0.8,3.5c0.9-0.5,1.6-1.2,2.3-2c1.1-1.2,1.9-2,2.4-2.3
		s1-0.4,1.6-0.4c0.5,0,0.9,0.2,1.3,0.5s0.5,0.8,0.5,1.3c0,0.6-0.3,1.1-0.8,1.5s-1.8,0.9-3.9,1.4c-1.2,0.3-2.2,0.6-3,0.9
		c0.8,0.4,1.8,0.7,3,1c1.9,0.3,3.1,0.8,3.7,1.3s0.9,1.1,0.9,1.7c0,0.5-0.2,0.9-0.5,1.2s-0.8,0.5-1.2,0.5s-1-0.2-1.6-0.5
		s-1.3-1.1-2.3-2.2c-0.6-0.8-1.4-1.5-2.4-2.2c0,0.9,0.2,1.9,0.5,2.9c0.6,1.8,0.8,3.1,0.8,3.8c0,0.6-0.2,1.2-0.6,1.6
		s-0.8,0.6-1.2,0.6c-0.6,0-1.1-0.2-1.6-0.7c-0.3-0.3-0.5-0.9-0.5-1.6c0-0.8,0.2-1.7,0.5-2.7s0.6-1.8,0.7-2.2s0.2-1,0.3-1.8
		c-0.9,0.6-1.7,1.3-2.4,2c-1.1,1.3-2,2.1-2.6,2.4c-0.4,0.3-0.8,0.4-1.3,0.4c-0.5,0-1-0.2-1.4-0.5s-0.6-0.8-0.6-1.2
		c0-0.4,0.2-0.8,0.5-1.2s0.8-0.8,1.4-1.1c0.4-0.2,1.4-0.4,2.9-0.8c1-0.2,1.9-0.5,2.8-0.9c-0.8-0.4-1.9-0.8-3-1
		c-1.9-0.4-3.1-0.8-3.6-1.1c-0.7-0.5-1.1-1.1-1.1-1.9c0-0.4,0.2-0.8,0.5-1.2s0.8-0.5,1.2-0.5c0.5,0,1.1,0.2,1.6,0.5s1.3,1,2.2,2
		S271.7,251.2,272.6,251.7z"/>
</g>
<g>
	<path d="M331.3,307c-0.1-1.1-0.3-2.1-0.7-3.2c-0.5-1.5-0.8-2.6-0.8-3.2c0-0.8,0.2-1.4,0.6-1.9s0.9-0.6,1.4-0.6
		c0.5,0,0.9,0.2,1.3,0.6s0.5,1,0.5,1.8c0,0.7-0.2,1.7-0.6,2.9s-0.7,2.4-0.8,3.5c0.9-0.5,1.6-1.2,2.3-2c1.1-1.2,1.9-2,2.4-2.3
		s1-0.4,1.6-0.4c0.5,0,0.9,0.2,1.3,0.5s0.5,0.8,0.5,1.3c0,0.6-0.3,1.1-0.8,1.5s-1.8,0.9-3.9,1.4c-1.2,0.3-2.2,0.6-3,0.9
		c0.8,0.4,1.8,0.7,3,1c1.9,0.3,3.1,0.8,3.7,1.3s0.9,1.1,0.9,1.7c0,0.5-0.2,0.9-0.5,1.2s-0.8,0.5-1.2,0.5s-1-0.2-1.6-0.5
		s-1.3-1.1-2.3-2.2c-0.6-0.8-1.4-1.5-2.4-2.2c0,0.9,0.2,1.9,0.5,2.9c0.6,1.8,0.8,3.1,0.8,3.8c0,0.6-0.2,1.2-0.6,1.6
		s-0.8,0.6-1.2,0.6c-0.6,0-1.1-0.2-1.6-0.7c-0.3-0.3-0.5-0.9-0.5-1.6c0-0.8,0.2-1.7,0.5-2.7s0.6-1.8,0.7-2.2s0.2-1,0.3-1.8
		c-0.9,0.6-1.7,1.3-2.4,2c-1.1,1.3-2,2.1-2.6,2.4c-0.4,0.3-0.8,0.4-1.3,0.4c-0.5,0-1-0.2-1.4-0.5s-0.6-0.8-0.6-1.2
		c0-0.4,0.2-0.8,0.5-1.2s0.8-0.8,1.4-1.1c0.4-0.2,1.4-0.4,2.9-0.8c1-0.2,1.9-0.5,2.8-0.9c-0.8-0.4-1.9-0.8-3-1
		c-1.9-0.4-3.1-0.8-3.6-1.1c-0.7-0.5-1.1-1.1-1.1-1.9c0-0.4,0.2-0.8,0.5-1.2s0.8-0.5,1.2-0.5c0.5,0,1.1,0.2,1.6,0.5s1.3,1,2.2,2
		S330.4,306.5,331.3,307z"/>
</g>
<g>
	<path d="M394,366.1c-0.1-1.1-0.3-2.1-0.7-3.2c-0.5-1.5-0.8-2.6-0.8-3.2c0-0.8,0.2-1.4,0.6-1.9s0.9-0.6,1.4-0.6
		c0.5,0,0.9,0.2,1.3,0.6s0.5,1,0.5,1.8c0,0.7-0.2,1.7-0.6,2.9s-0.7,2.4-0.8,3.5c0.9-0.5,1.6-1.2,2.3-2c1.1-1.2,1.9-2,2.4-2.3
		s1-0.4,1.6-0.4c0.5,0,0.9,0.2,1.3,0.5s0.5,0.8,0.5,1.3c0,0.6-0.3,1.1-0.8,1.5s-1.8,0.9-3.9,1.4c-1.2,0.3-2.2,0.6-3,0.9
		c0.8,0.4,1.8,0.7,3,1c1.9,0.3,3.1,0.8,3.7,1.3s0.9,1.1,0.9,1.7c0,0.5-0.2,0.9-0.5,1.2s-0.8,0.5-1.2,0.5s-1-0.2-1.6-0.5
		s-1.3-1.1-2.3-2.2c-0.6-0.8-1.4-1.5-2.4-2.2c0,0.9,0.2,1.9,0.5,2.9c0.6,1.8,0.8,3.1,0.8,3.8c0,0.6-0.2,1.2-0.6,1.6
		s-0.8,0.6-1.2,0.6c-0.6,0-1.1-0.2-1.6-0.7c-0.3-0.3-0.5-0.9-0.5-1.6c0-0.8,0.2-1.7,0.5-2.7s0.6-1.8,0.7-2.2s0.2-1,0.3-1.8
		c-0.9,0.6-1.7,1.3-2.4,2c-1.1,1.3-2,2.1-2.6,2.4c-0.4,0.3-0.8,0.4-1.3,0.4c-0.5,0-1-0.2-1.4-0.5s-0.6-0.8-0.6-1.2
		c0-0.4,0.2-0.8,0.5-1.2s0.8-0.8,1.4-1.1c0.4-0.2,1.4-0.4,2.9-0.8c1-0.2,1.9-0.5,2.8-0.9c-0.8-0.4-1.9-0.8-3-1
		c-1.9-0.4-3.1-0.8-3.6-1.1c-0.7-0.5-1.1-1.1-1.1-1.9c0-0.4,0.2-0.8,0.5-1.2s0.8-0.5,1.2-0.5c0.5,0,1.1,0.2,1.6,0.5s1.3,1,2.2,2
		S393.1,365.5,394,366.1z"/>
</g>
<linearGradient id="SVGID_1_" gradientUnits="userSpaceOnUse" x1="487.6667" y1="155.75" x2="487.6667" y2="8">
	<stop  offset="0" style="stop-color:#1414EA"/>
	<stop  offset="0.5205" style="stop-color:#FFFF00"/>
	<stop  offset="1" style="stop-color:#FFFF00"/>
</linearGradient>
<rect x="471.3" y="8" class="st20" width="32.7" height="147.8"/>
</svg>
