<?xml version="1.0" encoding="utf-8"?>
<!-- Generator: Adobe Illustrator 22.1.0, SVG Export Plug-In . SVG Version: 6.00 Build 0)  -->
<svg version="1.1" id="图层_1" xmlns="http://www.w3.org/2000/svg" xmlns:xlink="http://www.w3.org/1999/xlink" x="0px" y="0px"
	 viewBox="0 0 534 424.3" style="enable-background:new 0 0 534 424.3;" xml:space="preserve">
<style type="text/css">
	.st0{clip-path:url(#SVGID_2_);fill:#EBEBEB;}
	.st1{clip-path:url(#SVGID_2_);fill:none;stroke:#FFFFFF;stroke-width:0.53;stroke-linejoin:round;stroke-miterlimit:10;}
	.st2{clip-path:url(#SVGID_2_);fill:none;stroke:#FFFFFF;stroke-width:1.07;stroke-linejoin:round;stroke-miterlimit:10;}
	.st3{clip-path:url(#SVGID_2_);fill:#F8766D;}
	
		.st4{clip-path:url(#SVGID_2_);fill:none;stroke:#333333;stroke-width:1.07;stroke-linecap:round;stroke-linejoin:round;stroke-miterlimit:10;}
	.st5{clip-path:url(#SVGID_2_);fill:#00BFC4;}
	.st6{clip-path:url(#SVGID_2_);fill:none;stroke:#333333;stroke-width:1.07;stroke-linejoin:round;stroke-miterlimit:10;}
	.st7{clip-path:url(#SVGID_2_);fill:none;stroke:#333333;stroke-width:2.13;stroke-linejoin:round;stroke-miterlimit:10;}
	.st8{fill:none;stroke:#333333;stroke-width:1.07;stroke-linejoin:round;stroke-miterlimit:10;}
</style>
<g>
	<defs>
		<rect id="SVGID_1_" x="70.3" y="5.5" width="443.8" height="395.3"/>
	</defs>
	<clipPath id="SVGID_2_">
		<use xlink:href="#SVGID_1_"  style="overflow:visible;"/>
	</clipPath>
	<rect x="70.3" y="5.5" class="st0" width="443.8" height="395.3"/>
	<line class="st1" x1="70.3" y1="329.4" x2="514.1" y2="329.4"/>
	<line class="st1" x1="70.3" y1="222.7" x2="514.1" y2="222.7"/>
	<line class="st1" x1="70.3" y1="116" x2="514.1" y2="116"/>
	<line class="st1" x1="70.3" y1="9.3" x2="514.1" y2="9.3"/>
	<line class="st2" x1="70.3" y1="382.8" x2="514.1" y2="382.8"/>
	<line class="st2" x1="70.3" y1="276.1" x2="514.1" y2="276.1"/>
	<line class="st2" x1="70.3" y1="169.4" x2="514.1" y2="169.4"/>
	<line class="st2" x1="70.3" y1="62.6" x2="514.1" y2="62.6"/>
	<line class="st2" x1="191.4" y1="400.7" x2="191.4" y2="5.5"/>
	<line class="st2" x1="393.1" y1="400.7" x2="393.1" y2="5.5"/>
	<polygon class="st3" points="184.4,382.8 183.6,382.1 182.7,381.4 181.7,380.7 180.7,380 179.6,379.3 178.6,378.5 177.4,377.9 
		176.3,377.1 175.1,376.4 173.9,375.7 172.7,375 171.5,374.3 170.2,373.6 169,372.9 167.8,372.2 166.6,371.5 165.4,370.8 
		164.2,370.1 163,369.4 161.8,368.7 160.7,368 159.5,367.3 158.4,366.6 157.3,365.9 156.2,365.2 155.1,364.5 154.1,363.8 
		153.1,363.1 152,362.4 151,361.7 150,361 149.1,360.3 148.1,359.6 147.2,358.9 146.3,358.2 145.4,357.5 144.5,356.8 143.6,356 
		142.7,355.4 141.9,354.6 141.1,353.9 140.3,353.2 139.5,352.5 138.8,351.8 138.1,351.1 137.4,350.4 136.7,349.7 136.1,349 
		135.4,348.3 134.8,347.6 134.2,346.9 133.7,346.2 133.1,345.5 132.6,344.8 132.1,344.1 131.6,343.4 131.1,342.7 130.6,342 
		130.2,341.3 129.7,340.6 129.3,339.9 128.9,339.2 128.5,338.5 128.1,337.8 127.7,337.1 127.4,336.4 127.1,335.7 126.7,335 
		126.4,334.3 126.2,333.5 125.9,332.9 125.6,332.1 125.4,331.4 125.2,330.7 125,330 124.8,329.3 124.7,328.6 124.6,327.9 
		124.4,327.2 124.4,326.5 124.3,325.8 124.2,325.1 124.2,324.4 124.2,323.7 124.2,323 124.2,322.3 124.3,321.6 124.4,320.9 
		124.5,320.2 124.6,319.5 124.8,318.8 125,318.1 125.2,317.4 125.4,316.7 125.7,316 125.9,315.3 126.3,314.6 126.6,313.9 
		126.9,313.2 127.3,312.5 127.7,311.8 128.1,311 128.5,310.3 128.9,309.6 129.3,308.9 129.8,308.2 130.2,307.5 130.7,306.8 
		131.2,306.1 131.6,305.4 132.1,304.7 132.6,304 133,303.3 133.5,302.6 133.9,301.9 134.4,301.2 134.8,300.5 135.2,299.8 
		135.6,299.1 136,298.4 136.4,297.7 136.7,297 137,296.3 137.4,295.6 137.6,294.9 137.9,294.2 138.2,293.5 138.5,292.8 138.7,292.1 
		138.9,291.4 139.2,290.7 139.4,290 139.6,289.3 139.9,288.5 140.1,287.8 140.3,287.1 140.5,286.4 140.7,285.7 140.9,285 
		141.1,284.3 141.3,283.6 141.4,282.9 141.6,282.2 141.8,281.5 142,280.8 142.2,280.1 142.4,279.4 142.6,278.7 142.8,278 143,277.3 
		143.2,276.6 143.4,275.9 143.7,275.2 143.9,274.5 144.1,273.8 144.3,273.1 144.5,272.4 144.8,271.7 145,271 145.2,270.3 
		145.4,269.6 145.6,268.9 145.9,268.1 146.1,267.5 146.3,266.8 146.6,266 146.8,265.3 147,264.6 147.2,263.9 147.5,263.2 
		147.7,262.5 148,261.8 148.2,261.1 148.5,260.4 148.7,259.7 149,259 149.2,258.3 149.5,257.6 149.7,256.9 149.9,256.2 150.2,255.5 
		150.4,254.8 150.6,254.1 150.9,253.4 151.1,252.7 151.3,252 151.5,251.3 151.7,250.6 151.9,249.9 152.1,249.2 152.2,248.5 
		152.4,247.8 152.6,247.1 152.7,246.4 152.9,245.6 153,244.9 153.2,244.3 153.3,243.5 153.5,242.8 153.6,242.1 153.7,241.4 
		153.9,240.7 154,240 154.2,239.3 154.3,238.6 154.4,237.9 154.6,237.2 154.7,236.5 154.9,235.8 155,235.1 155.1,234.4 155.3,233.7 
		155.4,233 155.5,232.3 155.7,231.6 155.8,230.9 155.9,230.2 156.1,229.5 156.2,228.8 156.3,228.1 156.4,227.4 156.6,226.7 
		156.7,226 156.8,225.3 156.9,224.6 157,223.9 157.1,223.1 157.3,222.4 157.4,221.7 157.5,221 157.6,220.3 157.7,219.6 157.8,218.9 
		157.9,218.2 158,217.5 158.1,216.8 158.3,216.1 158.4,215.4 158.5,214.7 158.7,214 158.8,213.3 159,212.6 159.1,211.9 159.3,211.2 
		159.4,210.5 159.6,209.8 159.8,209.1 160,208.4 160.1,207.7 160.3,207 160.5,206.3 160.7,205.6 160.9,204.9 161,204.2 161.2,203.5 
		161.4,202.8 161.5,202.1 161.7,201.4 161.8,200.6 162,199.9 162.1,199.2 162.3,198.5 162.4,197.8 162.6,197.1 162.7,196.4 
		162.8,195.7 163,195 163.1,194.3 163.3,193.6 163.4,192.9 163.6,192.2 163.7,191.5 163.9,190.8 164,190.1 164.2,189.4 164.4,188.7 
		164.5,188 164.7,187.3 164.9,186.6 165.1,185.9 165.3,185.2 165.4,184.5 165.6,183.8 165.8,183.1 166,182.4 166.2,181.7 166.4,181 
		166.5,180.3 166.7,179.6 166.9,178.9 167.1,178.1 167.3,177.4 167.4,176.7 167.6,176 167.8,175.3 167.9,174.6 168.1,173.9 
		168.3,173.2 168.5,172.5 168.6,171.8 168.8,171.1 169,170.4 169.2,169.7 169.4,169 169.5,168.3 169.7,167.6 169.9,166.9 
		170.1,166.2 170.2,165.5 170.4,164.8 170.6,164.1 170.8,163.4 170.9,162.7 171.1,162 171.3,161.3 171.4,160.6 171.6,159.9 
		171.7,159.2 171.9,158.5 172,157.8 172.1,157 172.3,156.4 172.4,155.6 172.6,154.9 172.7,154.2 172.8,153.5 172.9,152.8 173,152.1 
		173.1,151.4 173.3,150.7 173.4,150 173.5,149.3 173.6,148.6 173.7,147.9 173.8,147.2 174,146.5 174.1,145.8 174.2,145.1 
		174.4,144.4 174.5,143.7 174.6,143 174.8,142.3 174.9,141.6 175.1,140.9 175.3,140.2 175.4,139.5 175.6,138.8 175.8,138.1 
		176,137.4 176.1,136.7 176.3,136 176.5,135.3 176.7,134.5 176.9,133.9 177.1,133.1 177.3,132.4 177.5,131.7 177.7,131 177.9,130.3 
		178.1,129.6 178.3,128.9 178.5,128.2 178.7,127.5 178.9,126.8 179.1,126.1 179.3,125.4 179.5,124.7 179.7,124 179.9,123.3 
		180,122.6 180.2,121.9 180.4,121.2 180.6,120.5 180.7,119.8 180.9,119.1 181,118.4 181.2,117.7 181.3,117 181.5,116.3 181.6,115.6 
		181.7,114.9 181.8,114.2 181.9,113.5 182,112.8 182.1,112 182.2,111.3 182.3,110.6 182.4,109.9 182.4,109.2 182.5,108.5 
		182.6,107.8 182.6,107.1 182.7,106.4 182.8,105.7 182.8,105 182.9,104.3 182.9,103.6 183,102.9 183,102.2 183.1,101.5 183.1,100.8 
		183.2,100.1 183.3,99.4 183.3,98.7 183.4,98 183.5,97.3 183.6,96.6 183.7,95.9 183.8,95.2 183.9,94.5 184,93.8 184.2,93.1 
		184.3,92.4 184.4,91.6 184.6,91 184.7,90.3 184.9,89.5 185.1,88.8 185.2,88.1 185.4,87.4 185.6,86.7 185.8,86 186,85.3 186.1,84.6 
		186.3,83.9 186.5,83.2 186.7,82.5 186.9,81.8 187,81.1 187.2,80.4 187.4,79.7 187.5,79 187.6,78.3 187.8,77.6 187.9,76.9 
		188.1,76.2 188.2,75.5 188.3,74.8 188.4,74.1 188.5,73.4 188.6,72.7 188.7,72 188.8,71.3 188.9,70.6 188.9,69.9 189,69.1 
		189.1,68.5 189.2,67.8 189.2,67 189.3,66.3 189.3,65.6 189.4,64.9 189.4,64.2 189.5,63.5 189.5,62.8 189.5,62.1 189.6,61.4 
		189.6,60.7 189.6,60 189.6,59.3 189.6,58.6 189.6,57.9 189.6,57.2 189.6,56.5 189.6,55.8 189.6,55.1 189.6,54.4 189.6,53.7 
		189.6,53 189.6,52.3 189.6,51.6 189.6,50.9 189.6,50.2 189.7,49.5 189.7,48.8 189.7,48.1 189.7,47.4 189.7,46.6 189.7,46 
		189.8,45.2 189.8,44.5 189.8,43.8 189.8,43.1 189.9,42.4 189.9,41.7 189.9,41 190,40.3 190,39.6 190.1,38.9 190.1,38.2 190.2,37.5 
		190.2,36.8 190.3,36.1 190.3,35.4 190.4,34.7 190.4,34 190.5,33.3 190.5,32.6 190.6,31.9 190.6,31.2 190.7,30.5 190.7,29.8 
		190.8,29.1 190.8,28.4 190.9,27.7 190.9,27 191,26.3 191,25.6 191.1,24.9 191.1,24.1 191.1,23.5 191.6,23.5 191.6,24.1 191.6,24.9 
		191.7,25.6 191.7,26.3 191.8,27 191.8,27.7 191.9,28.4 191.9,29.1 192,29.8 192,30.5 192.1,31.2 192.1,31.9 192.2,32.6 192.2,33.3 
		192.3,34 192.3,34.7 192.4,35.4 192.4,36.1 192.5,36.8 192.5,37.5 192.6,38.2 192.6,38.9 192.7,39.6 192.7,40.3 192.8,41 
		192.8,41.7 192.8,42.4 192.9,43.1 192.9,43.8 192.9,44.5 192.9,45.2 193,46 193,46.6 193,47.4 193,48.1 193,48.8 193,49.5 
		193.1,50.2 193.1,50.9 193.1,51.6 193.1,52.3 193.1,53 193.1,53.7 193.1,54.4 193.1,55.1 193.1,55.8 193.1,56.5 193.1,57.2 
		193.1,57.9 193.1,58.6 193.1,59.3 193.1,60 193.1,60.7 193.1,61.4 193.2,62.1 193.2,62.8 193.2,63.5 193.3,64.2 193.3,64.9 
		193.4,65.6 193.4,66.3 193.5,67 193.5,67.8 193.6,68.5 193.7,69.1 193.8,69.9 193.8,70.6 193.9,71.3 194,72 194.1,72.7 194.2,73.4 
		194.3,74.1 194.4,74.8 194.5,75.5 194.6,76.2 194.8,76.9 194.9,77.6 195,78.3 195.2,79 195.3,79.7 195.5,80.4 195.7,81.1 
		195.8,81.8 196,82.5 196.2,83.2 196.4,83.9 196.6,84.6 196.7,85.3 196.9,86 197.1,86.7 197.3,87.4 197.4,88.1 197.6,88.8 
		197.8,89.5 197.9,90.3 198.1,91 198.3,91.6 198.4,92.4 198.5,93.1 198.7,93.8 198.8,94.5 198.9,95.2 199,95.9 199.1,96.6 
		199.2,97.3 199.3,98 199.4,98.7 199.4,99.4 199.5,100.1 199.6,100.8 199.6,101.5 199.7,102.2 199.7,102.9 199.8,103.6 199.8,104.3 
		199.9,105 199.9,105.7 200,106.4 200.1,107.1 200.1,107.8 200.2,108.5 200.3,109.2 200.3,109.9 200.4,110.6 200.5,111.3 200.6,112 
		200.7,112.8 200.8,113.5 200.9,114.2 201,114.9 201.1,115.6 201.2,116.3 201.4,117 201.5,117.7 201.6,118.4 201.8,119.1 202,119.8 
		202.1,120.5 202.3,121.2 202.5,121.9 202.6,122.6 202.8,123.3 203,124 203.2,124.7 203.4,125.4 203.6,126.1 203.8,126.8 204,127.5 
		204.2,128.2 204.4,128.9 204.6,129.6 204.8,130.3 205,131 205.2,131.7 205.4,132.4 205.6,133.1 205.8,133.9 206,134.5 206.2,135.3 
		206.4,136 206.5,136.7 206.7,137.4 206.9,138.1 207.1,138.8 207.3,139.5 207.4,140.2 207.6,140.9 207.8,141.6 207.9,142.3 
		208.1,143 208.2,143.7 208.3,144.4 208.5,145.1 208.6,145.8 208.7,146.5 208.9,147.2 209,147.9 209.1,148.6 209.2,149.3 209.3,150 
		209.4,150.7 209.6,151.4 209.7,152.1 209.8,152.8 209.9,153.5 210,154.2 210.1,154.9 210.3,155.6 210.4,156.4 210.5,157 
		210.7,157.8 210.8,158.5 211,159.2 211.1,159.9 211.3,160.6 211.4,161.3 211.6,162 211.8,162.7 211.9,163.4 212.1,164.1 
		212.3,164.8 212.4,165.5 212.6,166.2 212.8,166.9 213,167.6 213.2,168.3 213.4,169 213.5,169.7 213.7,170.4 213.9,171.1 
		214.1,171.8 214.2,172.5 214.4,173.2 214.6,173.9 214.7,174.6 214.9,175.3 215.1,176 215.3,176.7 215.4,177.4 215.6,178.1 
		215.8,178.9 216,179.6 216.1,180.3 216.3,181 216.5,181.7 216.7,182.4 216.9,183.1 217.1,183.8 217.3,184.5 217.4,185.2 
		217.6,185.9 217.8,186.6 218,187.3 218.1,188 218.3,188.7 218.5,189.4 218.7,190.1 218.8,190.8 219,191.5 219.1,192.2 219.3,192.9 
		219.4,193.6 219.6,194.3 219.7,195 219.9,195.7 220,196.4 220.1,197.1 220.3,197.8 220.4,198.5 220.6,199.2 220.7,199.9 
		220.9,200.6 221,201.4 221.2,202.1 221.3,202.8 221.5,203.5 221.7,204.2 221.9,204.9 222,205.6 222.2,206.3 222.4,207 222.6,207.7 
		222.7,208.4 222.9,209.1 223.1,209.8 223.3,210.5 223.4,211.2 223.6,211.9 223.7,212.6 223.9,213.3 224,214 224.2,214.7 
		224.3,215.4 224.4,216.1 224.5,216.8 224.7,217.5 224.8,218.2 224.9,218.9 225,219.6 225.1,220.3 225.2,221 225.3,221.7 
		225.4,222.4 225.6,223.1 225.7,223.9 225.8,224.6 225.9,225.3 226,226 226.1,226.7 226.3,227.4 226.4,228.1 226.5,228.8 
		226.6,229.5 226.8,230.2 226.9,230.9 227,231.6 227.2,232.3 227.3,233 227.4,233.7 227.6,234.4 227.7,235.1 227.8,235.8 228,236.5 
		228.1,237.2 228.3,237.9 228.4,238.6 228.5,239.3 228.7,240 228.8,240.7 228.9,241.4 229.1,242.1 229.2,242.8 229.4,243.5 
		229.5,244.3 229.7,244.9 229.8,245.6 230,246.4 230.1,247.1 230.3,247.8 230.4,248.5 230.6,249.2 230.8,249.9 231,250.6 
		231.2,251.3 231.4,252 231.6,252.7 231.8,253.4 232.1,254.1 232.3,254.8 232.5,255.5 232.8,256.2 233,256.9 233.2,257.6 
		233.5,258.3 233.7,259 234,259.7 234.2,260.4 234.5,261.1 234.7,261.8 235,262.5 235.2,263.2 235.4,263.9 235.7,264.6 235.9,265.3 
		236.1,266 236.4,266.8 236.6,267.5 236.8,268.1 237.1,268.9 237.3,269.6 237.5,270.3 237.7,271 237.9,271.7 238.2,272.4 
		238.4,273.1 238.6,273.8 238.8,274.5 239,275.2 239.3,275.9 239.5,276.6 239.7,277.3 239.9,278 240.1,278.7 240.3,279.4 
		240.5,280.1 240.7,280.8 240.9,281.5 241.1,282.2 241.3,282.9 241.4,283.6 241.6,284.3 241.8,285 242,285.7 242.2,286.4 
		242.4,287.1 242.6,287.8 242.9,288.5 243.1,289.3 243.3,290 243.5,290.7 243.7,291.4 244,292.1 244.2,292.8 244.5,293.5 
		244.8,294.2 245.1,294.9 245.4,295.6 245.7,296.3 246,297 246.3,297.7 246.7,298.4 247.1,299.1 247.5,299.8 247.9,300.5 
		248.3,301.2 248.8,301.9 249.2,302.6 249.7,303.3 250.1,304 250.6,304.7 251.1,305.4 251.5,306.1 252,306.8 252.5,307.5 
		252.9,308.2 253.4,308.9 253.8,309.6 254.2,310.3 254.6,311 255,311.8 255.4,312.5 255.8,313.2 256.1,313.9 256.5,314.6 
		256.8,315.3 257,316 257.3,316.7 257.5,317.4 257.7,318.1 257.9,318.8 258.1,319.5 258.2,320.2 258.3,320.9 258.4,321.6 
		258.5,322.3 258.5,323 258.5,323.7 258.5,324.4 258.5,325.1 258.4,325.8 258.3,326.5 258.2,327.2 258.1,327.9 258,328.6 
		257.9,329.3 257.7,330 257.5,330.7 257.3,331.4 257.1,332.1 256.8,332.9 256.5,333.5 256.3,334.3 256,335 255.6,335.7 255.3,336.4 
		255,337.1 254.6,337.8 254.2,338.5 253.8,339.2 253.4,339.9 253,340.6 252.5,341.3 252.1,342 251.6,342.7 251.1,343.4 250.6,344.1 
		250.1,344.8 249.6,345.5 249,346.2 248.5,346.9 247.9,347.6 247.3,348.3 246.6,349 246,349.7 245.3,350.4 244.6,351.1 243.9,351.8 
		243.1,352.5 242.4,353.2 241.6,353.9 240.8,354.6 239.9,355.4 239.1,356 238.2,356.8 237.4,357.5 236.4,358.2 235.5,358.9 
		234.6,359.6 233.6,360.3 232.6,361 231.7,361.7 230.7,362.4 229.6,363.1 228.6,363.8 227.6,364.5 226.5,365.2 225.4,365.9 
		224.3,366.6 223.2,367.3 222,368 220.9,368.7 219.7,369.4 218.5,370.1 217.3,370.8 216.1,371.5 214.9,372.2 213.7,372.9 
		212.4,373.6 211.2,374.3 210,375 208.8,375.7 207.6,376.4 206.4,377.1 205.3,377.9 204.1,378.5 203.1,379.3 202,380 201,380.7 
		200,381.4 199.1,382.1 198.3,382.8 	"/>
	<polygon class="st4" points="184.4,382.8 183.6,382.1 182.7,381.4 181.7,380.7 180.7,380 179.6,379.3 178.6,378.5 177.4,377.9 
		176.3,377.1 175.1,376.4 173.9,375.7 172.7,375 171.5,374.3 170.2,373.6 169,372.9 167.8,372.2 166.6,371.5 165.4,370.8 
		164.2,370.1 163,369.4 161.8,368.7 160.7,368 159.5,367.3 158.4,366.6 157.3,365.9 156.2,365.2 155.1,364.5 154.1,363.8 
		153.1,363.1 152,362.4 151,361.7 150,361 149.1,360.3 148.1,359.6 147.2,358.9 146.3,358.2 145.4,357.5 144.5,356.8 143.6,356 
		142.7,355.4 141.9,354.6 141.1,353.9 140.3,353.2 139.5,352.5 138.8,351.8 138.1,351.1 137.4,350.4 136.7,349.7 136.1,349 
		135.4,348.3 134.8,347.6 134.2,346.9 133.7,346.2 133.1,345.5 132.6,344.8 132.1,344.1 131.6,343.4 131.1,342.7 130.6,342 
		130.2,341.3 129.7,340.6 129.3,339.9 128.9,339.2 128.5,338.5 128.1,337.8 127.7,337.1 127.4,336.4 127.1,335.7 126.7,335 
		126.4,334.3 126.2,333.5 125.9,332.9 125.6,332.1 125.4,331.4 125.2,330.7 125,330 124.8,329.3 124.7,328.6 124.6,327.9 
		124.4,327.2 124.4,326.5 124.3,325.8 124.2,325.1 124.2,324.4 124.2,323.7 124.2,323 124.2,322.3 124.3,321.6 124.4,320.9 
		124.5,320.2 124.6,319.5 124.8,318.8 125,318.1 125.2,317.4 125.4,316.7 125.7,316 125.9,315.3 126.3,314.6 126.6,313.9 
		126.9,313.2 127.3,312.5 127.7,311.8 128.1,311 128.5,310.3 128.9,309.6 129.3,308.9 129.8,308.2 130.2,307.5 130.7,306.8 
		131.2,306.1 131.6,305.4 132.1,304.7 132.6,304 133,303.3 133.5,302.6 133.9,301.9 134.4,301.2 134.8,300.5 135.2,299.8 
		135.6,299.1 136,298.4 136.4,297.7 136.7,297 137,296.3 137.4,295.6 137.6,294.9 137.9,294.2 138.2,293.5 138.5,292.8 138.7,292.1 
		138.9,291.4 139.2,290.7 139.4,290 139.6,289.3 139.9,288.5 140.1,287.8 140.3,287.1 140.5,286.4 140.7,285.7 140.9,285 
		141.1,284.3 141.3,283.6 141.4,282.9 141.6,282.2 141.8,281.5 142,280.8 142.2,280.1 142.4,279.4 142.6,278.7 142.8,278 143,277.3 
		143.2,276.6 143.4,275.9 143.7,275.2 143.9,274.5 144.1,273.8 144.3,273.1 144.5,272.4 144.8,271.7 145,271 145.2,270.3 
		145.4,269.6 145.6,268.9 145.9,268.1 146.1,267.5 146.3,266.8 146.6,266 146.8,265.3 147,264.6 147.2,263.9 147.5,263.2 
		147.7,262.5 148,261.8 148.2,261.1 148.5,260.4 148.7,259.7 149,259 149.2,258.3 149.5,257.6 149.7,256.9 149.9,256.2 150.2,255.5 
		150.4,254.8 150.6,254.1 150.9,253.4 151.1,252.7 151.3,252 151.5,251.3 151.7,250.6 151.9,249.9 152.1,249.2 152.2,248.5 
		152.4,247.8 152.6,247.1 152.7,246.4 152.9,245.6 153,244.9 153.2,244.3 153.3,243.5 153.5,242.8 153.6,242.1 153.7,241.4 
		153.9,240.7 154,240 154.2,239.3 154.3,238.6 154.4,237.9 154.6,237.2 154.7,236.5 154.9,235.8 155,235.1 155.1,234.4 155.3,233.7 
		155.4,233 155.5,232.3 155.7,231.6 155.8,230.9 155.9,230.2 156.1,229.5 156.2,228.8 156.3,228.1 156.4,227.4 156.6,226.7 
		156.7,226 156.8,225.3 156.9,224.6 157,223.9 157.1,223.1 157.3,222.4 157.4,221.7 157.5,221 157.6,220.3 157.7,219.6 157.8,218.9 
		157.9,218.2 158,217.5 158.1,216.8 158.3,216.1 158.4,215.4 158.5,214.7 158.7,214 158.8,213.3 159,212.6 159.1,211.9 159.3,211.2 
		159.4,210.5 159.6,209.8 159.8,209.1 160,208.4 160.1,207.7 160.3,207 160.5,206.3 160.7,205.6 160.9,204.9 161,204.2 161.2,203.5 
		161.4,202.8 161.5,202.1 161.7,201.4 161.8,200.6 162,199.9 162.1,199.2 162.3,198.5 162.4,197.8 162.6,197.1 162.7,196.4 
		162.8,195.7 163,195 163.1,194.3 163.3,193.6 163.4,192.9 163.6,192.2 163.7,191.5 163.9,190.8 164,190.1 164.2,189.4 164.4,188.7 
		164.5,188 164.7,187.3 164.9,186.6 165.1,185.9 165.3,185.2 165.4,184.5 165.6,183.8 165.8,183.1 166,182.4 166.2,181.7 166.4,181 
		166.5,180.3 166.7,179.6 166.9,178.9 167.1,178.1 167.3,177.4 167.4,176.7 167.6,176 167.8,175.3 167.9,174.6 168.1,173.9 
		168.3,173.2 168.5,172.5 168.6,171.8 168.8,171.1 169,170.4 169.2,169.7 169.4,169 169.5,168.3 169.7,167.6 169.9,166.9 
		170.1,166.2 170.2,165.5 170.4,164.8 170.6,164.1 170.8,163.4 170.9,162.7 171.1,162 171.3,161.3 171.4,160.6 171.6,159.9 
		171.7,159.2 171.9,158.5 172,157.8 172.1,157 172.3,156.4 172.4,155.6 172.6,154.9 172.7,154.2 172.8,153.5 172.9,152.8 173,152.1 
		173.1,151.4 173.3,150.7 173.4,150 173.5,149.3 173.6,148.6 173.7,147.9 173.8,147.2 174,146.5 174.1,145.8 174.2,145.1 
		174.4,144.4 174.5,143.7 174.6,143 174.8,142.3 174.9,141.6 175.1,140.9 175.3,140.2 175.4,139.5 175.6,138.8 175.8,138.1 
		176,137.4 176.1,136.7 176.3,136 176.5,135.3 176.7,134.5 176.9,133.9 177.1,133.1 177.3,132.4 177.5,131.7 177.7,131 177.9,130.3 
		178.1,129.6 178.3,128.9 178.5,128.2 178.7,127.5 178.9,126.8 179.1,126.1 179.3,125.4 179.5,124.7 179.7,124 179.9,123.3 
		180,122.6 180.2,121.9 180.4,121.2 180.6,120.5 180.7,119.8 180.9,119.1 181,118.4 181.2,117.7 181.3,117 181.5,116.3 181.6,115.6 
		181.7,114.9 181.8,114.2 181.9,113.5 182,112.8 182.1,112 182.2,111.3 182.3,110.6 182.4,109.9 182.4,109.2 182.5,108.5 
		182.6,107.8 182.6,107.1 182.7,106.4 182.8,105.7 182.8,105 182.9,104.3 182.9,103.6 183,102.9 183,102.2 183.1,101.5 183.1,100.8 
		183.2,100.1 183.3,99.4 183.3,98.7 183.4,98 183.5,97.3 183.6,96.6 183.7,95.9 183.8,95.2 183.9,94.5 184,93.8 184.2,93.1 
		184.3,92.4 184.4,91.6 184.6,91 184.7,90.3 184.9,89.5 185.1,88.8 185.2,88.1 185.4,87.4 185.6,86.7 185.8,86 186,85.3 186.1,84.6 
		186.3,83.9 186.5,83.2 186.7,82.5 186.9,81.8 187,81.1 187.2,80.4 187.4,79.7 187.5,79 187.6,78.3 187.8,77.6 187.9,76.9 
		188.1,76.2 188.2,75.5 188.3,74.8 188.4,74.1 188.5,73.4 188.6,72.7 188.7,72 188.8,71.3 188.9,70.6 188.9,69.9 189,69.1 
		189.1,68.5 189.2,67.8 189.2,67 189.3,66.3 189.3,65.6 189.4,64.9 189.4,64.2 189.5,63.5 189.5,62.8 189.5,62.1 189.6,61.4 
		189.6,60.7 189.6,60 189.6,59.3 189.6,58.6 189.6,57.9 189.6,57.2 189.6,56.5 189.6,55.8 189.6,55.1 189.6,54.4 189.6,53.7 
		189.6,53 189.6,52.3 189.6,51.6 189.6,50.9 189.6,50.2 189.7,49.5 189.7,48.8 189.7,48.1 189.7,47.4 189.7,46.6 189.7,46 
		189.8,45.2 189.8,44.5 189.8,43.8 189.8,43.1 189.9,42.4 189.9,41.7 189.9,41 190,40.3 190,39.6 190.1,38.9 190.1,38.2 190.2,37.5 
		190.2,36.8 190.3,36.1 190.3,35.4 190.4,34.7 190.4,34 190.5,33.3 190.5,32.6 190.6,31.9 190.6,31.2 190.7,30.5 190.7,29.8 
		190.8,29.1 190.8,28.4 190.9,27.7 190.9,27 191,26.3 191,25.6 191.1,24.9 191.1,24.1 191.1,23.5 191.6,23.5 191.6,24.1 191.6,24.9 
		191.7,25.6 191.7,26.3 191.8,27 191.8,27.7 191.9,28.4 191.9,29.1 192,29.8 192,30.5 192.1,31.2 192.1,31.9 192.2,32.6 192.2,33.3 
		192.3,34 192.3,34.7 192.4,35.4 192.4,36.1 192.5,36.8 192.5,37.5 192.6,38.2 192.6,38.9 192.7,39.6 192.7,40.3 192.8,41 
		192.8,41.7 192.8,42.4 192.9,43.1 192.9,43.8 192.9,44.5 192.9,45.2 193,46 193,46.6 193,47.4 193,48.1 193,48.8 193,49.5 
		193.1,50.2 193.1,50.9 193.1,51.6 193.1,52.3 193.1,53 193.1,53.7 193.1,54.4 193.1,55.1 193.1,55.8 193.1,56.5 193.1,57.2 
		193.1,57.9 193.1,58.6 193.1,59.3 193.1,60 193.1,60.7 193.1,61.4 193.2,62.1 193.2,62.8 193.2,63.5 193.3,64.2 193.3,64.9 
		193.4,65.6 193.4,66.3 193.5,67 193.5,67.8 193.6,68.5 193.7,69.1 193.8,69.9 193.8,70.6 193.9,71.3 194,72 194.1,72.7 194.2,73.4 
		194.3,74.1 194.4,74.8 194.5,75.5 194.6,76.2 194.8,76.9 194.9,77.6 195,78.3 195.2,79 195.3,79.7 195.5,80.4 195.7,81.1 
		195.8,81.8 196,82.5 196.2,83.2 196.4,83.9 196.6,84.6 196.7,85.3 196.9,86 197.1,86.7 197.3,87.4 197.4,88.1 197.6,88.8 
		197.8,89.5 197.9,90.3 198.1,91 198.3,91.6 198.4,92.4 198.5,93.1 198.7,93.8 198.8,94.5 198.9,95.2 199,95.9 199.1,96.6 
		199.2,97.3 199.3,98 199.4,98.7 199.4,99.4 199.5,100.1 199.6,100.8 199.6,101.5 199.7,102.2 199.7,102.9 199.8,103.6 199.8,104.3 
		199.9,105 199.9,105.7 200,106.4 200.1,107.1 200.1,107.8 200.2,108.5 200.3,109.2 200.3,109.9 200.4,110.6 200.5,111.3 200.6,112 
		200.7,112.8 200.8,113.5 200.9,114.2 201,114.9 201.1,115.6 201.2,116.3 201.4,117 201.5,117.7 201.6,118.4 201.8,119.1 202,119.8 
		202.1,120.5 202.3,121.2 202.5,121.9 202.6,122.6 202.8,123.3 203,124 203.2,124.7 203.4,125.4 203.6,126.1 203.8,126.8 204,127.5 
		204.2,128.2 204.4,128.9 204.6,129.6 204.8,130.3 205,131 205.2,131.7 205.4,132.4 205.6,133.1 205.8,133.9 206,134.5 206.2,135.3 
		206.4,136 206.5,136.7 206.7,137.4 206.9,138.1 207.1,138.8 207.3,139.5 207.4,140.2 207.6,140.9 207.8,141.6 207.9,142.3 
		208.1,143 208.2,143.7 208.3,144.4 208.5,145.1 208.6,145.8 208.7,146.5 208.9,147.2 209,147.9 209.1,148.6 209.2,149.3 209.3,150 
		209.4,150.7 209.6,151.4 209.7,152.1 209.8,152.8 209.9,153.5 210,154.2 210.1,154.9 210.3,155.6 210.4,156.4 210.5,157 
		210.7,157.8 210.8,158.5 211,159.2 211.1,159.9 211.3,160.6 211.4,161.3 211.6,162 211.8,162.7 211.9,163.4 212.1,164.1 
		212.3,164.8 212.4,165.5 212.6,166.2 212.8,166.9 213,167.6 213.2,168.3 213.4,169 213.5,169.7 213.7,170.4 213.9,171.1 
		214.1,171.8 214.2,172.5 214.4,173.2 214.6,173.9 214.7,174.6 214.9,175.3 215.1,176 215.3,176.7 215.4,177.4 215.6,178.1 
		215.8,178.9 216,179.6 216.1,180.3 216.3,181 216.5,181.7 216.7,182.4 216.9,183.1 217.1,183.8 217.3,184.5 217.4,185.2 
		217.6,185.9 217.8,186.6 218,187.3 218.1,188 218.3,188.7 218.5,189.4 218.7,190.1 218.8,190.8 219,191.5 219.1,192.2 219.3,192.9 
		219.4,193.6 219.6,194.3 219.7,195 219.9,195.7 220,196.4 220.1,197.1 220.3,197.8 220.4,198.5 220.6,199.2 220.7,199.9 
		220.9,200.6 221,201.4 221.2,202.1 221.3,202.8 221.5,203.5 221.7,204.2 221.9,204.9 222,205.6 222.2,206.3 222.4,207 222.6,207.7 
		222.7,208.4 222.9,209.1 223.1,209.8 223.3,210.5 223.4,211.2 223.6,211.9 223.7,212.6 223.9,213.3 224,214 224.2,214.7 
		224.3,215.4 224.4,216.1 224.5,216.8 224.7,217.5 224.8,218.2 224.9,218.9 225,219.6 225.1,220.3 225.2,221 225.3,221.7 
		225.4,222.4 225.6,223.1 225.7,223.9 225.8,224.6 225.9,225.3 226,226 226.1,226.7 226.3,227.4 226.4,228.1 226.5,228.8 
		226.6,229.5 226.8,230.2 226.9,230.9 227,231.6 227.2,232.3 227.3,233 227.4,233.7 227.6,234.4 227.7,235.1 227.8,235.8 228,236.5 
		228.1,237.2 228.3,237.9 228.4,238.6 228.5,239.3 228.7,240 228.8,240.7 228.9,241.4 229.1,242.1 229.2,242.8 229.4,243.5 
		229.5,244.3 229.7,244.9 229.8,245.6 230,246.4 230.1,247.1 230.3,247.8 230.4,248.5 230.6,249.2 230.8,249.9 231,250.6 
		231.2,251.3 231.4,252 231.6,252.7 231.8,253.4 232.1,254.1 232.3,254.8 232.5,255.5 232.8,256.2 233,256.9 233.2,257.6 
		233.5,258.3 233.7,259 234,259.7 234.2,260.4 234.5,261.1 234.7,261.8 235,262.5 235.2,263.2 235.4,263.9 235.7,264.6 235.9,265.3 
		236.1,266 236.4,266.8 236.6,267.5 236.8,268.1 237.1,268.9 237.3,269.6 237.5,270.3 237.7,271 237.9,271.7 238.2,272.4 
		238.4,273.1 238.6,273.8 238.8,274.5 239,275.2 239.3,275.9 239.5,276.6 239.7,277.3 239.9,278 240.1,278.7 240.3,279.4 
		240.5,280.1 240.7,280.8 240.9,281.5 241.1,282.2 241.3,282.9 241.4,283.6 241.6,284.3 241.8,285 242,285.7 242.2,286.4 
		242.4,287.1 242.6,287.8 242.9,288.5 243.1,289.3 243.3,290 243.5,290.7 243.7,291.4 244,292.1 244.2,292.8 244.5,293.5 
		244.8,294.2 245.1,294.9 245.4,295.6 245.7,296.3 246,297 246.3,297.7 246.7,298.4 247.1,299.1 247.5,299.8 247.9,300.5 
		248.3,301.2 248.8,301.9 249.2,302.6 249.7,303.3 250.1,304 250.6,304.7 251.1,305.4 251.5,306.1 252,306.8 252.5,307.5 
		252.9,308.2 253.4,308.9 253.8,309.6 254.2,310.3 254.6,311 255,311.8 255.4,312.5 255.8,313.2 256.1,313.9 256.5,314.6 
		256.8,315.3 257,316 257.3,316.7 257.5,317.4 257.7,318.1 257.9,318.8 258.1,319.5 258.2,320.2 258.3,320.9 258.4,321.6 
		258.5,322.3 258.5,323 258.5,323.7 258.5,324.4 258.5,325.1 258.4,325.8 258.3,326.5 258.2,327.2 258.1,327.9 258,328.6 
		257.9,329.3 257.7,330 257.5,330.7 257.3,331.4 257.1,332.1 256.8,332.9 256.5,333.5 256.3,334.3 256,335 255.6,335.7 255.3,336.4 
		255,337.1 254.6,337.8 254.2,338.5 253.8,339.2 253.4,339.9 253,340.6 252.5,341.3 252.1,342 251.6,342.7 251.1,343.4 250.6,344.1 
		250.1,344.8 249.6,345.5 249,346.2 248.5,346.9 247.9,347.6 247.3,348.3 246.6,349 246,349.7 245.3,350.4 244.6,351.1 243.9,351.8 
		243.1,352.5 242.4,353.2 241.6,353.9 240.8,354.6 239.9,355.4 239.1,356 238.2,356.8 237.4,357.5 236.4,358.2 235.5,358.9 
		234.6,359.6 233.6,360.3 232.6,361 231.7,361.7 230.7,362.4 229.6,363.1 228.6,363.8 227.6,364.5 226.5,365.2 225.4,365.9 
		224.3,366.6 223.2,367.3 222,368 220.9,368.7 219.7,369.4 218.5,370.1 217.3,370.8 216.1,371.5 214.9,372.2 213.7,372.9 
		212.4,373.6 211.2,374.3 210,375 208.8,375.7 207.6,376.4 206.4,377.1 205.3,377.9 204.1,378.5 203.1,379.3 202,380 201,380.7 
		200,381.4 199.1,382.1 198.3,382.8 	"/>
	<polygon class="st5" points="359.5,379.6 358.1,379.1 356.7,378.5 355.2,377.9 353.7,377.4 352.3,376.8 350.8,376.3 349.2,375.7 
		347.7,375.1 346.2,374.6 344.6,374 343.1,373.5 341.5,372.9 340,372.3 338.5,371.8 336.9,371.2 335.4,370.6 333.9,370.1 
		332.4,369.5 330.9,369 329.4,368.4 328,367.9 326.5,367.3 325.1,366.7 323.8,366.2 322.4,365.6 321.1,365 319.8,364.5 318.6,363.9 
		317.4,363.4 316.2,362.8 315,362.3 314,361.7 312.9,361.1 311.9,360.6 311,360 310,359.5 309.2,358.9 308.4,358.3 307.6,357.8 
		306.9,357.2 306.2,356.6 305.6,356.1 305.1,355.5 304.6,355 304.1,354.4 303.7,353.9 303.4,353.3 303,352.7 302.8,352.2 
		302.6,351.6 302.4,351 302.3,350.5 302.3,349.9 302.3,349.4 302.3,348.8 302.4,348.2 302.6,347.7 302.7,347.1 303,346.6 303.2,346 
		303.5,345.4 303.9,344.9 304.3,344.3 304.7,343.8 305.1,343.2 305.6,342.6 306.1,342.1 306.7,341.5 307.3,341 307.9,340.4 
		308.5,339.8 309.2,339.3 309.9,338.7 310.6,338.2 311.3,337.6 312.1,337 312.8,336.5 313.6,335.9 314.4,335.4 315.2,334.8 
		316,334.2 316.9,333.7 317.7,333.1 318.6,332.6 319.4,332 320.3,331.4 321.1,330.9 322,330.3 322.8,329.8 323.6,329.2 324.5,328.6 
		325.3,328.1 326.1,327.5 327,327 327.8,326.4 328.6,325.8 329.3,325.3 330.1,324.7 330.9,324.1 331.6,323.6 332.3,323 333,322.5 
		333.7,321.9 334.4,321.4 335,320.8 335.6,320.2 336.3,319.7 336.9,319.1 337.4,318.5 338,318 338.5,317.4 339,316.9 339.5,316.3 
		339.9,315.8 340.4,315.2 340.8,314.6 341.2,314.1 341.6,313.5 342,313 342.3,312.4 342.6,311.8 342.9,311.3 343.2,310.7 
		343.5,310.1 343.8,309.6 344,309 344.3,308.5 344.5,307.9 344.7,307.4 344.9,306.8 345.1,306.2 345.3,305.7 345.4,305.1 
		345.6,304.5 345.8,304 345.9,303.4 346,302.9 346.2,302.3 346.3,301.8 346.5,301.2 346.6,300.6 346.7,300.1 346.8,299.5 347,298.9 
		347.1,298.4 347.2,297.8 347.3,297.3 347.4,296.7 347.5,296.1 347.6,295.6 347.7,295 347.8,294.5 347.9,293.9 348,293.3 
		348.1,292.8 348.2,292.2 348.3,291.7 348.4,291.1 348.5,290.5 348.6,290 348.7,289.4 348.8,288.9 348.9,288.3 349,287.7 
		349.1,287.2 349.1,286.6 349.2,286.1 349.3,285.5 349.4,284.9 349.4,284.4 349.5,283.8 349.6,283.3 349.6,282.7 349.7,282.1 
		349.7,281.6 349.8,281 349.8,280.5 349.9,279.9 349.9,279.3 350,278.8 350,278.2 350.1,277.7 350.1,277.1 350.1,276.5 350.2,276 
		350.2,275.4 350.3,274.9 350.3,274.3 350.3,273.7 350.4,273.2 350.4,272.6 350.4,272 350.5,271.5 350.5,270.9 350.5,270.4 
		350.5,269.8 350.6,269.3 350.6,268.7 350.6,268.1 350.7,267.6 350.7,267 350.8,266.5 350.8,265.9 350.8,265.3 350.9,264.8 
		350.9,264.2 350.9,263.6 351,263.1 351,262.5 351,262 351.1,261.4 351.1,260.9 351.1,260.3 351.1,259.7 351.2,259.2 351.2,258.6 
		351.2,258 351.2,257.5 351.2,256.9 351.3,256.4 351.3,255.8 351.3,255.3 351.3,254.7 351.3,254.1 351.2,253.6 351.2,253 
		351.2,252.4 351.2,251.9 351.2,251.3 351.1,250.8 351.1,250.2 351.1,249.6 351.1,249.1 351,248.5 351,248 350.9,247.4 350.9,246.8 
		350.9,246.3 350.8,245.7 350.8,245.2 350.7,244.6 350.7,244 350.6,243.5 350.6,242.9 350.5,242.4 350.5,241.8 350.5,241.2 
		350.4,240.7 350.4,240.1 350.4,239.6 350.4,239 350.4,238.4 350.4,237.9 350.4,237.3 350.4,236.8 350.4,236.2 350.4,235.6 
		350.5,235.1 350.5,234.5 350.5,234 350.6,233.4 350.7,232.8 350.8,232.3 350.9,231.7 351,231.2 351.1,230.6 351.2,230 351.4,229.5 
		351.5,228.9 351.7,228.4 351.9,227.8 352.1,227.2 352.3,226.7 352.5,226.1 352.8,225.6 353,225 353.3,224.4 353.5,223.9 
		353.8,223.3 354.1,222.8 354.4,222.2 354.8,221.6 355.1,221.1 355.4,220.5 355.8,219.9 356.2,219.4 356.5,218.8 356.9,218.3 
		357.3,217.7 357.7,217.1 358.1,216.6 358.6,216 359,215.5 359.4,214.9 359.9,214.4 360.3,213.8 360.8,213.2 361.3,212.7 
		361.7,212.1 362.2,211.6 362.6,211 363.1,210.4 363.6,209.9 364.1,209.3 364.6,208.8 365,208.2 365.5,207.6 366,207.1 366.5,206.5 
		367,205.9 367.5,205.4 367.9,204.8 368.4,204.3 368.9,203.7 369.4,203.1 369.8,202.6 370.3,202 370.7,201.5 371.2,200.9 
		371.6,200.3 372.1,199.8 372.5,199.2 373,198.7 373.4,198.1 373.8,197.5 374.2,197 374.6,196.4 375,195.9 375.4,195.3 375.8,194.7 
		376.2,194.2 376.6,193.6 377,193.1 377.3,192.5 377.7,191.9 378,191.4 378.4,190.8 378.7,190.3 379,189.7 379.4,189.1 379.7,188.6 
		380,188 380.3,187.5 380.5,186.9 380.8,186.3 381.1,185.8 381.4,185.2 381.6,184.7 381.9,184.1 382.1,183.5 382.4,183 382.6,182.4 
		382.9,181.9 383.1,181.3 383.3,180.7 383.5,180.2 383.7,179.6 383.9,179.1 384.1,178.5 384.3,177.9 384.5,177.4 384.6,176.8 
		384.8,176.3 385,175.7 385.1,175.1 385.3,174.6 385.4,174 385.5,173.5 385.6,172.9 385.8,172.3 385.9,171.8 386,171.2 386.1,170.6 
		386.2,170.1 386.3,169.5 386.4,169 386.5,168.4 386.6,167.9 386.7,167.3 386.7,166.7 386.8,166.2 386.9,165.6 386.9,165 387,164.5 
		387.1,163.9 387.1,163.4 387.2,162.8 387.2,162.3 387.3,161.7 387.3,161.1 387.4,160.6 387.4,160 387.4,159.5 387.5,158.9 
		387.5,158.3 387.6,157.8 387.6,157.2 387.6,156.6 387.7,156.1 387.7,155.5 387.8,155 387.8,154.4 387.8,153.9 387.9,153.3 
		387.9,152.7 387.9,152.2 388,151.6 388,151 388.1,150.5 388.1,149.9 388.1,149.4 388.2,148.8 388.2,148.2 388.3,147.7 388.3,147.1 
		388.4,146.6 388.4,146 388.5,145.4 388.5,144.9 388.5,144.3 388.6,143.8 388.6,143.2 388.7,142.6 388.7,142.1 388.8,141.5 
		388.8,141 388.9,140.4 388.9,139.8 389,139.3 389,138.7 389.1,138.2 389.1,137.6 389.1,137 389.2,136.5 389.2,135.9 389.3,135.4 
		389.3,134.8 389.4,134.2 389.4,133.7 389.4,133.1 389.5,132.6 389.5,132 389.5,131.4 389.6,130.9 389.6,130.3 389.6,129.8 
		389.6,129.2 389.7,128.6 389.7,128.1 389.7,127.5 389.8,127 389.8,126.4 389.8,125.8 389.8,125.3 389.9,124.7 389.9,124.1 
		389.9,123.6 389.9,123 389.9,122.5 390,121.9 390,121.4 390,120.8 390,120.2 390,119.7 390.1,119.1 390.1,118.5 390.1,118 
		390.1,117.4 390.1,116.9 390.2,116.3 390.2,115.8 390.2,115.2 390.3,114.6 390.3,114.1 390.3,113.5 390.3,113 390.4,112.4 
		390.4,111.8 390.4,111.3 390.5,110.7 390.5,110.1 390.5,109.6 390.5,109 390.6,108.5 390.6,107.9 390.6,107.4 390.7,106.8 
		390.7,106.2 390.8,105.7 390.8,105.1 390.8,104.5 390.9,104 390.9,103.4 391,102.9 391,102.3 391,101.7 391.1,101.2 391.1,100.6 
		391.2,100.1 391.2,99.5 391.3,98.9 391.3,98.4 391.3,97.8 391.4,97.3 391.4,96.7 391.5,96.1 391.5,95.6 391.6,95 391.6,94.5 
		391.6,93.9 391.7,93.3 394.4,93.3 394.5,93.9 394.5,94.5 394.6,95 394.6,95.6 394.6,96.1 394.7,96.7 394.7,97.3 394.8,97.8 
		394.8,98.4 394.9,98.9 394.9,99.5 395,100.1 395,100.6 395,101.2 395.1,101.7 395.1,102.3 395.2,102.9 395.2,103.4 395.3,104 
		395.3,104.5 395.3,105.1 395.4,105.7 395.4,106.2 395.4,106.8 395.5,107.4 395.5,107.9 395.5,108.5 395.6,109 395.6,109.6 
		395.6,110.1 395.7,110.7 395.7,111.3 395.7,111.8 395.8,112.4 395.8,113 395.8,113.5 395.9,114.1 395.9,114.6 395.9,115.2 
		395.9,115.8 396,116.3 396,116.9 396,117.4 396,118 396,118.5 396.1,119.1 396.1,119.7 396.1,120.2 396.1,120.8 396.1,121.4 
		396.2,121.9 396.2,122.5 396.2,123 396.2,123.6 396.3,124.1 396.3,124.7 396.3,125.3 396.3,125.8 396.4,126.4 396.4,127 
		396.4,127.5 396.4,128.1 396.5,128.6 396.5,129.2 396.5,129.8 396.5,130.3 396.6,130.9 396.6,131.4 396.6,132 396.7,132.6 
		396.7,133.1 396.7,133.7 396.8,134.2 396.8,134.8 396.9,135.4 396.9,135.9 396.9,136.5 397,137 397,137.6 397.1,138.2 397.1,138.7 
		397.1,139.3 397.2,139.8 397.3,140.4 397.3,141 397.3,141.5 397.4,142.1 397.4,142.6 397.5,143.2 397.5,143.8 397.6,144.3 
		397.6,144.9 397.7,145.4 397.7,146 397.8,146.6 397.8,147.1 397.9,147.7 397.9,148.2 397.9,148.8 398,149.4 398,149.9 398.1,150.5 
		398.1,151 398.1,151.6 398.2,152.2 398.2,152.7 398.3,153.3 398.3,153.9 398.3,154.4 398.4,155 398.4,155.5 398.5,156.1 
		398.5,156.6 398.5,157.2 398.6,157.8 398.6,158.3 398.6,158.9 398.7,159.5 398.7,160 398.8,160.6 398.8,161.1 398.9,161.7 
		398.9,162.3 399,162.8 399,163.4 399.1,163.9 399.1,164.5 399.2,165 399.3,165.6 399.3,166.2 399.4,166.7 399.5,167.3 399.5,167.9 
		399.6,168.4 399.7,169 399.8,169.5 399.9,170.1 400,170.6 400.1,171.2 400.2,171.8 400.4,172.3 400.5,172.9 400.6,173.5 400.7,174 
		400.9,174.6 401,175.1 401.2,175.7 401.3,176.3 401.5,176.8 401.7,177.4 401.9,177.9 402,178.5 402.2,179.1 402.4,179.6 
		402.6,180.2 402.8,180.7 403,181.3 403.3,181.9 403.5,182.4 403.7,183 404,183.5 404.2,184.1 404.5,184.7 404.7,185.2 405,185.8 
		405.3,186.3 405.6,186.9 405.9,187.5 406.2,188 406.5,188.6 406.8,189.1 407.1,189.7 407.4,190.3 407.8,190.8 408.1,191.4 
		408.5,191.9 408.8,192.5 409.2,193.1 409.5,193.6 409.9,194.2 410.3,194.7 410.7,195.3 411.1,195.9 411.5,196.4 411.9,197 
		412.3,197.5 412.7,198.1 413.2,198.7 413.6,199.2 414,199.8 414.5,200.3 414.9,200.9 415.4,201.5 415.8,202 416.3,202.6 
		416.8,203.1 417.2,203.7 417.7,204.3 418.2,204.8 418.7,205.4 419.1,205.9 419.6,206.5 420.1,207.1 420.6,207.6 421.1,208.2 
		421.6,208.8 422,209.3 422.5,209.9 423,210.4 423.5,211 424,211.6 424.4,212.1 424.9,212.7 425.3,213.2 425.8,213.8 426.3,214.4 
		426.7,214.9 427.1,215.5 427.6,216 428,216.6 428.4,217.1 428.8,217.7 429.2,218.3 429.6,218.8 430,219.4 430.3,219.9 430.7,220.5 
		431,221.1 431.4,221.6 431.7,222.2 432,222.8 432.3,223.3 432.6,223.9 432.9,224.4 433.1,225 433.4,225.6 433.6,226.1 433.8,226.7 
		434,227.2 434.2,227.8 434.4,228.4 434.6,228.9 434.8,229.5 434.9,230 435,230.6 435.1,231.2 435.3,231.7 435.4,232.3 435.5,232.8 
		435.5,233.4 435.6,234 435.6,234.5 435.7,235.1 435.7,235.6 435.7,236.2 435.8,236.8 435.8,237.3 435.8,237.9 435.8,238.4 
		435.8,239 435.7,239.6 435.7,240.1 435.7,240.7 435.6,241.2 435.6,241.8 435.6,242.4 435.5,242.9 435.5,243.5 435.5,244 
		435.4,244.6 435.4,245.2 435.3,245.7 435.3,246.3 435.2,246.8 435.2,247.4 435.1,248 435.1,248.5 435.1,249.1 435,249.6 435,250.2 
		435,250.8 435,251.3 434.9,251.9 434.9,252.4 434.9,253 434.9,253.6 434.9,254.1 434.9,254.7 434.9,255.3 434.9,255.8 434.9,256.4 
		434.9,256.9 434.9,257.5 434.9,258 434.9,258.6 435,259.2 435,259.7 435,260.3 435,260.9 435.1,261.4 435.1,262 435.1,262.5 
		435.2,263.1 435.2,263.6 435.2,264.2 435.3,264.8 435.3,265.3 435.3,265.9 435.4,266.5 435.4,267 435.4,267.6 435.5,268.1 
		435.5,268.7 435.5,269.3 435.6,269.8 435.6,270.4 435.6,270.9 435.7,271.5 435.7,272 435.8,272.6 435.8,273.2 435.8,273.7 
		435.9,274.3 435.9,274.9 435.9,275.4 436,276 436,276.5 436,277.1 436.1,277.7 436.1,278.2 436.1,278.8 436.2,279.3 436.2,279.9 
		436.3,280.5 436.3,281 436.4,281.6 436.5,282.1 436.5,282.7 436.6,283.3 436.6,283.8 436.7,284.4 436.8,284.9 436.8,285.5 
		436.9,286.1 437,286.6 437.1,287.2 437.1,287.7 437.2,288.3 437.3,288.9 437.4,289.4 437.5,290 437.6,290.5 437.7,291.1 
		437.8,291.7 437.9,292.2 438,292.8 438.1,293.3 438.2,293.9 438.3,294.5 438.4,295 438.5,295.6 438.6,296.1 438.7,296.7 
		438.8,297.3 439,297.8 439.1,298.4 439.2,298.9 439.3,299.5 439.4,300.1 439.5,300.6 439.7,301.2 439.8,301.8 439.9,302.3 
		440.1,302.9 440.2,303.4 440.4,304 440.5,304.5 440.7,305.1 440.9,305.7 441,306.2 441.2,306.8 441.4,307.4 441.6,307.9 
		441.9,308.5 442.1,309 442.4,309.6 442.6,310.1 442.9,310.7 443.2,311.3 443.5,311.8 443.8,312.4 444.2,313 444.5,313.5 
		444.9,314.1 445.3,314.6 445.8,315.2 446.2,315.8 446.7,316.3 447.1,316.9 447.6,317.4 448.2,318 448.7,318.5 449.3,319.1 
		449.9,319.7 450.5,320.2 451.1,320.8 451.8,321.4 452.4,321.9 453.1,322.5 453.8,323 454.5,323.6 455.3,324.1 456,324.7 
		456.8,325.3 457.6,325.8 458.4,326.4 459.2,327 460,327.5 460.8,328.1 461.6,328.6 462.5,329.2 463.3,329.8 464.2,330.3 465,330.9 
		465.9,331.4 466.7,332 467.6,332.6 468.4,333.1 469.3,333.7 470.1,334.2 470.9,334.8 471.7,335.4 472.5,335.9 473.3,336.5 474,337 
		474.8,337.6 475.5,338.2 476.2,338.7 476.9,339.3 477.6,339.8 478.2,340.4 478.9,341 479.4,341.5 480,342.1 480.5,342.6 481,343.2 
		481.5,343.8 481.9,344.3 482.3,344.9 482.6,345.4 482.9,346 483.2,346.6 483.4,347.1 483.6,347.7 483.7,348.2 483.8,348.8 
		483.8,349.4 483.8,349.9 483.8,350.5 483.7,351 483.5,351.6 483.3,352.2 483.1,352.7 482.8,353.3 482.4,353.9 482,354.4 481.6,355 
		481.1,355.5 480.5,356.1 479.9,356.6 479.2,357.2 478.5,357.8 477.8,358.3 477,358.9 476.1,359.5 475.2,360 474.2,360.6 
		473.2,361.1 472.2,361.7 471.1,362.3 470,362.8 468.8,363.4 467.6,363.9 466.3,364.5 465,365 463.7,365.6 462.4,366.2 461,366.7 
		459.6,367.3 458.2,367.9 456.7,368.4 455.2,369 453.8,369.5 452.2,370.1 450.7,370.6 449.2,371.2 447.7,371.8 446.1,372.3 
		444.6,372.9 443,373.5 441.5,374 440,374.6 438.4,375.1 436.9,375.7 435.4,376.3 433.9,376.8 432.4,377.4 430.9,377.9 429.5,378.5 
		428,379.1 426.6,379.6 	"/>
	<polygon class="st4" points="359.5,379.6 358.1,379.1 356.7,378.5 355.2,377.9 353.7,377.4 352.3,376.8 350.8,376.3 349.2,375.7 
		347.7,375.1 346.2,374.6 344.6,374 343.1,373.5 341.5,372.9 340,372.3 338.5,371.8 336.9,371.2 335.4,370.6 333.9,370.1 
		332.4,369.5 330.9,369 329.4,368.4 328,367.9 326.5,367.3 325.1,366.7 323.8,366.2 322.4,365.6 321.1,365 319.8,364.5 318.6,363.9 
		317.4,363.4 316.2,362.8 315,362.3 314,361.7 312.9,361.1 311.9,360.6 311,360 310,359.5 309.2,358.9 308.4,358.3 307.6,357.8 
		306.9,357.2 306.2,356.6 305.6,356.1 305.1,355.5 304.6,355 304.1,354.4 303.7,353.9 303.4,353.3 303,352.7 302.8,352.2 
		302.6,351.6 302.4,351 302.3,350.5 302.3,349.9 302.3,349.4 302.3,348.8 302.4,348.2 302.6,347.7 302.7,347.1 303,346.6 303.2,346 
		303.5,345.4 303.9,344.9 304.3,344.3 304.7,343.8 305.1,343.2 305.6,342.6 306.1,342.1 306.7,341.5 307.3,341 307.9,340.4 
		308.5,339.8 309.2,339.3 309.9,338.7 310.6,338.2 311.3,337.6 312.1,337 312.8,336.5 313.6,335.9 314.4,335.4 315.2,334.8 
		316,334.2 316.9,333.7 317.7,333.1 318.6,332.6 319.4,332 320.3,331.4 321.1,330.9 322,330.3 322.8,329.8 323.6,329.2 324.5,328.6 
		325.3,328.1 326.1,327.5 327,327 327.8,326.4 328.6,325.8 329.3,325.3 330.1,324.7 330.9,324.1 331.6,323.6 332.3,323 333,322.5 
		333.7,321.9 334.4,321.4 335,320.8 335.6,320.2 336.3,319.7 336.9,319.1 337.4,318.5 338,318 338.5,317.4 339,316.9 339.5,316.3 
		339.9,315.8 340.4,315.2 340.8,314.6 341.2,314.1 341.6,313.5 342,313 342.3,312.4 342.6,311.8 342.9,311.3 343.2,310.7 
		343.5,310.1 343.8,309.6 344,309 344.3,308.5 344.5,307.9 344.7,307.4 344.9,306.8 345.1,306.2 345.3,305.7 345.4,305.1 
		345.6,304.5 345.8,304 345.9,303.4 346,302.9 346.2,302.3 346.3,301.8 346.5,301.2 346.6,300.6 346.7,300.1 346.8,299.5 347,298.9 
		347.1,298.4 347.2,297.8 347.3,297.3 347.4,296.7 347.5,296.1 347.6,295.6 347.7,295 347.8,294.5 347.9,293.9 348,293.3 
		348.1,292.8 348.2,292.2 348.3,291.7 348.4,291.1 348.5,290.5 348.6,290 348.7,289.4 348.8,288.9 348.9,288.3 349,287.7 
		349.1,287.2 349.1,286.6 349.2,286.1 349.3,285.5 349.4,284.9 349.4,284.4 349.5,283.8 349.6,283.3 349.6,282.7 349.7,282.1 
		349.7,281.6 349.8,281 349.8,280.5 349.9,279.9 349.9,279.3 350,278.8 350,278.2 350.1,277.7 350.1,277.1 350.1,276.5 350.2,276 
		350.2,275.4 350.3,274.9 350.3,274.3 350.3,273.7 350.4,273.2 350.4,272.6 350.4,272 350.5,271.5 350.5,270.9 350.5,270.4 
		350.5,269.8 350.6,269.3 350.6,268.7 350.6,268.1 350.7,267.6 350.7,267 350.8,266.5 350.8,265.9 350.8,265.3 350.9,264.8 
		350.9,264.2 350.9,263.6 351,263.1 351,262.5 351,262 351.1,261.4 351.1,260.9 351.1,260.3 351.1,259.7 351.2,259.2 351.2,258.6 
		351.2,258 351.2,257.5 351.2,256.9 351.3,256.4 351.3,255.8 351.3,255.3 351.3,254.7 351.3,254.1 351.2,253.6 351.2,253 
		351.2,252.4 351.2,251.9 351.2,251.3 351.1,250.8 351.1,250.2 351.1,249.6 351.1,249.1 351,248.5 351,248 350.9,247.4 350.9,246.8 
		350.9,246.3 350.8,245.7 350.8,245.2 350.7,244.6 350.7,244 350.6,243.5 350.6,242.9 350.5,242.4 350.5,241.8 350.5,241.2 
		350.4,240.7 350.4,240.1 350.4,239.6 350.4,239 350.4,238.4 350.4,237.9 350.4,237.3 350.4,236.8 350.4,236.2 350.4,235.6 
		350.5,235.1 350.5,234.5 350.5,234 350.6,233.4 350.7,232.8 350.8,232.3 350.9,231.7 351,231.2 351.1,230.6 351.2,230 351.4,229.5 
		351.5,228.9 351.7,228.4 351.9,227.8 352.1,227.2 352.3,226.7 352.5,226.1 352.8,225.6 353,225 353.3,224.4 353.5,223.9 
		353.8,223.3 354.1,222.8 354.4,222.2 354.8,221.6 355.1,221.1 355.4,220.5 355.8,219.9 356.2,219.4 356.5,218.8 356.9,218.3 
		357.3,217.7 357.7,217.1 358.1,216.6 358.6,216 359,215.5 359.4,214.9 359.9,214.4 360.3,213.8 360.8,213.2 361.3,212.7 
		361.7,212.1 362.2,211.6 362.6,211 363.1,210.4 363.6,209.9 364.1,209.3 364.6,208.8 365,208.2 365.5,207.6 366,207.1 366.5,206.5 
		367,205.9 367.5,205.4 367.9,204.8 368.4,204.3 368.9,203.7 369.4,203.1 369.8,202.6 370.3,202 370.7,201.5 371.2,200.9 
		371.6,200.3 372.1,199.8 372.5,199.2 373,198.7 373.4,198.1 373.8,197.5 374.2,197 374.6,196.4 375,195.9 375.4,195.3 375.8,194.7 
		376.2,194.2 376.6,193.6 377,193.1 377.3,192.5 377.7,191.9 378,191.4 378.4,190.8 378.7,190.3 379,189.7 379.4,189.1 379.7,188.6 
		380,188 380.3,187.5 380.5,186.9 380.8,186.3 381.1,185.8 381.4,185.2 381.6,184.7 381.9,184.1 382.1,183.5 382.4,183 382.6,182.4 
		382.9,181.9 383.1,181.3 383.3,180.7 383.5,180.2 383.7,179.6 383.9,179.1 384.1,178.5 384.3,177.9 384.5,177.4 384.6,176.8 
		384.8,176.3 385,175.7 385.1,175.1 385.3,174.6 385.4,174 385.5,173.5 385.6,172.9 385.8,172.3 385.9,171.8 386,171.2 386.1,170.6 
		386.2,170.1 386.3,169.5 386.4,169 386.5,168.4 386.6,167.9 386.7,167.3 386.7,166.7 386.8,166.2 386.9,165.6 386.9,165 387,164.5 
		387.1,163.9 387.1,163.4 387.2,162.8 387.2,162.3 387.3,161.7 387.3,161.1 387.4,160.6 387.4,160 387.4,159.5 387.5,158.9 
		387.5,158.3 387.6,157.8 387.6,157.2 387.6,156.6 387.7,156.1 387.7,155.5 387.8,155 387.8,154.4 387.8,153.9 387.9,153.3 
		387.9,152.7 387.9,152.2 388,151.6 388,151 388.1,150.5 388.1,149.9 388.1,149.4 388.2,148.8 388.2,148.2 388.3,147.7 388.3,147.1 
		388.4,146.6 388.4,146 388.5,145.4 388.5,144.9 388.5,144.3 388.6,143.8 388.6,143.2 388.7,142.6 388.7,142.1 388.8,141.5 
		388.8,141 388.9,140.4 388.9,139.8 389,139.3 389,138.7 389.1,138.2 389.1,137.6 389.1,137 389.2,136.5 389.2,135.9 389.3,135.4 
		389.3,134.8 389.4,134.2 389.4,133.7 389.4,133.1 389.5,132.6 389.5,132 389.5,131.4 389.6,130.9 389.6,130.3 389.6,129.8 
		389.6,129.2 389.7,128.6 389.7,128.1 389.7,127.5 389.8,127 389.8,126.4 389.8,125.8 389.8,125.3 389.9,124.7 389.9,124.1 
		389.9,123.6 389.9,123 389.9,122.5 390,121.9 390,121.4 390,120.8 390,120.2 390,119.7 390.1,119.1 390.1,118.5 390.1,118 
		390.1,117.4 390.1,116.9 390.2,116.3 390.2,115.8 390.2,115.2 390.3,114.6 390.3,114.1 390.3,113.5 390.3,113 390.4,112.4 
		390.4,111.8 390.4,111.3 390.5,110.7 390.5,110.1 390.5,109.6 390.5,109 390.6,108.5 390.6,107.9 390.6,107.4 390.7,106.8 
		390.7,106.2 390.8,105.7 390.8,105.1 390.8,104.5 390.9,104 390.9,103.4 391,102.9 391,102.3 391,101.7 391.1,101.2 391.1,100.6 
		391.2,100.1 391.2,99.5 391.3,98.9 391.3,98.4 391.3,97.8 391.4,97.3 391.4,96.7 391.5,96.1 391.5,95.6 391.6,95 391.6,94.5 
		391.6,93.9 391.7,93.3 394.4,93.3 394.5,93.9 394.5,94.5 394.6,95 394.6,95.6 394.6,96.1 394.7,96.7 394.7,97.3 394.8,97.8 
		394.8,98.4 394.9,98.9 394.9,99.5 395,100.1 395,100.6 395,101.2 395.1,101.7 395.1,102.3 395.2,102.9 395.2,103.4 395.3,104 
		395.3,104.5 395.3,105.1 395.4,105.7 395.4,106.2 395.4,106.8 395.5,107.4 395.5,107.9 395.5,108.5 395.6,109 395.6,109.6 
		395.6,110.1 395.7,110.7 395.7,111.3 395.7,111.8 395.8,112.4 395.8,113 395.8,113.5 395.9,114.1 395.9,114.6 395.9,115.2 
		395.9,115.8 396,116.3 396,116.9 396,117.4 396,118 396,118.5 396.1,119.1 396.1,119.7 396.1,120.2 396.1,120.8 396.1,121.4 
		396.2,121.9 396.2,122.5 396.2,123 396.2,123.6 396.3,124.1 396.3,124.7 396.3,125.3 396.3,125.8 396.4,126.4 396.4,127 
		396.4,127.5 396.4,128.1 396.5,128.6 396.5,129.2 396.5,129.8 396.5,130.3 396.6,130.9 396.6,131.4 396.6,132 396.7,132.6 
		396.7,133.1 396.7,133.7 396.8,134.2 396.8,134.8 396.9,135.4 396.9,135.9 396.9,136.5 397,137 397,137.6 397.1,138.2 397.1,138.7 
		397.1,139.3 397.2,139.8 397.3,140.4 397.3,141 397.3,141.5 397.4,142.1 397.4,142.6 397.5,143.2 397.5,143.8 397.6,144.3 
		397.6,144.9 397.7,145.4 397.7,146 397.8,146.6 397.8,147.1 397.9,147.7 397.9,148.2 397.9,148.8 398,149.4 398,149.9 398.1,150.5 
		398.1,151 398.1,151.6 398.2,152.2 398.2,152.7 398.3,153.3 398.3,153.9 398.3,154.4 398.4,155 398.4,155.5 398.5,156.1 
		398.5,156.6 398.5,157.2 398.6,157.8 398.6,158.3 398.6,158.9 398.7,159.5 398.7,160 398.8,160.6 398.8,161.1 398.9,161.7 
		398.9,162.3 399,162.8 399,163.4 399.1,163.9 399.1,164.5 399.2,165 399.3,165.6 399.3,166.2 399.4,166.7 399.5,167.3 399.5,167.9 
		399.6,168.4 399.7,169 399.8,169.5 399.9,170.1 400,170.6 400.1,171.2 400.2,171.8 400.4,172.3 400.5,172.9 400.6,173.5 400.7,174 
		400.9,174.6 401,175.1 401.2,175.7 401.3,176.3 401.5,176.8 401.7,177.4 401.9,177.9 402,178.5 402.2,179.1 402.4,179.6 
		402.6,180.2 402.8,180.7 403,181.3 403.3,181.9 403.5,182.4 403.7,183 404,183.5 404.2,184.1 404.5,184.7 404.7,185.2 405,185.8 
		405.3,186.3 405.6,186.9 405.9,187.5 406.2,188 406.5,188.6 406.8,189.1 407.1,189.7 407.4,190.3 407.8,190.8 408.1,191.4 
		408.5,191.9 408.8,192.5 409.2,193.1 409.5,193.6 409.9,194.2 410.3,194.7 410.7,195.3 411.1,195.9 411.5,196.4 411.9,197 
		412.3,197.5 412.7,198.1 413.2,198.7 413.6,199.2 414,199.8 414.5,200.3 414.9,200.9 415.4,201.5 415.8,202 416.3,202.6 
		416.8,203.1 417.2,203.7 417.7,204.3 418.2,204.8 418.7,205.4 419.1,205.9 419.6,206.5 420.1,207.1 420.6,207.6 421.1,208.2 
		421.6,208.8 422,209.3 422.5,209.9 423,210.4 423.5,211 424,211.6 424.4,212.1 424.9,212.7 425.3,213.2 425.8,213.8 426.3,214.4 
		426.7,214.9 427.1,215.5 427.6,216 428,216.6 428.4,217.1 428.8,217.7 429.2,218.3 429.6,218.8 430,219.4 430.3,219.9 430.7,220.5 
		431,221.1 431.4,221.6 431.7,222.2 432,222.8 432.3,223.3 432.6,223.9 432.9,224.4 433.1,225 433.4,225.6 433.6,226.1 433.8,226.7 
		434,227.2 434.2,227.8 434.4,228.4 434.6,228.9 434.8,229.5 434.9,230 435,230.6 435.1,231.2 435.3,231.7 435.4,232.3 435.5,232.8 
		435.5,233.4 435.6,234 435.6,234.5 435.7,235.1 435.7,235.6 435.7,236.2 435.8,236.8 435.8,237.3 435.8,237.9 435.8,238.4 
		435.8,239 435.7,239.6 435.7,240.1 435.7,240.7 435.6,241.2 435.6,241.8 435.6,242.4 435.5,242.9 435.5,243.5 435.5,244 
		435.4,244.6 435.4,245.2 435.3,245.7 435.3,246.3 435.2,246.8 435.2,247.4 435.1,248 435.1,248.5 435.1,249.1 435,249.6 435,250.2 
		435,250.8 435,251.3 434.9,251.9 434.9,252.4 434.9,253 434.9,253.6 434.9,254.1 434.9,254.7 434.9,255.3 434.9,255.8 434.9,256.4 
		434.9,256.9 434.9,257.5 434.9,258 434.9,258.6 435,259.2 435,259.7 435,260.3 435,260.9 435.1,261.4 435.1,262 435.1,262.5 
		435.2,263.1 435.2,263.6 435.2,264.2 435.3,264.8 435.3,265.3 435.3,265.9 435.4,266.5 435.4,267 435.4,267.6 435.5,268.1 
		435.5,268.7 435.5,269.3 435.6,269.8 435.6,270.4 435.6,270.9 435.7,271.5 435.7,272 435.8,272.6 435.8,273.2 435.8,273.7 
		435.9,274.3 435.9,274.9 435.9,275.4 436,276 436,276.5 436,277.1 436.1,277.7 436.1,278.2 436.1,278.8 436.2,279.3 436.2,279.9 
		436.3,280.5 436.3,281 436.4,281.6 436.5,282.1 436.5,282.7 436.6,283.3 436.6,283.8 436.7,284.4 436.8,284.9 436.8,285.5 
		436.9,286.1 437,286.6 437.1,287.2 437.1,287.7 437.2,288.3 437.3,288.9 437.4,289.4 437.5,290 437.6,290.5 437.7,291.1 
		437.8,291.7 437.9,292.2 438,292.8 438.1,293.3 438.2,293.9 438.3,294.5 438.4,295 438.5,295.6 438.6,296.1 438.7,296.7 
		438.8,297.3 439,297.8 439.1,298.4 439.2,298.9 439.3,299.5 439.4,300.1 439.5,300.6 439.7,301.2 439.8,301.8 439.9,302.3 
		440.1,302.9 440.2,303.4 440.4,304 440.5,304.5 440.7,305.1 440.9,305.7 441,306.2 441.2,306.8 441.4,307.4 441.6,307.9 
		441.9,308.5 442.1,309 442.4,309.6 442.6,310.1 442.9,310.7 443.2,311.3 443.5,311.8 443.8,312.4 444.2,313 444.5,313.5 
		444.9,314.1 445.3,314.6 445.8,315.2 446.2,315.8 446.7,316.3 447.1,316.9 447.6,317.4 448.2,318 448.7,318.5 449.3,319.1 
		449.9,319.7 450.5,320.2 451.1,320.8 451.8,321.4 452.4,321.9 453.1,322.5 453.8,323 454.5,323.6 455.3,324.1 456,324.7 
		456.8,325.3 457.6,325.8 458.4,326.4 459.2,327 460,327.5 460.8,328.1 461.6,328.6 462.5,329.2 463.3,329.8 464.2,330.3 465,330.9 
		465.9,331.4 466.7,332 467.6,332.6 468.4,333.1 469.3,333.7 470.1,334.2 470.9,334.8 471.7,335.4 472.5,335.9 473.3,336.5 474,337 
		474.8,337.6 475.5,338.2 476.2,338.7 476.9,339.3 477.6,339.8 478.2,340.4 478.9,341 479.4,341.5 480,342.1 480.5,342.6 481,343.2 
		481.5,343.8 481.9,344.3 482.3,344.9 482.6,345.4 482.9,346 483.2,346.6 483.4,347.1 483.6,347.7 483.7,348.2 483.8,348.8 
		483.8,349.4 483.8,349.9 483.8,350.5 483.7,351 483.5,351.6 483.3,352.2 483.1,352.7 482.8,353.3 482.4,353.9 482,354.4 481.6,355 
		481.1,355.5 480.5,356.1 479.9,356.6 479.2,357.2 478.5,357.8 477.8,358.3 477,358.9 476.1,359.5 475.2,360 474.2,360.6 
		473.2,361.1 472.2,361.7 471.1,362.3 470,362.8 468.8,363.4 467.6,363.9 466.3,364.5 465,365 463.7,365.6 462.4,366.2 461,366.7 
		459.6,367.3 458.2,367.9 456.7,368.4 455.2,369 453.8,369.5 452.2,370.1 450.7,370.6 449.2,371.2 447.7,371.8 446.1,372.3 
		444.6,372.9 443,373.5 441.5,374 440,374.6 438.4,375.1 436.9,375.7 435.4,376.3 433.9,376.8 432.4,377.4 430.9,377.9 429.5,378.5 
		428,379.1 426.6,379.6 	"/>
	<line class="st6" x1="191.4" y1="218" x2="191.4" y2="56.2"/>
	<line class="st6" x1="191.4" y1="325.8" x2="191.4" y2="382.8"/>
	<rect x="171.2" y="218" class="st3" width="40.3" height="107.8"/>
	<rect x="171.2" y="218" class="st4" width="40.3" height="107.8"/>
	<line class="st7" x1="171.2" y1="282" x2="211.5" y2="282"/>
	<line class="st6" x1="393.1" y1="252.4" x2="393.1" y2="112.5"/>
	<line class="st6" x1="393.1" y1="348.6" x2="393.1" y2="379.6"/>
	<rect x="372.9" y="252.4" class="st5" width="40.3" height="96.1"/>
	<rect x="372.9" y="252.4" class="st4" width="40.3" height="96.1"/>
	<line class="st7" x1="372.9" y1="309.2" x2="413.2" y2="309.2"/>
</g>
<g>
	<path d="M57.6,381.8c0-1,0.1-1.8,0.3-2.5s0.5-1.1,0.9-1.4s0.9-0.5,1.6-0.5c0.5,0,0.9,0.1,1.2,0.3s0.6,0.5,0.9,0.8s0.4,0.8,0.5,1.3
		s0.2,1.2,0.2,2c0,1-0.1,1.8-0.3,2.4s-0.5,1.1-0.9,1.4s-0.9,0.5-1.6,0.5c-0.8,0-1.5-0.3-2-0.9C57.8,384.5,57.6,383.4,57.6,381.8z
		 M58.6,381.8c0,1.4,0.2,2.3,0.5,2.8s0.7,0.7,1.2,0.7s0.9-0.2,1.2-0.7s0.5-1.4,0.5-2.8c0-1.4-0.2-2.4-0.5-2.8s-0.7-0.7-1.2-0.7
		c-0.5,0-0.9,0.2-1.2,0.6C58.8,379.4,58.6,380.4,58.6,381.8z"/>
</g>
<g>
	<path d="M37.5,277l1.1-0.1c0.1,0.5,0.3,0.9,0.6,1.2s0.7,0.4,1.1,0.4c0.5,0,0.9-0.2,1.3-0.6s0.5-0.9,0.5-1.5c0-0.6-0.2-1.1-0.5-1.4
		s-0.8-0.5-1.3-0.5c-0.3,0-0.6,0.1-0.9,0.2s-0.5,0.4-0.6,0.6l-1-0.1l0.8-4.4h4.3v1h-3.4l-0.5,2.3c0.5-0.4,1.1-0.5,1.6-0.5
		c0.8,0,1.4,0.3,1.9,0.8s0.8,1.2,0.8,2c0,0.8-0.2,1.4-0.7,2c-0.6,0.7-1.3,1-2.3,1c-0.8,0-1.4-0.2-1.9-0.7S37.6,277.8,37.5,277z"/>
	<path d="M44.2,275.1c0-1,0.1-1.8,0.3-2.5s0.5-1.1,0.9-1.4s0.9-0.5,1.6-0.5c0.5,0,0.9,0.1,1.2,0.3s0.6,0.5,0.9,0.8s0.4,0.8,0.5,1.3
		s0.2,1.2,0.2,2c0,1-0.1,1.8-0.3,2.4s-0.5,1.1-0.9,1.4s-0.9,0.5-1.6,0.5c-0.8,0-1.5-0.3-2-0.9C44.5,277.8,44.2,276.7,44.2,275.1z
		 M45.3,275.1c0,1.4,0.2,2.3,0.5,2.8s0.7,0.7,1.2,0.7s0.9-0.2,1.2-0.7s0.5-1.4,0.5-2.8c0-1.4-0.2-2.4-0.5-2.8s-0.7-0.7-1.2-0.7
		c-0.5,0-0.9,0.2-1.2,0.6C45.5,272.7,45.3,273.7,45.3,275.1z"/>
	<path d="M50.9,275.1c0-1,0.1-1.8,0.3-2.5s0.5-1.1,0.9-1.4s0.9-0.5,1.6-0.5c0.5,0,0.9,0.1,1.2,0.3s0.6,0.5,0.9,0.8s0.4,0.8,0.5,1.3
		s0.2,1.2,0.2,2c0,1-0.1,1.8-0.3,2.4s-0.5,1.1-0.9,1.4s-0.9,0.5-1.6,0.5c-0.8,0-1.5-0.3-2-0.9C51.2,277.8,50.9,276.7,50.9,275.1z
		 M52,275.1c0,1.4,0.2,2.3,0.5,2.8s0.7,0.7,1.2,0.7s0.9-0.2,1.2-0.7s0.5-1.4,0.5-2.8c0-1.4-0.2-2.4-0.5-2.8s-0.7-0.7-1.2-0.7
		c-0.5,0-0.9,0.2-1.2,0.6C52.2,272.7,52,273.7,52,275.1z"/>
	<path d="M57.6,275.1c0-1,0.1-1.8,0.3-2.5s0.5-1.1,0.9-1.4s0.9-0.5,1.6-0.5c0.5,0,0.9,0.1,1.2,0.3s0.6,0.5,0.9,0.8s0.4,0.8,0.5,1.3
		s0.2,1.2,0.2,2c0,1-0.1,1.8-0.3,2.4s-0.5,1.1-0.9,1.4s-0.9,0.5-1.6,0.5c-0.8,0-1.5-0.3-2-0.9C57.8,277.8,57.6,276.7,57.6,275.1z
		 M58.6,275.1c0,1.4,0.2,2.3,0.5,2.8s0.7,0.7,1.2,0.7s0.9-0.2,1.2-0.7s0.5-1.4,0.5-2.8c0-1.4-0.2-2.4-0.5-2.8s-0.7-0.7-1.2-0.7
		c-0.5,0-0.9,0.2-1.2,0.6C58.8,272.7,58.6,273.7,58.6,275.1z"/>
</g>
<g>
	<path d="M34.8,172.6h-1.1v-6.7c-0.3,0.2-0.6,0.5-1,0.7s-0.8,0.4-1.1,0.5v-1c0.6-0.3,1.1-0.6,1.5-1s0.8-0.8,0.9-1.1h0.7V172.6z"/>
	<path d="M37.5,168.4c0-1,0.1-1.8,0.3-2.5s0.5-1.1,0.9-1.4s0.9-0.5,1.6-0.5c0.5,0,0.9,0.1,1.2,0.3s0.6,0.5,0.9,0.8s0.4,0.8,0.5,1.3
		s0.2,1.2,0.2,2c0,1-0.1,1.8-0.3,2.4s-0.5,1.1-0.9,1.4s-0.9,0.5-1.6,0.5c-0.8,0-1.5-0.3-2-0.9C37.8,171.1,37.5,170,37.5,168.4z
		 M38.6,168.4c0,1.4,0.2,2.3,0.5,2.8s0.7,0.7,1.2,0.7s0.9-0.2,1.2-0.7s0.5-1.4,0.5-2.8c0-1.4-0.2-2.4-0.5-2.8s-0.7-0.7-1.2-0.7
		c-0.5,0-0.9,0.2-1.2,0.6C38.8,166,38.6,166.9,38.6,168.4z"/>
	<path d="M44.2,168.4c0-1,0.1-1.8,0.3-2.5s0.5-1.1,0.9-1.4s0.9-0.5,1.6-0.5c0.5,0,0.9,0.1,1.2,0.3s0.6,0.5,0.9,0.8s0.4,0.8,0.5,1.3
		s0.2,1.2,0.2,2c0,1-0.1,1.8-0.3,2.4s-0.5,1.1-0.9,1.4s-0.9,0.5-1.6,0.5c-0.8,0-1.5-0.3-2-0.9C44.5,171.1,44.2,170,44.2,168.4z
		 M45.3,168.4c0,1.4,0.2,2.3,0.5,2.8s0.7,0.7,1.2,0.7s0.9-0.2,1.2-0.7s0.5-1.4,0.5-2.8c0-1.4-0.2-2.4-0.5-2.8s-0.7-0.7-1.2-0.7
		c-0.5,0-0.9,0.2-1.2,0.6C45.5,166,45.3,166.9,45.3,168.4z"/>
	<path d="M50.9,168.4c0-1,0.1-1.8,0.3-2.5s0.5-1.1,0.9-1.4s0.9-0.5,1.6-0.5c0.5,0,0.9,0.1,1.2,0.3s0.6,0.5,0.9,0.8s0.4,0.8,0.5,1.3
		s0.2,1.2,0.2,2c0,1-0.1,1.8-0.3,2.4s-0.5,1.1-0.9,1.4s-0.9,0.5-1.6,0.5c-0.8,0-1.5-0.3-2-0.9C51.2,171.1,50.9,170,50.9,168.4z
		 M52,168.4c0,1.4,0.2,2.3,0.5,2.8s0.7,0.7,1.2,0.7s0.9-0.2,1.2-0.7s0.5-1.4,0.5-2.8c0-1.4-0.2-2.4-0.5-2.8s-0.7-0.7-1.2-0.7
		c-0.5,0-0.9,0.2-1.2,0.6C52.2,166,52,166.9,52,168.4z"/>
	<path d="M57.6,168.4c0-1,0.1-1.8,0.3-2.5s0.5-1.1,0.9-1.4s0.9-0.5,1.6-0.5c0.5,0,0.9,0.1,1.2,0.3s0.6,0.5,0.9,0.8s0.4,0.8,0.5,1.3
		s0.2,1.2,0.2,2c0,1-0.1,1.8-0.3,2.4s-0.5,1.1-0.9,1.4s-0.9,0.5-1.6,0.5c-0.8,0-1.5-0.3-2-0.9C57.8,171.1,57.6,170,57.6,168.4z
		 M58.6,168.4c0,1.4,0.2,2.3,0.5,2.8s0.7,0.7,1.2,0.7s0.9-0.2,1.2-0.7s0.5-1.4,0.5-2.8c0-1.4-0.2-2.4-0.5-2.8s-0.7-0.7-1.2-0.7
		c-0.5,0-0.9,0.2-1.2,0.6C58.8,166,58.6,166.9,58.6,168.4z"/>
</g>
<g>
	<path d="M34.8,65.9h-1.1v-6.7c-0.3,0.2-0.6,0.5-1,0.7s-0.8,0.4-1.1,0.5v-1c0.6-0.3,1.1-0.6,1.5-1s0.8-0.8,0.9-1.1h0.7V65.9z"/>
	<path d="M37.5,63.6l1.1-0.1c0.1,0.5,0.3,0.9,0.6,1.2s0.7,0.4,1.1,0.4c0.5,0,0.9-0.2,1.3-0.6s0.5-0.9,0.5-1.5c0-0.6-0.2-1.1-0.5-1.4
		s-0.8-0.5-1.3-0.5c-0.3,0-0.6,0.1-0.9,0.2s-0.5,0.4-0.6,0.6l-1-0.1l0.8-4.4h4.3v1h-3.4l-0.5,2.3c0.5-0.4,1.1-0.5,1.6-0.5
		c0.8,0,1.4,0.3,1.9,0.8s0.8,1.2,0.8,2c0,0.8-0.2,1.4-0.7,2c-0.6,0.7-1.3,1-2.3,1c-0.8,0-1.4-0.2-1.9-0.7S37.6,64.4,37.5,63.6z"/>
	<path d="M44.2,61.6c0-1,0.1-1.8,0.3-2.5s0.5-1.1,0.9-1.4s0.9-0.5,1.6-0.5c0.5,0,0.9,0.1,1.2,0.3s0.6,0.5,0.9,0.8s0.4,0.8,0.5,1.3
		s0.2,1.2,0.2,2c0,1-0.1,1.8-0.3,2.4s-0.5,1.1-0.9,1.4S47.6,66,47,66c-0.8,0-1.5-0.3-2-0.9C44.5,64.4,44.2,63.3,44.2,61.6z
		 M45.3,61.6c0,1.4,0.2,2.3,0.5,2.8s0.7,0.7,1.2,0.7s0.9-0.2,1.2-0.7s0.5-1.4,0.5-2.8c0-1.4-0.2-2.4-0.5-2.8s-0.7-0.7-1.2-0.7
		c-0.5,0-0.9,0.2-1.2,0.6C45.5,59.3,45.3,60.2,45.3,61.6z"/>
	<path d="M50.9,61.6c0-1,0.1-1.8,0.3-2.5s0.5-1.1,0.9-1.4s0.9-0.5,1.6-0.5c0.5,0,0.9,0.1,1.2,0.3s0.6,0.5,0.9,0.8s0.4,0.8,0.5,1.3
		s0.2,1.2,0.2,2c0,1-0.1,1.8-0.3,2.4s-0.5,1.1-0.9,1.4S54.3,66,53.7,66c-0.8,0-1.5-0.3-2-0.9C51.2,64.4,50.9,63.3,50.9,61.6z
		 M52,61.6c0,1.4,0.2,2.3,0.5,2.8s0.7,0.7,1.2,0.7s0.9-0.2,1.2-0.7s0.5-1.4,0.5-2.8c0-1.4-0.2-2.4-0.5-2.8s-0.7-0.7-1.2-0.7
		c-0.5,0-0.9,0.2-1.2,0.6C52.2,59.3,52,60.2,52,61.6z"/>
	<path d="M57.6,61.6c0-1,0.1-1.8,0.3-2.5s0.5-1.1,0.9-1.4s0.9-0.5,1.6-0.5c0.5,0,0.9,0.1,1.2,0.3s0.6,0.5,0.9,0.8s0.4,0.8,0.5,1.3
		s0.2,1.2,0.2,2c0,1-0.1,1.8-0.3,2.4s-0.5,1.1-0.9,1.4S61,66,60.4,66c-0.8,0-1.5-0.3-2-0.9C57.8,64.4,57.6,63.3,57.6,61.6z
		 M58.6,61.6c0,1.4,0.2,2.3,0.5,2.8s0.7,0.7,1.2,0.7s0.9-0.2,1.2-0.7s0.5-1.4,0.5-2.8c0-1.4-0.2-2.4-0.5-2.8s-0.7-0.7-1.2-0.7
		c-0.5,0-0.9,0.2-1.2,0.6C58.8,59.3,58.6,60.2,58.6,61.6z"/>
</g>
<line class="st8" x1="67.6" y1="382.8" x2="70.3" y2="382.8"/>
<line class="st8" x1="67.6" y1="276.1" x2="70.3" y2="276.1"/>
<line class="st8" x1="67.6" y1="169.4" x2="70.3" y2="169.4"/>
<line class="st8" x1="67.6" y1="62.6" x2="70.3" y2="62.6"/>
<line class="st8" x1="191.4" y1="403.5" x2="191.4" y2="400.7"/>
<line class="st8" x1="393.1" y1="403.5" x2="393.1" y2="400.7"/>
<g>
	<path d="M137.4,417.6l3.8-10h1.4l4.1,10h-1.5l-1.2-3h-4.2l-1.1,3H137.4z M140.3,413.5h3.4l-1-2.8c-0.3-0.8-0.6-1.5-0.7-2.1
		c-0.1,0.6-0.3,1.3-0.5,1.9L140.3,413.5z"/>
	<path d="M147.7,417.6v-10h1.2v10H147.7z"/>
	<path d="M150.8,417.6v-10h1.2v10H150.8z"/>
	<path d="M162.5,415l1.2,0.2c-0.1,0.8-0.5,1.5-1,2c-0.5,0.5-1.2,0.7-2,0.7c-1,0-1.8-0.3-2.4-1c-0.6-0.6-0.9-1.6-0.9-2.8
		c0-0.8,0.1-1.5,0.4-2.1s0.7-1,1.2-1.3c0.5-0.3,1.1-0.4,1.7-0.4c0.8,0,1.4,0.2,1.9,0.6c0.5,0.4,0.8,1,1,1.7l-1.2,0.2
		c-0.1-0.5-0.3-0.9-0.6-1.1s-0.6-0.4-1-0.4c-0.6,0-1.1,0.2-1.5,0.7c-0.4,0.4-0.6,1.1-0.6,2.1c0,1,0.2,1.7,0.6,2.1s0.9,0.7,1.5,0.7
		c0.5,0,0.9-0.1,1.2-0.4S162.5,415.6,162.5,415z"/>
	<path d="M169.8,415.3l1.3,0.2c-0.2,0.7-0.6,1.3-1.1,1.7s-1.2,0.6-2.1,0.6c-1.1,0-1.9-0.3-2.5-1c-0.6-0.7-0.9-1.6-0.9-2.8
		c0-1.2,0.3-2.2,0.9-2.8s1.4-1,2.4-1c1,0,1.8,0.3,2.4,1s0.9,1.6,0.9,2.8c0,0.1,0,0.2,0,0.3h-5.4c0,0.8,0.3,1.4,0.7,1.8
		s0.9,0.6,1.5,0.6c0.5,0,0.8-0.1,1.2-0.4S169.6,415.8,169.8,415.3z M165.7,413.3h4.1c-0.1-0.6-0.2-1.1-0.5-1.4
		c-0.4-0.5-0.9-0.7-1.5-0.7c-0.6,0-1,0.2-1.4,0.6S165.8,412.7,165.7,413.3z"/>
	<path d="M172.6,417.6v-10h1.2v10H172.6z"/>
	<path d="M175.7,417.6v-10h1.2v10H175.7z"/>
	<path d="M178.3,414.6v-1.2h3.8v1.2H178.3z"/>
	<path d="M188.2,415l1.2,0.2c-0.1,0.8-0.5,1.5-1,2c-0.5,0.5-1.2,0.7-2,0.7c-1,0-1.8-0.3-2.4-1c-0.6-0.6-0.9-1.6-0.9-2.8
		c0-0.8,0.1-1.5,0.4-2.1s0.7-1,1.2-1.3c0.5-0.3,1.1-0.4,1.7-0.4c0.8,0,1.4,0.2,1.9,0.6c0.5,0.4,0.8,1,1,1.7l-1.2,0.2
		c-0.1-0.5-0.3-0.9-0.6-1.1s-0.6-0.4-1-0.4c-0.6,0-1.1,0.2-1.5,0.7c-0.4,0.4-0.6,1.1-0.6,2.1c0,1,0.2,1.7,0.6,2.1s0.9,0.7,1.5,0.7
		c0.5,0,0.9-0.1,1.2-0.4S188.1,415.6,188.2,415z"/>
	<path d="M195.4,415.3l1.3,0.2c-0.2,0.7-0.6,1.3-1.1,1.7s-1.2,0.6-2.1,0.6c-1.1,0-1.9-0.3-2.5-1c-0.6-0.7-0.9-1.6-0.9-2.8
		c0-1.2,0.3-2.2,0.9-2.8s1.4-1,2.4-1c1,0,1.8,0.3,2.4,1s0.9,1.6,0.9,2.8c0,0.1,0,0.2,0,0.3h-5.4c0,0.8,0.3,1.4,0.7,1.8
		s0.9,0.6,1.5,0.6c0.5,0,0.8-0.1,1.2-0.4S195.3,415.8,195.4,415.3z M191.4,413.3h4.1c-0.1-0.6-0.2-1.1-0.5-1.4
		c-0.4-0.5-0.9-0.7-1.5-0.7c-0.6,0-1,0.2-1.4,0.6S191.4,412.7,191.4,413.3z"/>
	<path d="M198.2,417.6v-10h1.2v10H198.2z"/>
	<path d="M201.3,417.6v-10h1.2v10H201.3z"/>
	<path d="M208.4,420.4v-10h1.1v0.9c0.3-0.4,0.6-0.6,0.9-0.8c0.3-0.2,0.7-0.3,1.2-0.3c0.6,0,1.2,0.2,1.6,0.5s0.8,0.8,1.1,1.3
		c0.2,0.6,0.4,1.2,0.4,1.9c0,0.7-0.1,1.4-0.4,2c-0.3,0.6-0.7,1-1.2,1.4c-0.5,0.3-1,0.5-1.6,0.5c-0.4,0-0.8-0.1-1.1-0.3
		s-0.6-0.4-0.8-0.7v3.5H208.4z M209.5,414c0,0.9,0.2,1.6,0.6,2.1s0.8,0.7,1.4,0.7c0.5,0,1-0.2,1.4-0.7c0.4-0.5,0.6-1.2,0.6-2.2
		c0-0.9-0.2-1.6-0.6-2.1s-0.8-0.7-1.4-0.7c-0.5,0-1,0.2-1.4,0.7C209.7,412.4,209.5,413.1,209.5,414z"/>
	<path d="M220.9,416.7c-0.5,0.4-0.9,0.7-1.3,0.8s-0.9,0.2-1.4,0.2c-0.8,0-1.4-0.2-1.8-0.6c-0.4-0.4-0.6-0.9-0.6-1.5
		c0-0.4,0.1-0.7,0.2-1c0.2-0.3,0.4-0.5,0.6-0.7s0.6-0.3,0.9-0.4c0.2-0.1,0.6-0.1,1.1-0.2c1-0.1,1.7-0.3,2.2-0.4c0-0.2,0-0.3,0-0.3
		c0-0.5-0.1-0.9-0.3-1.1c-0.3-0.3-0.8-0.4-1.4-0.4c-0.6,0-1,0.1-1.3,0.3c-0.3,0.2-0.5,0.6-0.6,1.1l-1.2-0.2c0.1-0.5,0.3-0.9,0.5-1.2
		c0.3-0.3,0.6-0.6,1.1-0.7c0.5-0.2,1-0.3,1.6-0.3c0.6,0,1.1,0.1,1.5,0.2s0.7,0.3,0.9,0.6c0.2,0.2,0.3,0.5,0.4,0.8
		c0,0.2,0.1,0.6,0.1,1.1v1.6c0,1.1,0,1.9,0.1,2.2c0.1,0.3,0.2,0.6,0.3,0.9h-1.3C221,417.4,220.9,417.1,220.9,416.7z M220.8,414
		c-0.4,0.2-1.1,0.3-2,0.5c-0.5,0.1-0.9,0.2-1.1,0.2s-0.4,0.2-0.5,0.4c-0.1,0.2-0.2,0.4-0.2,0.6c0,0.3,0.1,0.6,0.4,0.8
		s0.6,0.3,1.1,0.3c0.5,0,0.9-0.1,1.3-0.3c0.4-0.2,0.6-0.5,0.8-0.9c0.1-0.3,0.2-0.7,0.2-1.2V414z"/>
	<path d="M223.9,409v-1.4h1.2v1.4H223.9z M223.9,417.6v-7.3h1.2v7.3H223.9z"/>
	<path d="M227,417.6v-7.3h1.1v1.1c0.3-0.5,0.5-0.9,0.8-1s0.5-0.2,0.8-0.2c0.4,0,0.8,0.1,1.3,0.4l-0.4,1.1c-0.3-0.2-0.6-0.3-0.9-0.3
		c-0.3,0-0.5,0.1-0.7,0.2c-0.2,0.2-0.4,0.4-0.5,0.7c-0.1,0.4-0.2,0.9-0.2,1.4v3.8H227z"/>
	<path d="M231.2,415.5l1.2-0.2c0.1,0.5,0.3,0.9,0.6,1.1s0.7,0.4,1.3,0.4c0.6,0,1-0.1,1.3-0.3c0.3-0.2,0.4-0.5,0.4-0.8
		c0-0.3-0.1-0.5-0.4-0.7c-0.2-0.1-0.6-0.2-1.3-0.4c-0.9-0.2-1.5-0.4-1.9-0.6c-0.3-0.2-0.6-0.4-0.8-0.7c-0.2-0.3-0.3-0.6-0.3-1
		c0-0.3,0.1-0.6,0.2-0.9c0.1-0.3,0.3-0.5,0.6-0.7c0.2-0.1,0.5-0.3,0.8-0.4c0.3-0.1,0.7-0.1,1.1-0.1c0.6,0,1.1,0.1,1.5,0.2
		s0.7,0.4,1,0.7c0.2,0.3,0.3,0.7,0.4,1.1l-1.2,0.2c-0.1-0.4-0.2-0.7-0.5-0.9s-0.6-0.3-1.1-0.3c-0.6,0-1,0.1-1.2,0.3
		s-0.4,0.4-0.4,0.7c0,0.2,0.1,0.3,0.2,0.4c0.1,0.1,0.3,0.2,0.5,0.3c0.1,0,0.5,0.2,1.1,0.3c0.9,0.2,1.5,0.4,1.8,0.6
		c0.3,0.1,0.6,0.4,0.8,0.6s0.3,0.6,0.3,1.1c0,0.4-0.1,0.8-0.4,1.2c-0.2,0.4-0.6,0.6-1,0.8c-0.5,0.2-1,0.3-1.5,0.3
		c-0.9,0-1.7-0.2-2.2-0.6S231.4,416.2,231.2,415.5z"/>
</g>
<g>
	<path d="M21.6,230.7h-10v-3.5c0-0.8,0-1.4,0.1-1.8c0.1-0.6,0.4-1.1,0.7-1.5c0.4-0.5,1-0.9,1.7-1.2c0.7-0.3,1.5-0.4,2.4-0.4
		c0.8,0,1.4,0.1,2,0.3s1.1,0.4,1.5,0.7c0.4,0.3,0.7,0.6,0.9,0.9c0.2,0.3,0.4,0.7,0.5,1.2s0.2,1,0.2,1.6V230.7z M20.5,229.4v-2.1
		c0-0.7-0.1-1.2-0.2-1.6s-0.3-0.7-0.5-0.9c-0.3-0.3-0.7-0.6-1.3-0.7c-0.5-0.2-1.2-0.3-1.9-0.3c-1,0-1.9,0.2-2.4,0.5
		c-0.6,0.3-0.9,0.8-1.1,1.3c-0.1,0.4-0.2,0.9-0.2,1.7v2.1H20.5z"/>
	<path d="M13,220.7h-1.4v-1.2H13V220.7z M21.6,220.7h-7.3v-1.2h7.3V220.7z"/>
	<path d="M19.5,218.1l-0.2-1.2c0.5-0.1,0.9-0.3,1.1-0.6s0.4-0.7,0.4-1.3c0-0.6-0.1-1-0.3-1.3c-0.2-0.3-0.5-0.4-0.8-0.4
		c-0.3,0-0.5,0.1-0.7,0.4c-0.1,0.2-0.2,0.6-0.4,1.3c-0.2,0.9-0.4,1.5-0.6,1.9c-0.2,0.3-0.4,0.6-0.7,0.8c-0.3,0.2-0.6,0.3-1,0.3
		c-0.3,0-0.6-0.1-0.9-0.2c-0.3-0.1-0.5-0.3-0.7-0.6c-0.1-0.2-0.3-0.5-0.4-0.8c-0.1-0.3-0.1-0.7-0.1-1.1c0-0.6,0.1-1.1,0.2-1.5
		s0.4-0.7,0.7-1c0.3-0.2,0.7-0.3,1.1-0.4l0.2,1.2c-0.4,0.1-0.7,0.2-0.9,0.5s-0.3,0.6-0.3,1.1c0,0.6,0.1,1,0.3,1.2s0.4,0.4,0.7,0.4
		c0.2,0,0.3-0.1,0.4-0.2c0.1-0.1,0.2-0.3,0.3-0.5c0-0.1,0.2-0.5,0.3-1.1c0.2-0.9,0.4-1.5,0.6-1.8c0.1-0.3,0.4-0.6,0.6-0.8
		s0.6-0.3,1.1-0.3c0.4,0,0.8,0.1,1.2,0.4c0.4,0.2,0.6,0.6,0.8,1c0.2,0.5,0.3,1,0.3,1.5c0,0.9-0.2,1.7-0.6,2.2
		C20.8,217.7,20.2,218,19.5,218.1z"/>
	<path d="M20.5,207.9l1.1-0.2c0.1,0.3,0.1,0.7,0.1,0.9c0,0.4-0.1,0.8-0.2,1s-0.3,0.4-0.6,0.5c-0.2,0.1-0.7,0.2-1.5,0.2h-4.2v0.9h-1
		v-0.9h-1.8l-0.7-1.2h2.5v-1.2h1v1.2h4.2c0.4,0,0.6,0,0.7-0.1s0.2-0.1,0.2-0.2s0.1-0.2,0.1-0.4C20.6,208.4,20.6,208.2,20.5,207.9z"
		/>
	<path d="M20.7,202c0.4,0.5,0.7,0.9,0.8,1.3s0.2,0.9,0.2,1.4c0,0.8-0.2,1.4-0.6,1.8c-0.4,0.4-0.9,0.6-1.5,0.6c-0.4,0-0.7-0.1-1-0.2
		c-0.3-0.2-0.5-0.4-0.7-0.6s-0.3-0.6-0.4-0.9c-0.1-0.2-0.1-0.6-0.2-1.1c-0.1-1-0.3-1.7-0.4-2.2c-0.2,0-0.3,0-0.3,0
		c-0.5,0-0.9,0.1-1.1,0.3c-0.3,0.3-0.4,0.8-0.4,1.4c0,0.6,0.1,1,0.3,1.3c0.2,0.3,0.6,0.5,1.1,0.6l-0.2,1.2c-0.5-0.1-0.9-0.3-1.2-0.5
		c-0.3-0.3-0.6-0.6-0.7-1.1c-0.2-0.5-0.3-1-0.3-1.6c0-0.6,0.1-1.1,0.2-1.5s0.3-0.7,0.6-0.9c0.2-0.2,0.5-0.3,0.8-0.4
		c0.2,0,0.6-0.1,1.1-0.1h1.6c1.1,0,1.9,0,2.2-0.1c0.3-0.1,0.6-0.2,0.9-0.3v1.3C21.4,201.9,21.1,202,20.7,202z M18,202.1
		c0.2,0.4,0.3,1.1,0.5,2c0.1,0.5,0.2,0.9,0.2,1.1s0.2,0.4,0.4,0.5c0.2,0.1,0.4,0.2,0.6,0.2c0.3,0,0.6-0.1,0.8-0.4s0.3-0.6,0.3-1.1
		c0-0.5-0.1-0.9-0.3-1.3c-0.2-0.4-0.5-0.6-0.9-0.8c-0.3-0.1-0.7-0.2-1.2-0.2H18z"/>
	<path d="M21.6,199h-7.3v-1.1h1c-0.8-0.5-1.2-1.3-1.2-2.3c0-0.4,0.1-0.8,0.2-1.2c0.2-0.4,0.4-0.6,0.6-0.8s0.6-0.3,0.9-0.4
		c0.2,0,0.6-0.1,1.2-0.1h4.5v1.2h-4.4c-0.5,0-0.9,0-1.1,0.1c-0.2,0.1-0.4,0.3-0.6,0.5c-0.1,0.2-0.2,0.5-0.2,0.9c0,0.5,0.2,1,0.5,1.4
		c0.3,0.4,1,0.6,1.9,0.6h4V199z"/>
	<path d="M19,186.4l0.2-1.2c0.8,0.1,1.5,0.5,2,1c0.5,0.5,0.7,1.2,0.7,2c0,1-0.3,1.8-1,2.4c-0.6,0.6-1.6,0.9-2.8,0.9
		c-0.8,0-1.5-0.1-2.1-0.4c-0.6-0.3-1-0.7-1.3-1.2c-0.3-0.5-0.4-1.1-0.4-1.7c0-0.8,0.2-1.4,0.6-1.9c0.4-0.5,1-0.8,1.7-1l0.2,1.2
		c-0.5,0.1-0.9,0.3-1.1,0.6s-0.4,0.6-0.4,1c0,0.6,0.2,1.1,0.7,1.5c0.4,0.4,1.1,0.6,2.1,0.6c1,0,1.7-0.2,2.1-0.6s0.7-0.9,0.7-1.5
		c0-0.5-0.1-0.9-0.4-1.2S19.6,186.5,19,186.4z"/>
	<path d="M19.3,179.2l0.2-1.3c0.7,0.2,1.3,0.6,1.7,1.1s0.6,1.2,0.6,2.1c0,1.1-0.3,1.9-1,2.5c-0.7,0.6-1.6,0.9-2.8,0.9
		c-1.2,0-2.2-0.3-2.8-0.9s-1-1.4-1-2.4c0-1,0.3-1.8,1-2.4s1.6-0.9,2.8-0.9c0.1,0,0.2,0,0.3,0v5.4c0.8,0,1.4-0.3,1.8-0.7
		s0.6-0.9,0.6-1.5c0-0.5-0.1-0.8-0.4-1.2S19.8,179.4,19.3,179.2z M17.3,183.2v-4.1c-0.6,0.1-1.1,0.2-1.4,0.5
		c-0.5,0.4-0.7,0.9-0.7,1.5c0,0.6,0.2,1,0.6,1.4C16.2,183,16.7,183.2,17.3,183.2z"/>
</g>
<g>
	<path d="M348.7,414.4l1.3-0.1c0.1,0.5,0.2,0.9,0.4,1.2c0.2,0.3,0.6,0.6,1,0.8c0.5,0.2,1,0.3,1.5,0.3c0.5,0,1-0.1,1.3-0.2
		c0.4-0.2,0.7-0.4,0.9-0.6c0.2-0.3,0.3-0.5,0.3-0.9c0-0.3-0.1-0.6-0.3-0.8c-0.2-0.2-0.5-0.4-0.9-0.6c-0.3-0.1-0.9-0.3-1.8-0.5
		c-0.9-0.2-1.6-0.4-1.9-0.6c-0.5-0.3-0.8-0.6-1.1-0.9c-0.2-0.4-0.4-0.8-0.4-1.2c0-0.5,0.1-1,0.4-1.4c0.3-0.4,0.7-0.8,1.3-1
		c0.6-0.2,1.2-0.3,1.8-0.3c0.7,0,1.4,0.1,2,0.4c0.6,0.2,1,0.6,1.3,1.1c0.3,0.5,0.5,1,0.5,1.6l-1.3,0.1c-0.1-0.6-0.3-1.1-0.7-1.4
		c-0.4-0.3-1-0.5-1.7-0.5c-0.8,0-1.4,0.1-1.8,0.4c-0.4,0.3-0.6,0.6-0.6,1.1c0,0.4,0.1,0.7,0.4,0.9c0.3,0.2,0.9,0.5,2,0.7
		c1.1,0.2,1.8,0.5,2.2,0.6c0.6,0.3,1,0.6,1.3,1c0.3,0.4,0.4,0.9,0.4,1.4c0,0.5-0.2,1-0.5,1.5c-0.3,0.5-0.7,0.8-1.3,1.1
		c-0.6,0.3-1.2,0.4-1.9,0.4c-0.9,0-1.7-0.1-2.3-0.4c-0.6-0.3-1.1-0.7-1.4-1.2C348.9,415.7,348.7,415.1,348.7,414.4z"/>
	<path d="M363.3,415.3l1.3,0.2c-0.2,0.7-0.6,1.3-1.1,1.7c-0.5,0.4-1.2,0.6-2.1,0.6c-1.1,0-1.9-0.3-2.5-1c-0.6-0.7-0.9-1.6-0.9-2.8
		c0-1.2,0.3-2.2,0.9-2.8s1.4-1,2.4-1c1,0,1.8,0.3,2.4,1s0.9,1.6,0.9,2.8c0,0.1,0,0.2,0,0.3h-5.4c0,0.8,0.3,1.4,0.7,1.8
		c0.4,0.4,0.9,0.6,1.5,0.6c0.5,0,0.8-0.1,1.2-0.4C362.9,416.2,363.1,415.8,363.3,415.3z M359.3,413.3h4.1c-0.1-0.6-0.2-1.1-0.5-1.4
		c-0.4-0.5-0.9-0.7-1.5-0.7c-0.6,0-1,0.2-1.4,0.6C359.5,412.2,359.3,412.7,359.3,413.3z"/>
	<path d="M366.1,417.6v-7.3h1.1v1c0.5-0.8,1.3-1.2,2.3-1.2c0.4,0,0.8,0.1,1.2,0.2c0.4,0.2,0.6,0.4,0.8,0.6c0.2,0.3,0.3,0.6,0.4,0.9
		c0,0.2,0.1,0.6,0.1,1.2v4.5h-1.2v-4.4c0-0.5,0-0.9-0.1-1.1c-0.1-0.2-0.3-0.4-0.5-0.6c-0.2-0.1-0.5-0.2-0.9-0.2
		c-0.5,0-1,0.2-1.4,0.5c-0.4,0.3-0.6,1-0.6,1.9v4H366.1z"/>
	<path d="M378.6,417.6v-0.9c-0.5,0.7-1.1,1.1-2,1.1c-0.6,0-1.1-0.2-1.6-0.5s-0.9-0.8-1.1-1.3c-0.3-0.6-0.4-1.2-0.4-2
		c0-0.7,0.1-1.4,0.4-2c0.2-0.6,0.6-1,1.1-1.4c0.5-0.3,1-0.5,1.6-0.5c0.4,0,0.8,0.1,1.2,0.3c0.3,0.2,0.6,0.4,0.8,0.7v-3.6h1.2v10
		H378.6z M374.8,414c0,0.9,0.2,1.6,0.6,2.1c0.4,0.5,0.9,0.7,1.4,0.7c0.5,0,1-0.2,1.4-0.7c0.4-0.4,0.6-1.1,0.6-2c0-1-0.2-1.7-0.6-2.2
		s-0.9-0.7-1.4-0.7c-0.5,0-1,0.2-1.4,0.7C374.9,412.3,374.8,413,374.8,414z"/>
	<path d="M386.7,415.3l1.3,0.2c-0.2,0.7-0.6,1.3-1.1,1.7c-0.5,0.4-1.2,0.6-2.1,0.6c-1.1,0-1.9-0.3-2.5-1c-0.6-0.7-0.9-1.6-0.9-2.8
		c0-1.2,0.3-2.2,0.9-2.8s1.4-1,2.4-1c1,0,1.8,0.3,2.4,1s0.9,1.6,0.9,2.8c0,0.1,0,0.2,0,0.3h-5.4c0,0.8,0.3,1.4,0.7,1.8
		c0.4,0.4,0.9,0.6,1.5,0.6c0.5,0,0.8-0.1,1.2-0.4C386.2,416.2,386.5,415.8,386.7,415.3z M382.6,413.3h4.1c-0.1-0.6-0.2-1.1-0.5-1.4
		c-0.4-0.5-0.9-0.7-1.5-0.7c-0.6,0-1,0.2-1.4,0.6C382.9,412.2,382.7,412.7,382.6,413.3z"/>
	<path d="M389.5,417.6v-7.3h1.1v1.1c0.3-0.5,0.5-0.9,0.8-1s0.5-0.2,0.8-0.2c0.4,0,0.8,0.1,1.3,0.4l-0.4,1.1
		c-0.3-0.2-0.6-0.3-0.9-0.3c-0.3,0-0.5,0.1-0.7,0.2c-0.2,0.2-0.4,0.4-0.5,0.7c-0.1,0.4-0.2,0.9-0.2,1.4v3.8H389.5z"/>
	<path d="M393.7,415.5l1.2-0.2c0.1,0.5,0.3,0.9,0.6,1.1c0.3,0.3,0.7,0.4,1.3,0.4c0.6,0,1-0.1,1.3-0.3c0.3-0.2,0.4-0.5,0.4-0.8
		c0-0.3-0.1-0.5-0.4-0.7c-0.2-0.1-0.6-0.2-1.3-0.4c-0.9-0.2-1.5-0.4-1.9-0.6c-0.3-0.2-0.6-0.4-0.8-0.7c-0.2-0.3-0.3-0.6-0.3-1
		c0-0.3,0.1-0.6,0.2-0.9c0.1-0.3,0.3-0.5,0.6-0.7c0.2-0.1,0.5-0.3,0.8-0.4c0.3-0.1,0.7-0.1,1.1-0.1c0.6,0,1.1,0.1,1.5,0.2
		s0.7,0.4,1,0.7c0.2,0.3,0.3,0.7,0.4,1.1l-1.2,0.2c-0.1-0.4-0.2-0.7-0.5-0.9c-0.3-0.2-0.6-0.3-1.1-0.3c-0.6,0-1,0.1-1.2,0.3
		c-0.2,0.2-0.4,0.4-0.4,0.7c0,0.2,0.1,0.3,0.2,0.4c0.1,0.1,0.3,0.2,0.5,0.3c0.1,0,0.5,0.2,1.1,0.3c0.9,0.2,1.5,0.4,1.8,0.6
		c0.3,0.1,0.6,0.4,0.8,0.6c0.2,0.3,0.3,0.6,0.3,1.1c0,0.4-0.1,0.8-0.4,1.2c-0.2,0.4-0.6,0.6-1,0.8c-0.5,0.2-1,0.3-1.5,0.3
		c-0.9,0-1.7-0.2-2.2-0.6C394.1,416.8,393.8,416.2,393.7,415.5z"/>
	<path d="M400.7,414.6v-1.2h3.8v1.2H400.7z"/>
	<path d="M405.8,417.6v-7.3h1.1v1.1c0.3-0.5,0.5-0.9,0.8-1s0.5-0.2,0.8-0.2c0.4,0,0.8,0.1,1.3,0.4l-0.4,1.1
		c-0.3-0.2-0.6-0.3-0.9-0.3c-0.3,0-0.5,0.1-0.7,0.2c-0.2,0.2-0.4,0.4-0.5,0.7c-0.1,0.4-0.2,0.9-0.2,1.4v3.8H405.8z"/>
	<path d="M415.5,415.3l1.3,0.2c-0.2,0.7-0.6,1.3-1.1,1.7c-0.5,0.4-1.2,0.6-2.1,0.6c-1.1,0-1.9-0.3-2.5-1c-0.6-0.7-0.9-1.6-0.9-2.8
		c0-1.2,0.3-2.2,0.9-2.8s1.4-1,2.4-1c1,0,1.8,0.3,2.4,1s0.9,1.6,0.9,2.8c0,0.1,0,0.2,0,0.3h-5.4c0,0.8,0.3,1.4,0.7,1.8
		c0.4,0.4,0.9,0.6,1.5,0.6c0.5,0,0.8-0.1,1.2-0.4C415,416.2,415.3,415.8,415.5,415.3z M411.4,413.3h4.1c-0.1-0.6-0.2-1.1-0.5-1.4
		c-0.4-0.5-0.9-0.7-1.5-0.7c-0.6,0-1,0.2-1.4,0.6C411.7,412.2,411.5,412.7,411.4,413.3z"/>
	<path d="M423,415l1.2,0.2c-0.1,0.8-0.5,1.5-1,2c-0.5,0.5-1.2,0.7-2,0.7c-1,0-1.8-0.3-2.4-1c-0.6-0.6-0.9-1.6-0.9-2.8
		c0-0.8,0.1-1.5,0.4-2.1s0.7-1,1.2-1.3c0.5-0.3,1.1-0.4,1.7-0.4c0.8,0,1.4,0.2,1.9,0.6c0.5,0.4,0.8,1,1,1.7l-1.2,0.2
		c-0.1-0.5-0.3-0.9-0.6-1.1c-0.3-0.2-0.6-0.4-1-0.4c-0.6,0-1.1,0.2-1.5,0.7c-0.4,0.4-0.6,1.1-0.6,2.1c0,1,0.2,1.7,0.6,2.1
		c0.4,0.4,0.9,0.7,1.5,0.7c0.5,0,0.9-0.1,1.2-0.4C422.7,416,422.9,415.6,423,415z"/>
	<path d="M430.2,415.3l1.3,0.2c-0.2,0.7-0.6,1.3-1.1,1.7c-0.5,0.4-1.2,0.6-2.1,0.6c-1.1,0-1.9-0.3-2.5-1c-0.6-0.7-0.9-1.6-0.9-2.8
		c0-1.2,0.3-2.2,0.9-2.8s1.4-1,2.4-1c1,0,1.8,0.3,2.4,1s0.9,1.6,0.9,2.8c0,0.1,0,0.2,0,0.3h-5.4c0,0.8,0.3,1.4,0.7,1.8
		c0.4,0.4,0.9,0.6,1.5,0.6c0.5,0,0.8-0.1,1.2-0.4C429.8,416.2,430.1,415.8,430.2,415.3z M426.2,413.3h4.1c-0.1-0.6-0.2-1.1-0.5-1.4
		c-0.4-0.5-0.9-0.7-1.5-0.7c-0.6,0-1,0.2-1.4,0.6C426.5,412.2,426.2,412.7,426.2,413.3z"/>
	<path d="M433.1,409v-1.4h1.2v1.4H433.1z M433.1,417.6v-7.3h1.2v7.3H433.1z"/>
	<path d="M438.2,417.6l-2.8-7.3h1.3l1.6,4.3c0.2,0.5,0.3,1,0.5,1.5c0.1-0.4,0.3-0.8,0.5-1.4l1.6-4.4h1.3l-2.7,7.3H438.2z"/>
	<path d="M448.1,415.3l1.3,0.2c-0.2,0.7-0.6,1.3-1.1,1.7c-0.5,0.4-1.2,0.6-2.1,0.6c-1.1,0-1.9-0.3-2.5-1c-0.6-0.7-0.9-1.6-0.9-2.8
		c0-1.2,0.3-2.2,0.9-2.8s1.4-1,2.4-1c1,0,1.8,0.3,2.4,1s0.9,1.6,0.9,2.8c0,0.1,0,0.2,0,0.3H444c0,0.8,0.3,1.4,0.7,1.8
		c0.4,0.4,0.9,0.6,1.5,0.6c0.5,0,0.8-0.1,1.2-0.4C447.7,416.2,448,415.8,448.1,415.3z M444.1,413.3h4.1c-0.1-0.6-0.2-1.1-0.5-1.4
		c-0.4-0.5-0.9-0.7-1.5-0.7c-0.6,0-1,0.2-1.4,0.6C444.4,412.2,444.1,412.7,444.1,413.3z"/>
	<path d="M450.9,417.6v-7.3h1.1v1.1c0.3-0.5,0.5-0.9,0.8-1s0.5-0.2,0.8-0.2c0.4,0,0.8,0.1,1.3,0.4l-0.4,1.1
		c-0.3-0.2-0.6-0.3-0.9-0.3c-0.3,0-0.5,0.1-0.7,0.2c-0.2,0.2-0.4,0.4-0.5,0.7c-0.1,0.4-0.2,0.9-0.2,1.4v3.8H450.9z"/>
	<path d="M455.1,415.5l1.2-0.2c0.1,0.5,0.3,0.9,0.6,1.1c0.3,0.3,0.7,0.4,1.3,0.4c0.6,0,1-0.1,1.3-0.3c0.3-0.2,0.4-0.5,0.4-0.8
		c0-0.3-0.1-0.5-0.4-0.7c-0.2-0.1-0.6-0.2-1.3-0.4c-0.9-0.2-1.5-0.4-1.9-0.6c-0.3-0.2-0.6-0.4-0.8-0.7c-0.2-0.3-0.3-0.6-0.3-1
		c0-0.3,0.1-0.6,0.2-0.9c0.1-0.3,0.3-0.5,0.6-0.7c0.2-0.1,0.5-0.3,0.8-0.4c0.3-0.1,0.7-0.1,1.1-0.1c0.6,0,1.1,0.1,1.5,0.2
		s0.7,0.4,1,0.7c0.2,0.3,0.3,0.7,0.4,1.1l-1.2,0.2c-0.1-0.4-0.2-0.7-0.5-0.9c-0.3-0.2-0.6-0.3-1.1-0.3c-0.6,0-1,0.1-1.2,0.3
		c-0.2,0.2-0.4,0.4-0.4,0.7c0,0.2,0.1,0.3,0.2,0.4c0.1,0.1,0.3,0.2,0.5,0.3c0.1,0,0.5,0.2,1.1,0.3c0.9,0.2,1.5,0.4,1.8,0.6
		c0.3,0.1,0.6,0.4,0.8,0.6c0.2,0.3,0.3,0.6,0.3,1.1c0,0.4-0.1,0.8-0.4,1.2c-0.2,0.4-0.6,0.6-1,0.8c-0.5,0.2-1,0.3-1.5,0.3
		c-0.9,0-1.7-0.2-2.2-0.6C455.6,416.8,455.3,416.2,455.1,415.5z"/>
</g>
</svg>
