<?xml version="1.0" encoding="utf-8"?>
<!-- Generator: Adobe Illustrator 22.1.0, SVG Export Plug-In . SVG Version: 6.00 Build 0)  -->
<svg version="1.1" id="图层_1" xmlns="http://www.w3.org/2000/svg" xmlns:xlink="http://www.w3.org/1999/xlink" x="0px" y="0px"
	 viewBox="0 0 621.9 331.3" style="enable-background:new 0 0 621.9 331.3;" xml:space="preserve">
<style type="text/css">
	.st0{clip-path:url(#SVGID_2_);fill:#FFFFFF;}
	.st1{clip-path:url(#SVGID_4_);}
	.st2{clip-path:url(#SVGID_6_);}
	
		.st3{clip-path:url(#SVGID_8_);fill:none;stroke:#333333;stroke-width:1.07;stroke-linecap:round;stroke-linejoin:round;stroke-miterlimit:10;}
	.st4{clip-path:url(#SVGID_4_);fill:#FFFFFF;}
	.st5{clip-path:url(#SVGID_10_);}
	.st6{clip-path:url(#SVGID_4_);fill:none;stroke:#FFFFFF;stroke-width:0.38;stroke-linejoin:round;stroke-miterlimit:10;}
	.st7{fill:url(#SVGID_11_);}
	.st8{font-family:'ArialMT';}
	.st9{font-size:12px;}
	.st10{font-size:10px;}
</style>
<g>
	<g>
		<defs>
			<rect id="SVGID_1_" x="11" y="11" width="538.8" height="311.2"/>
		</defs>
		<clipPath id="SVGID_2_">
			<use xlink:href="#SVGID_1_"  style="overflow:visible;"/>
		</clipPath>
		<rect x="11" y="11" class="st0" width="538.8" height="311.2"/>
	</g>
	<g>
		<defs>
			<rect id="SVGID_3_" x="11" y="11" width="538.8" height="311.2"/>
		</defs>
		<clipPath id="SVGID_4_">
			<use xlink:href="#SVGID_3_"  style="overflow:visible;"/>
		</clipPath>
		<g class="st1">
			<g>
				<defs>
					<rect id="SVGID_5_" x="35.5" y="25.1" width="489.8" height="282.9"/>
				</defs>
				<clipPath id="SVGID_6_">
					<use xlink:href="#SVGID_5_"  style="overflow:visible;"/>
				</clipPath>
				<g transform="matrix(1 -6.617445e-24 -6.617445e-24 1 0 0)" class="st2">
					
						<image style="overflow:visible;enable-background:new    ;" width="100" height="100" xlink:href="26ED539C.jpeg"  transform="matrix(-5.196605e-16 2.8289 -4.8983 -8.998031e-16 525.3033 25.1066)">
					</image>
				</g>
			</g>
			<g>
				<defs>
					<rect id="SVGID_7_" x="11" y="11" width="538.8" height="311.2"/>
				</defs>
				<clipPath id="SVGID_8_">
					<use xlink:href="#SVGID_7_"  style="overflow:visible;"/>
				</clipPath>
				<rect x="11" y="11" class="st3" width="538.8" height="311.2"/>
			</g>
		</g>
		<rect x="555.1" y="8" class="st4" width="59.6" height="121.2"/>
		<g class="st1">
			<g>
				<defs>
					<rect id="SVGID_9_" x="560.9" y="31.2" width="18.4" height="92.1"/>
				</defs>
				<clipPath id="SVGID_10_">
					<use xlink:href="#SVGID_9_"  style="overflow:visible;"/>
				</clipPath>
				<g class="st5">
					
						<image style="overflow:visible;enable-background:new    ;" width="1" height="5" xlink:href="26ED539C.jpeg"  transform="matrix(18.4296 0 0 0.3072 560.9379 76.4863)">
					</image>
				</g>
			</g>
		</g>
		<g class="st1">
			<path d="M584,101.7l0.8-0.1c0.1,0.5,0.3,0.8,0.5,1s0.5,0.3,0.9,0.3s0.7-0.1,1-0.4s0.4-0.6,0.4-1s-0.1-0.7-0.4-1s-0.6-0.4-1-0.4
				c-0.2,0-0.4,0-0.6,0.1l0.1-0.7c0.1,0,0.1,0,0.1,0c0.4,0,0.7-0.1,1-0.3s0.4-0.5,0.4-0.9c0-0.3-0.1-0.6-0.3-0.8s-0.5-0.3-0.8-0.3
				s-0.6,0.1-0.8,0.3c-0.2,0.2-0.4,0.5-0.4,0.9l-0.8-0.1c0.1-0.6,0.3-1,0.7-1.3s0.8-0.5,1.4-0.5c0.4,0,0.7,0.1,1,0.2
				s0.6,0.4,0.7,0.7c0.2,0.3,0.3,0.6,0.3,0.9s-0.1,0.6-0.2,0.8s-0.4,0.4-0.7,0.6c0.4,0.1,0.7,0.3,0.9,0.6c0.2,0.3,0.3,0.7,0.3,1.1
				c0,0.6-0.2,1.1-0.7,1.5s-1,0.6-1.7,0.6c-0.6,0-1.1-0.2-1.5-0.5S584,102.3,584,101.7z"/>
			<path d="M593,101.9l0.9,0.1c-0.1,0.5-0.4,0.9-0.8,1.2c-0.4,0.3-0.8,0.4-1.4,0.4c-0.7,0-1.3-0.2-1.7-0.7s-0.6-1.1-0.6-1.9
				s0.2-1.5,0.6-1.9c0.4-0.5,1-0.7,1.7-0.7s1.2,0.2,1.6,0.7s0.6,1.1,0.6,1.9c0,0,0,0.1,0,0.2h-3.7c0,0.5,0.2,1,0.5,1.3
				s0.6,0.4,1,0.4c0.3,0,0.6-0.1,0.8-0.2C592.7,102.5,592.8,102.3,593,101.9z M590.2,100.6h2.8c0-0.4-0.1-0.7-0.3-0.9
				c-0.3-0.3-0.6-0.5-1-0.5s-0.7,0.1-1,0.4C590.4,99.8,590.2,100.1,590.2,100.6z"/>
			<path d="M599.3,100.5h-4.5v-0.8h4.5V100.5z"/>
			<path d="M600.3,100.1c0-0.8,0.1-1.5,0.3-2s0.4-0.9,0.7-1.1c0.3-0.3,0.7-0.4,1.2-0.4c0.4,0,0.7,0.1,1,0.2s0.5,0.4,0.7,0.6
				c0.2,0.3,0.3,0.6,0.4,1c0.1,0.4,0.2,0.9,0.2,1.6c0,0.8-0.1,1.5-0.2,2c-0.2,0.5-0.4,0.9-0.7,1.1c-0.3,0.3-0.7,0.4-1.2,0.4
				c-0.7,0-1.2-0.2-1.6-0.7C600.5,102.4,600.3,101.4,600.3,100.1z M601.1,100.1c0,1.1,0.1,1.9,0.4,2.3c0.3,0.4,0.6,0.6,1,0.6
				s0.7-0.2,1-0.6s0.4-1.1,0.4-2.3c0-1.1-0.1-1.9-0.4-2.3c-0.3-0.4-0.6-0.6-1-0.6s-0.7,0.2-0.9,0.5C601.3,98.2,601.1,99,601.1,100.1
				z"/>
			<path d="M606.9,99.8c-0.3-0.1-0.6-0.3-0.8-0.5s-0.3-0.5-0.3-0.9c0-0.5,0.2-0.9,0.5-1.3s0.8-0.5,1.4-0.5c0.6,0,1.1,0.2,1.4,0.5
				s0.5,0.8,0.5,1.3c0,0.3-0.1,0.6-0.3,0.8s-0.4,0.4-0.8,0.5c0.4,0.1,0.7,0.4,1,0.7c0.2,0.3,0.3,0.7,0.3,1.1c0,0.6-0.2,1.1-0.6,1.5
				c-0.4,0.4-1,0.6-1.6,0.6c-0.7,0-1.2-0.2-1.6-0.6c-0.4-0.4-0.6-0.9-0.6-1.5c0-0.4,0.1-0.8,0.3-1.1
				C606.2,100.1,606.5,99.9,606.9,99.8z M606.5,101.5c0,0.2,0.1,0.5,0.2,0.7c0.1,0.2,0.3,0.4,0.5,0.5s0.5,0.2,0.7,0.2
				c0.4,0,0.7-0.1,1-0.4s0.4-0.6,0.4-1s-0.1-0.7-0.4-1c-0.3-0.3-0.6-0.4-1-0.4s-0.7,0.1-1,0.4S606.5,101.1,606.5,101.5z M606.7,98.4
				c0,0.3,0.1,0.6,0.3,0.8c0.2,0.2,0.5,0.3,0.8,0.3s0.6-0.1,0.8-0.3c0.2-0.2,0.3-0.5,0.3-0.8s-0.1-0.6-0.3-0.8s-0.5-0.3-0.8-0.3
				s-0.6,0.1-0.8,0.3S606.7,98.1,606.7,98.4z"/>
		</g>
		<g class="st1">
			<path d="M588.4,75.2l-0.8,0.1c-0.1-0.3-0.2-0.6-0.3-0.7c-0.2-0.2-0.5-0.4-0.8-0.4s-0.5,0.1-0.7,0.2c-0.3,0.2-0.5,0.5-0.6,0.8
				c-0.2,0.4-0.2,0.9-0.2,1.6c0.2-0.3,0.5-0.5,0.7-0.7c0.3-0.1,0.6-0.2,0.9-0.2c0.6,0,1,0.2,1.4,0.6s0.6,0.9,0.6,1.6
				c0,0.4-0.1,0.8-0.3,1.2c-0.2,0.4-0.4,0.7-0.8,0.9s-0.7,0.3-1.1,0.3c-0.7,0-1.3-0.3-1.7-0.8s-0.7-1.4-0.7-2.6
				c0-1.3,0.2-2.3,0.7-2.9c0.4-0.5,1-0.8,1.7-0.8c0.5,0,1,0.2,1.3,0.5C588.1,74.3,588.3,74.7,588.4,75.2z M584.9,78.2
				c0,0.3,0.1,0.6,0.2,0.8c0.1,0.3,0.3,0.5,0.5,0.6s0.5,0.2,0.7,0.2c0.4,0,0.7-0.1,0.9-0.4c0.3-0.3,0.4-0.7,0.4-1.2
				s-0.1-0.8-0.4-1.1c-0.3-0.3-0.6-0.4-1-0.4s-0.7,0.1-1,0.4S584.9,77.7,584.9,78.2z"/>
			<path d="M593,78.8l0.9,0.1c-0.1,0.5-0.4,0.9-0.8,1.2c-0.4,0.3-0.8,0.4-1.4,0.4c-0.7,0-1.3-0.2-1.7-0.7s-0.6-1.1-0.6-1.9
				s0.2-1.5,0.6-1.9c0.4-0.5,1-0.7,1.7-0.7s1.2,0.2,1.6,0.7s0.6,1.1,0.6,1.9c0,0,0,0.1,0,0.2h-3.7c0,0.5,0.2,1,0.5,1.3
				s0.6,0.4,1,0.4c0.3,0,0.6-0.1,0.8-0.2C592.7,79.4,592.8,79.2,593,78.8z M590.2,77.4h2.8c0-0.4-0.1-0.7-0.3-0.9
				c-0.3-0.3-0.6-0.5-1-0.5s-0.7,0.1-1,0.4C590.4,76.7,590.2,77,590.2,77.4z"/>
			<path d="M599.3,77.4h-4.5v-0.8h4.5V77.4z"/>
			<path d="M600.3,77c0-0.8,0.1-1.5,0.3-2s0.4-0.9,0.7-1.1c0.3-0.3,0.7-0.4,1.2-0.4c0.4,0,0.7,0.1,1,0.2s0.5,0.4,0.7,0.6
				c0.2,0.3,0.3,0.6,0.4,1c0.1,0.4,0.2,0.9,0.2,1.6c0,0.8-0.1,1.5-0.2,2c-0.2,0.5-0.4,0.9-0.7,1.1c-0.3,0.3-0.7,0.4-1.2,0.4
				c-0.7,0-1.2-0.2-1.6-0.7C600.5,79.2,600.3,78.3,600.3,77z M601.1,77c0,1.1,0.1,1.9,0.4,2.3c0.3,0.4,0.6,0.6,1,0.6s0.7-0.2,1-0.6
				s0.4-1.1,0.4-2.3c0-1.1-0.1-1.9-0.4-2.3c-0.3-0.4-0.6-0.6-1-0.6s-0.7,0.2-0.9,0.5C601.3,75.1,601.1,75.9,601.1,77z"/>
			<path d="M606.9,76.7c-0.3-0.1-0.6-0.3-0.8-0.5s-0.3-0.5-0.3-0.9c0-0.5,0.2-0.9,0.5-1.3s0.8-0.5,1.4-0.5c0.6,0,1.1,0.2,1.4,0.5
				s0.5,0.8,0.5,1.3c0,0.3-0.1,0.6-0.3,0.8s-0.4,0.4-0.8,0.5c0.4,0.1,0.7,0.4,1,0.7c0.2,0.3,0.3,0.7,0.3,1.1c0,0.6-0.2,1.1-0.6,1.5
				c-0.4,0.4-1,0.6-1.6,0.6c-0.7,0-1.2-0.2-1.6-0.6c-0.4-0.4-0.6-0.9-0.6-1.5c0-0.4,0.1-0.8,0.3-1.1C606.2,77,606.5,76.8,606.9,76.7
				z M606.5,78.4c0,0.2,0.1,0.5,0.2,0.7c0.1,0.2,0.3,0.4,0.5,0.5s0.5,0.2,0.7,0.2c0.4,0,0.7-0.1,1-0.4s0.4-0.6,0.4-1s-0.1-0.7-0.4-1
				c-0.3-0.3-0.6-0.4-1-0.4s-0.7,0.1-1,0.4S606.5,78,606.5,78.4z M606.7,75.2c0,0.3,0.1,0.6,0.3,0.8c0.2,0.2,0.5,0.3,0.8,0.3
				s0.6-0.1,0.8-0.3c0.2-0.2,0.3-0.5,0.3-0.8s-0.1-0.6-0.3-0.8s-0.5-0.3-0.8-0.3s-0.6,0.1-0.8,0.3C606.8,74.7,606.7,75,606.7,75.2z"
				/>
		</g>
		<g class="st1">
			<path d="M584.1,55.7l0.8-0.1c0.1,0.4,0.2,0.7,0.4,0.8c0.2,0.2,0.4,0.3,0.7,0.3s0.5-0.1,0.7-0.2c0.2-0.1,0.4-0.3,0.5-0.5
				s0.2-0.5,0.3-0.8s0.1-0.7,0.1-1c0,0,0-0.1,0-0.2c-0.2,0.3-0.4,0.5-0.7,0.7S586.4,55,586,55c-0.6,0-1-0.2-1.4-0.6
				c-0.4-0.4-0.6-1-0.6-1.6c0-0.7,0.2-1.3,0.6-1.7s0.9-0.6,1.5-0.6c0.4,0,0.9,0.1,1.2,0.4c0.4,0.2,0.7,0.6,0.8,1
				c0.2,0.4,0.3,1.1,0.3,1.9c0,0.9-0.1,1.6-0.3,2.1s-0.5,0.9-0.9,1.2s-0.8,0.4-1.3,0.4s-1-0.1-1.3-0.4S584.2,56.3,584.1,55.7z
				 M587.6,52.7c0-0.5-0.1-0.9-0.4-1.2c-0.3-0.3-0.6-0.4-0.9-0.4c-0.4,0-0.7,0.2-1,0.5s-0.4,0.7-0.4,1.2c0,0.4,0.1,0.8,0.4,1.1
				c0.3,0.3,0.6,0.4,1,0.4s0.7-0.1,1-0.4C587.4,53.5,587.6,53.2,587.6,52.7z"/>
			<path d="M593,55.7l0.9,0.1c-0.1,0.5-0.4,0.9-0.8,1.2c-0.4,0.3-0.8,0.4-1.4,0.4c-0.7,0-1.3-0.2-1.7-0.7s-0.6-1.1-0.6-1.9
				c0-0.8,0.2-1.5,0.6-1.9c0.4-0.5,1-0.7,1.7-0.7s1.2,0.2,1.6,0.7s0.6,1.1,0.6,1.9c0,0,0,0.1,0,0.2h-3.7c0,0.5,0.2,1,0.5,1.3
				s0.6,0.4,1,0.4c0.3,0,0.6-0.1,0.8-0.2C592.7,56.3,592.8,56.1,593,55.7z M590.2,54.3h2.8c0-0.4-0.1-0.7-0.3-0.9
				c-0.3-0.3-0.6-0.5-1-0.5s-0.7,0.1-1,0.4C590.4,53.6,590.2,53.9,590.2,54.3z"/>
			<path d="M599.3,54.3h-4.5v-0.8h4.5V54.3z"/>
			<path d="M600.3,53.9c0-0.8,0.1-1.5,0.3-2s0.4-0.9,0.7-1.1c0.3-0.3,0.7-0.4,1.2-0.4c0.4,0,0.7,0.1,1,0.2c0.3,0.1,0.5,0.4,0.7,0.6
				c0.2,0.3,0.3,0.6,0.4,1c0.1,0.4,0.2,0.9,0.2,1.6c0,0.8-0.1,1.5-0.2,2c-0.2,0.5-0.4,0.9-0.7,1.1c-0.3,0.3-0.7,0.4-1.2,0.4
				c-0.7,0-1.2-0.2-1.6-0.7C600.5,56.1,600.3,55.2,600.3,53.9z M601.1,53.9c0,1.1,0.1,1.9,0.4,2.3c0.3,0.4,0.6,0.6,1,0.6
				s0.7-0.2,1-0.6c0.3-0.4,0.4-1.1,0.4-2.3c0-1.1-0.1-1.9-0.4-2.3c-0.3-0.4-0.6-0.6-1-0.6s-0.7,0.2-0.9,0.5
				C601.3,52,601.1,52.8,601.1,53.9z"/>
			<path d="M606.9,53.6c-0.3-0.1-0.6-0.3-0.8-0.5s-0.3-0.5-0.3-0.9c0-0.5,0.2-0.9,0.5-1.3s0.8-0.5,1.4-0.5c0.6,0,1.1,0.2,1.4,0.5
				s0.5,0.8,0.5,1.3c0,0.3-0.1,0.6-0.3,0.8s-0.4,0.4-0.8,0.5c0.4,0.1,0.7,0.4,1,0.7c0.2,0.3,0.3,0.7,0.3,1.1c0,0.6-0.2,1.1-0.6,1.5
				c-0.4,0.4-1,0.6-1.6,0.6c-0.7,0-1.2-0.2-1.6-0.6c-0.4-0.4-0.6-0.9-0.6-1.5c0-0.4,0.1-0.8,0.3-1.1
				C606.2,53.9,606.5,53.7,606.9,53.6z M606.5,55.3c0,0.2,0.1,0.5,0.2,0.7c0.1,0.2,0.3,0.4,0.5,0.5s0.5,0.2,0.7,0.2
				c0.4,0,0.7-0.1,1-0.4c0.3-0.3,0.4-0.6,0.4-1s-0.1-0.7-0.4-1c-0.3-0.3-0.6-0.4-1-0.4s-0.7,0.1-1,0.4S606.5,54.9,606.5,55.3z
				 M606.7,52.1c0,0.3,0.1,0.6,0.3,0.8s0.5,0.3,0.8,0.3s0.6-0.1,0.8-0.3s0.3-0.5,0.3-0.8s-0.1-0.6-0.3-0.8s-0.5-0.3-0.8-0.3
				s-0.6,0.1-0.8,0.3C606.8,51.6,606.7,51.9,606.7,52.1z"/>
		</g>
		<g class="st1">
			<path d="M565.7,23.8V23c-0.4,0.6-1,0.9-1.7,0.9c-0.5,0-0.9-0.1-1.3-0.4c-0.4-0.3-0.7-0.6-0.9-1.1s-0.3-1-0.3-1.7
				c0-0.6,0.1-1.2,0.3-1.7s0.5-0.9,0.9-1.1c0.4-0.3,0.9-0.4,1.4-0.4c0.4,0,0.7,0.1,1,0.2c0.3,0.2,0.5,0.4,0.7,0.6v-3h1v8.4h-1.1
				V23.8z M562.4,20.7c0,0.8,0.2,1.4,0.5,1.7c0.3,0.4,0.7,0.6,1.2,0.6s0.8-0.2,1.1-0.6s0.5-0.9,0.5-1.7c0-0.8-0.2-1.4-0.5-1.8
				s-0.7-0.6-1.2-0.6s-0.8,0.2-1.1,0.6C562.6,19.4,562.4,19.9,562.4,20.7z"/>
			<path d="M572.4,21.8l1.1,0.1c-0.2,0.6-0.5,1.1-0.9,1.4c-0.5,0.3-1,0.5-1.7,0.5c-0.9,0-1.6-0.3-2.1-0.8s-0.8-1.3-0.8-2.3
				s0.3-1.8,0.8-2.4s1.2-0.8,2.1-0.8c0.8,0,1.5,0.3,2,0.8c0.5,0.6,0.8,1.3,0.8,2.3c0,0.1,0,0.2,0,0.3H569c0,0.7,0.2,1.2,0.6,1.5
				c0.3,0.4,0.8,0.5,1.3,0.5c0.4,0,0.7-0.1,1-0.3C572,22.6,572.2,22.3,572.4,21.8z M569,20.2h3.4c0-0.5-0.2-0.9-0.4-1.2
				c-0.3-0.4-0.8-0.6-1.3-0.6s-0.9,0.2-1.2,0.5C569.2,19.2,569,19.6,569,20.2z"/>
			<path d="M574.8,23.8v-6.1h0.9v0.9c0.4-0.7,1.1-1,1.9-1c0.4,0,0.7,0.1,1,0.2s0.5,0.3,0.7,0.5s0.3,0.5,0.3,0.8c0,0.2,0.1,0.5,0.1,1
				v3.7h-1v-3.7c0-0.4,0-0.7-0.1-0.9c-0.1-0.2-0.2-0.4-0.4-0.5s-0.4-0.2-0.7-0.2c-0.4,0-0.8,0.1-1.1,0.4s-0.5,0.8-0.5,1.6v3.3
				C575.9,23.8,574.8,23.8,574.8,23.8z"/>
			<path d="M580.9,22l1-0.2c0.1,0.4,0.2,0.7,0.5,0.9c0.3,0.2,0.6,0.3,1.1,0.3s0.8-0.1,1.1-0.3s0.3-0.4,0.3-0.7
				c0-0.2-0.1-0.4-0.3-0.6c-0.1-0.1-0.5-0.2-1.1-0.3c-0.8-0.2-1.3-0.4-1.6-0.5s-0.5-0.3-0.7-0.6c-0.2-0.2-0.2-0.5-0.2-0.8
				s0.1-0.5,0.2-0.8c0.1-0.2,0.3-0.4,0.5-0.6c0.2-0.1,0.4-0.2,0.7-0.3c0.3-0.1,0.6-0.1,0.9-0.1c0.5,0,0.9,0.1,1.3,0.2
				c0.4,0.1,0.6,0.3,0.8,0.6s0.3,0.5,0.4,0.9l-1,0.1c0-0.3-0.2-0.6-0.4-0.7c-0.2-0.2-0.5-0.3-0.9-0.3c-0.5,0-0.8,0.1-1,0.2
				c-0.2,0.2-0.3,0.3-0.3,0.5c0,0.1,0,0.3,0.1,0.4s0.2,0.2,0.4,0.3c0.1,0,0.4,0.1,0.9,0.3c0.7,0.2,1.2,0.4,1.5,0.5s0.5,0.3,0.7,0.5
				s0.2,0.5,0.2,0.9c0,0.3-0.1,0.7-0.3,1s-0.5,0.5-0.9,0.7s-0.8,0.2-1.3,0.2c-0.8,0-1.4-0.2-1.8-0.5C581.3,23.1,581,22.6,580.9,22z"
				/>
			<path d="M587.2,16.6v-1.2h1v1.2H587.2z M587.2,23.8v-6.1h1v6.1H587.2z"/>
			<path d="M592,22.9l0.1,0.9c-0.3,0.1-0.5,0.1-0.8,0.1c-0.4,0-0.7-0.1-0.9-0.2s-0.4-0.3-0.4-0.5c-0.1-0.2-0.1-0.6-0.1-1.2v-3.5
				h-0.8v-0.8h0.8v-1.5l1-0.6v2.1h1v0.8h-1v3.6c0,0.3,0,0.5,0.1,0.6s0.1,0.2,0.2,0.2s0.2,0.1,0.4,0.1
				C591.7,22.9,591.8,22.9,592,22.9z"/>
			<path d="M593,26.1l-0.1-1c0.2,0.1,0.4,0.1,0.6,0.1c0.2,0,0.4,0,0.5-0.1s0.3-0.2,0.3-0.3c0.1-0.1,0.2-0.4,0.3-0.8
				c0-0.1,0-0.1,0.1-0.3l-2.3-6.1h1.1l1.3,3.5c0.2,0.4,0.3,0.9,0.4,1.4c0.1-0.5,0.3-0.9,0.4-1.4l1.3-3.5h1l-2.3,6.2
				c-0.2,0.7-0.4,1.1-0.6,1.4c-0.2,0.3-0.4,0.6-0.6,0.7c-0.2,0.2-0.5,0.2-0.8,0.2C593.4,26.3,593.2,26.2,593,26.1z"/>
		</g>
		<line class="st6" x1="560.9" y1="100.1" x2="564.6" y2="100.1"/>
		<line class="st6" x1="560.9" y1="77" x2="564.6" y2="77"/>
		<line class="st6" x1="560.9" y1="53.9" x2="564.6" y2="53.9"/>
		<line class="st6" x1="575.7" y1="100.1" x2="579.4" y2="100.1"/>
		<line class="st6" x1="575.7" y1="77" x2="579.4" y2="77"/>
		<line class="st6" x1="575.7" y1="53.9" x2="579.4" y2="53.9"/>
	</g>
</g>
<linearGradient id="SVGID_11_" gradientUnits="userSpaceOnUse" x1="566.6" y1="217.5898" x2="566.6" y2="304.0898" gradientTransform="matrix(1 0 0 -1 0 331.8898)">
	<stop  offset="0" style="stop-color:#A122EF"/>
	<stop  offset="1" style="stop-color:#FFFF00"/>
</linearGradient>
<rect x="555.4" y="27.8" class="st7" width="22.4" height="86.5"/>
<text transform="matrix(1 0 0 1 555.4 22.5566)" class="st8 st9">Density</text>
<text transform="matrix(1 0 0 1 580.1332 53.8899)" class="st8 st10">9e-08</text>
<text transform="matrix(1 0 0 1 580.1332 79.5566)" class="st8 st10">6e-08</text>
<text transform="matrix(1 0 0 1 580.1332 103.8899)" class="st8 st10">3e-08</text>
</svg>
